<?xml version="1.0" encoding="utf-8"?><svg viewBox="0 0 1749 850" xmlns="http://www.w3.org/2000/svg" xmlns:xlink="http://www.w3.org/1999/xlink"><style>:root>svg{display:none}:root>svg:target{display:block}</style><svg fill="none" viewBox="0 0 50 42" id="arrow-gray" xmlns="http://www.w3.org/2000/svg"><path d="M2.81 24.92l-.077-.016H36.19l-10.518 10.54a2.737 2.737 0 00-.797 1.944c0 .732.282 1.424.797 1.94l1.637 1.637c.515.515 1.2.8 1.932.8.731 0 1.418-.283 1.932-.797l18.03-18.029c.516-.516.799-1.204.797-1.936a2.71 2.71 0 00-.797-1.941l-18.03-18.03a2.714 2.714 0 00-1.932-.797c-.732 0-1.417.283-1.932.797L25.672 2.67a2.708 2.708 0 00-.797 1.931c0 .732.282 1.382.797 1.896l10.637 10.6H2.773C1.266 17.097 0 18.395 0 19.902v2.316c0 1.506 1.304 2.703 2.81 2.703z" fill="#535353"/></svg><svg viewBox="0 0 67 67" id="arrow-left" xmlns="http://www.w3.org/2000/svg"><defs><filter id="aba" width="91" height="91" x="-12" y="-12" filterUnits="userSpaceOnUse"><feOffset in="SourceGraphic" result="FeOffset1025Out"/><feGaussianBlur in="FeOffset1025Out" result="FeGaussianBlur1026Out" stdDeviation="3.2 3.2"/></filter><mask id="abb" width="2" height="2" x="-1" y="-1"><path fill="#fff" d="M6 6h55v55H6z"/><path d="M61 33.5C61 48.688 48.688 61 33.5 61S6 48.688 6 33.5 18.312 6 33.5 6 61 18.312 61 33.5z"/></mask></defs><g filter="url(#aba)" transform="rotate(180 33.5 33.5)"><path fill="none" d="M61 33.5C61 48.688 48.688 61 33.5 61S6 48.688 6 33.5 18.312 6 33.5 6 61 18.312 61 33.5z" mask="url(#abb)"/><path fill-opacity=".25" d="M61 33.5C61 48.688 48.688 61 33.5 61S6 48.688 6 33.5 18.312 6 33.5 6 61 18.312 61 33.5z"/></g><path fill="#fff" d="M6 33.5C6 18.312 18.312 6 33.5 6S61 18.312 61 33.5 48.688 61 33.5 61 6 48.688 6 33.5z"/><path fill="#404040" fill-opacity=".75" d="M16 33.5C16 23.835 23.835 16 33.5 16S51 23.835 51 33.5 43.165 51 33.5 51 16 43.165 16 33.5z"/><g><path fill="#fff" d="M28.337 34.085l6.675 6.675a.815.815 0 00.58.24.815.815 0 00.58-.24l.492-.491a.82.82 0 000-1.16l-5.605-5.606 5.611-5.611a.815.815 0 00.24-.58.815.815 0 00-.24-.581l-.491-.491a.813.813 0 00-.58-.24.811.811 0 00-.58.24l-6.682 6.68a.816.816 0 00-.24.583.815.815 0 00.24.582z"/></g></svg><svg viewBox="0 0 67 67" id="arrow-right" xmlns="http://www.w3.org/2000/svg"><defs><filter id="aca" width="91" height="91" x="-12" y="-12" filterUnits="userSpaceOnUse"><feOffset in="SourceGraphic" result="FeOffset1067Out"/><feGaussianBlur in="FeOffset1067Out" result="FeGaussianBlur1068Out" stdDeviation="3.2 3.2"/></filter><mask id="acb" width="2" height="2" x="-1" y="-1"><path fill="#fff" d="M6 6h55v55H6z"/><path d="M61 33.5C61 48.688 48.688 61 33.5 61S6 48.688 6 33.5 18.312 6 33.5 6 61 18.312 61 33.5z"/></mask></defs><g filter="url(#aca)"><path fill="none" d="M61 33.5C61 48.688 48.688 61 33.5 61S6 48.688 6 33.5 18.312 6 33.5 6 61 18.312 61 33.5z" mask="url(#acb)"/><path fill-opacity=".25" d="M61 33.5C61 48.688 48.688 61 33.5 61S6 48.688 6 33.5 18.312 6 33.5 6 61 18.312 61 33.5z"/></g><path fill="#fff" d="M61 33.5C61 48.688 48.688 61 33.5 61S6 48.688 6 33.5 18.312 6 33.5 6 61 18.312 61 33.5z"/><path fill="#404040" fill-opacity=".75" d="M51 33.5C51 43.165 43.165 51 33.5 51S16 43.165 16 33.5 23.835 16 33.5 16 51 23.835 51 33.5z"/><g><path fill="#fff" d="M38.663 32.915l-6.675-6.675a.815.815 0 00-.58-.24.815.815 0 00-.58.24l-.492.491a.82.82 0 000 1.16l5.605 5.606-5.611 5.611a.815.815 0 00-.24.58c0 .22.085.426.24.581l.491.491c.155.155.36.24.58.24.22 0 .426-.085.58-.24l6.682-6.68a.816.816 0 00.24-.583.815.815 0 00-.24-.582z"/></g></svg><svg fill="none" viewBox="0 0 48 48" id="blank" xmlns="http://www.w3.org/2000/svg"><path d="M42.938 2.332H11.9c-2.694 0-4.885 2.171-4.885 4.831l-.2 27.331H.757c-.43 0-.757.38-.757.809v3.761c0 3.521 2.818 6.401 6.219 6.559v.045h26.137v-.05c.195.007.312.05.446.05h.018a6.57 6.57 0 006.532-6.605V15.158h7.89c.43 0 .758-.389.758-.818V7.44a5.098 5.098 0 00-5.062-5.107zM6.558 44.113h-.005c-2.765 0-4.998-2.285-4.998-5.05V36.05h24.68v3.002a6.58 6.58 0 001.92 4.668c.132.132.27.2.41.394H6.558zm31.24-5.05c0 2.765-2.212 5.05-4.979 5.05h-.016a5.05 5.05 0 01-5.013-5.062v-3.748a.805.805 0 00-.778-.809H8.37l.2-27.326c0-1.808 1.494-3.281 3.33-3.281h27.37c-.887.971-1.471 2.2-1.471 3.573v31.603zm8.647-31.61v6.15h-7.093V7.458c0-1.945 1.619-3.571 3.564-3.571h.021a3.543 3.543 0 013.508 3.56v.006z" fill="#333"/><path d="M18.253 21.465l4.008 2.74c.261.18.607.18.869 0l3.995-2.739c1.388-.947 2.413-2.927 2.413-4.605v-5.544a.76.76 0 00-.414-.698l-6.102-3.002a.764.764 0 00-.68 0l-6.09 2.994a.759.759 0 00-.414.697v5.553c0 1.678 1.028 3.658 2.415 4.604zm-.86-9.671l5.295-2.613 5.296 2.62v5.06c0 1.17-.768 2.66-1.736 3.32l-3.569 2.44-3.555-2.44c-.968-.66-1.731-2.15-1.731-3.32v-5.068z" fill="#333"/><path d="M21.373 18.034a.776.776 0 00.55.233h.003a.778.778 0 00.55-.23l3.091-3.093a.778.778 0 10-1.099-1.1l-2.54 2.54-1.015-1.026a.778.778 0 10-1.105 1.095l1.565 1.581zM32.356 26.43H13.7a.777.777 0 000 1.554h18.656a.777.777 0 000-1.555zM32.356 30.024H13.7a.777.777 0 100 1.555h18.656a.777.777 0 100-1.555z" fill="#333"/></svg><svg fill="none" viewBox="0 0 25 25" id="cross" xmlns="http://www.w3.org/2000/svg"><path d="M25 1.473L23.527 0 12.5 11.027 1.473 0 0 1.473 11.027 12.5 0 23.527 1.473 25 12.5 13.973 23.527 25 25 23.527 13.973 12.5 25 1.473z" fill="#000"/></svg><svg fill="none" viewBox="0 0 84 13" id="doted" xmlns="http://www.w3.org/2000/svg"><circle cx="6" cy="6.5" r="6" fill="#E0E0E0"/><circle cx="42" cy="6.5" r="6" fill="#E0E0E0"/><circle cx="78" cy="6.5" r="6" fill="#E0E0E0"/></svg><svg fill="none" viewBox="0 0 35 35" id="faq-arrow" xmlns="http://www.w3.org/2000/svg"><circle cx="17.5" cy="17.5" r="17.5" transform="rotate(-180 17.5 17.5)" fill="#E0E0E0"/><g clip-path="url(#agclip0)"><path d="M24.113 13.057L18 19.17l-6.113-6.113L10 14.943l8 8 8-8-1.887-1.886z" fill="#373737"/></g><defs><clipPath id="agclip0"><path fill="#fff" d="M10 10h16v16H10z"/></clipPath></defs></svg><svg fill="none" viewBox="0 0 48 48" id="grid" xmlns="http://www.w3.org/2000/svg"><g clip-path="url(#ahclip0)" fill="#333"><path d="M45.733 31.502H31.494v-14.25a.75.75 0 00-.75-.75H16.506V2.252a.75.75 0 00-.75-.75h-15a.75.75 0 00-.75.75v45c0 .414.335.75.75.75H45.733a.75.75 0 00.75-.75v-15a.75.75 0 00-.75-.75zm-44.227-13.5h13.488v13.5H1.506v-13.5zm15 15h13.477v13.5H16.506v-13.5zm13.488-1.5H16.506v-13.5h13.488v13.5zM1.506 3.002h13.5v13.5h-13.5v-13.5zm0 30h13.488v13.5H1.506v-13.5zm43.477 13.5H31.494v-13.5h13.488v13.5z"/><path d="M13.506 3.751a.75.75 0 00-.75.75v9.75h-9.75a.75.75 0 100 1.5h10.5a.75.75 0 00.75-.75v-10.5a.75.75 0 00-.75-.75zM13.506 18.752a.75.75 0 00-.75.75v9.75h-9.75a.75.75 0 100 1.5h10.5a.75.75 0 00.75-.75v-10.5a.75.75 0 00-.75-.75zM13.506 33.752a.75.75 0 00-.75.75v9.75h-9.75a.75.75 0 100 1.5h10.5a.75.75 0 00.75-.75v-10.5a.75.75 0 00-.75-.75zM18.006 30.752h10.5a.75.75 0 00.75-.75v-10.5a.75.75 0 10-1.5 0v9.75h-9.75a.75.75 0 100 1.5zM28.506 33.752a.75.75 0 00-.75.75v9.75h-9.75a.75.75 0 100 1.5h10.5a.75.75 0 00.75-.75v-10.5a.75.75 0 00-.75-.75zM33.006 45.752h10.5a.75.75 0 00.75-.75v-10.5a.75.75 0 10-1.5 0v9.75h-9.75a.75.75 0 100 1.5zM17.991 3.737h12a.75.75 0 100-1.5h-12a.75.75 0 100 1.5zM17.991 6.738h12a.75.75 0 100-1.5h-12a.75.75 0 100 1.5zM17.991 9.74h12a.75.75 0 100-1.5h-12a.75.75 0 100 1.5zM17.991 12.741h12a.75.75 0 100-1.5h-12a.75.75 0 100 1.5zM17.991 15.741h12a.75.75 0 100-1.5h-12a.75.75 0 100 1.5zM41.425.26c-.555.646-5.431 6.404-5.431 9.493 0 2.653 1.733 4.906 4.126 5.696V18h-.75a.75.75 0 100 1.5v6.376a2.628 2.628 0 002.625 2.625 2.628 2.628 0 002.625-2.625l-.001-.003V19.5a.75.75 0 100-1.5h-.75v-2.55c2.392-.791 4.125-3.044 4.125-5.697 0-3.09-4.876-8.847-5.431-9.494-.285-.331-.853-.331-1.138 0zm1.695 25.619A1.126 1.126 0 0141.995 27c-.62 0-1.124-.503-1.125-1.122V19.5h2.249v6.379zM42.369 18h-.75v-2.266c.125.008.249.019.375.019.127 0 .25-.011.375-.019V18zm-.375-3.747a4.505 4.505 0 01-4.5-4.5c0-1.901 2.864-5.82 4.5-7.833 1.637 2.014 4.5 5.93 4.5 7.833 0 2.482-2.018 4.5-4.5 4.5z"/></g><defs><clipPath id="ahclip0"><path fill="#fff" d="M0 0h48v48H0z"/></clipPath></defs></svg><svg fill="none" viewBox="0 0 24 24" id="header-pin" xmlns="http://www.w3.org/2000/svg"><path d="M12 5.625a2.815 2.815 0 00-2.813 2.813A2.81 2.81 0 0012 11.25a2.806 2.806 0 002.813-2.813A2.815 2.815 0 0012 5.626z" fill="#4F4F4F"/><path d="M12 0C7.347 0 3.562 3.785 3.562 8.438c0 1.571.436 3.105 1.26 4.436l6.697 10.793a.704.704 0 001.202-.01l6.527-10.897A8.439 8.439 0 0012 0zm0 12.666a4.23 4.23 0 01-4.228-4.229A4.24 4.24 0 0112 4.21a4.24 4.24 0 014.228 4.229c0 2.286-1.843 4.228-4.228 4.228z" fill="#F2C94C"/></svg><svg fill="none" viewBox="0 0 24 24" id="header-tel" xmlns="http://www.w3.org/2000/svg"><g clip-path="url(#ajclip0)"><ellipse cx="11.657" cy="12" rx="8.229" ry="8.571" fill="#4F4F4F"/><path d="M20.484 3.513c-4.687-4.686-12.285-4.684-16.97.003-4.687 4.687-4.685 12.285.002 16.97 4.687 4.686 12.285 4.685 16.97-.002a12 12 0 00-.002-16.97zm-2.31 13.203l-.002.001v-.004l-.608.604a3.2 3.2 0 01-3.02.864 10.633 10.633 0 01-3.088-1.384 14.27 14.27 0 01-2.436-1.964 14.374 14.374 0 01-1.82-2.208 11.2 11.2 0 01-1.368-2.768 3.2 3.2 0 01.8-3.268l.712-.712c.198-.199.52-.2.718-.001l.002.001 2.248 2.248a.508.508 0 010 .72l-1.32 1.32c-.38.375-.427.97-.112 1.4a15.437 15.437 0 001.58 1.844c.64.643 1.336 1.228 2.08 1.748.43.3 1.012.25 1.384-.12l1.276-1.296a.508.508 0 01.72 0l2.252 2.256c.198.198.2.52.001.718z" fill="#F2C94C"/></g><defs><clipPath id="ajclip0"><path fill="#fff" d="M0 0h24v24H0z"/></clipPath></defs></svg><svg fill="none" viewBox="0 0 64 64" id="house" xmlns="http://www.w3.org/2000/svg"><g clip-path="url(#akclip0)"><path d="M62.925 28.61l-5.406-4.926V7.35c0-1.04-.843-1.882-1.883-1.882H42.622c-1.04 0-1.882.842-1.882 1.882v1.047l-6.53-5.95a3.267 3.267 0 00-4.42 0L1.075 28.61a3.261 3.261 0 00-.85 3.61 3.26 3.26 0 003.06 2.097h4.587v26.215c0 1.04.842 1.883 1.882 1.883h15.739c1.04 0 1.882-.843 1.882-1.883V44.616h9.25v15.917c0 1.04.843 1.883 1.882 1.883h15.739c1.039 0 1.882-.843 1.882-1.883V34.319h4.587a3.261 3.261 0 003.06-2.096 3.262 3.262 0 00-.85-3.612zm-8.68 1.944c-1.039 0-1.881.843-1.881 1.882v26.215H40.389V42.734c0-1.04-.842-1.882-1.882-1.882H25.493c-1.04 0-1.882.843-1.882 1.882v15.917H11.636V32.436c0-1.04-.843-1.882-1.882-1.882H4.53L32 5.524l9.354 8.524a1.883 1.883 0 003.15-1.391V9.23h9.25v15.284c0 .53.222 1.035.614 1.392l5.1 4.647h-5.223z" fill="#fff"/></g><defs><clipPath id="akclip0"><path fill="#fff" d="M0 0h64v64H0z"/></clipPath></defs></svg><svg viewBox="0 0 50 50" id="inst" xmlns="http://www.w3.org/2000/svg"><circle cx="25" cy="25" r="24.5" stroke="#ABABAB"/><g clip-path="url(#alclip0)"><path d="M34.478 23.603c2.387-3.233 1.858-3.293 2.445-4.303h-4.576s-.325 1.129-.424 1.331c-.88 1.788-2.85 4.47-4.043 4.744-1.174.27-1.018-2.505-.946-3.706.068-1.114.057-1.504.024-1.697a.646.646 0 00-.567-.521 16.843 16.843 0 00-2.829-.124l-1.06.035c.418.936.7.65.854 1.732.174 1.267.106 4.351-1.142 4.351-2.002 0-4.248-6.01-4.32-6.145h-4.048l.37.927c2.986 7.474 6.72 10.935 11.829 11.223l.665.02.047-.646c.072-.997.572-2.433 1.46-2.433 1.31 0 1.689.382 2.553 1.45.832 1.024 1.404 1.628 2.746 1.628h3.407l-.486-.977c-.759-1.523-2.28-2.83-2.875-3.587-.215-.285-.427-.736-.208-1.282.18-.475.714-1.465 1.124-2.02z" fill="#fff"/></g><defs><clipPath id="alclip0"><path fill="#fff" d="M13.846 13.846h23.077v23.077H13.846z"/></clipPath></defs></svg><svg fill="none" viewBox="0 0 50 50" id="inst-gray" xmlns="http://www.w3.org/2000/svg"><circle cx="25" cy="25" r="24.5" stroke="#ABABAB"/><g clip-path="url(#amclip0)" fill="#A3A3A3"><path d="M30.676 13.846H20.093a6.254 6.254 0 00-6.247 6.247v10.583a6.254 6.254 0 006.247 6.247h10.584a6.254 6.254 0 006.246-6.247V20.093a6.254 6.254 0 00-6.247-6.247zm-5.291 17.848c-3.48 0-6.31-2.83-6.31-6.31 0-3.48 2.83-6.31 6.31-6.31 3.479 0 6.31 2.83 6.31 6.31 0 3.48-2.831 6.31-6.31 6.31zm6.46-11.132a1.866 1.866 0 01-1.864-1.864c0-1.028.836-1.865 1.864-1.865 1.029 0 1.865.837 1.865 1.865a1.867 1.867 0 01-1.865 1.864z"/><path d="M25.385 20.427a4.963 4.963 0 00-4.957 4.957 4.963 4.963 0 004.957 4.957 4.963 4.963 0 004.957-4.957 4.963 4.963 0 00-4.957-4.957zM31.845 18.186a.512.512 0 10.002 1.025.512.512 0 00-.002-1.025z"/></g><defs><clipPath id="amclip0"><path fill="#fff" d="M13.846 13.846h23.077v23.077H13.846z"/></clipPath></defs></svg><svg fill="none" viewBox="0 0 1749 850" id="logo" xmlns="http://www.w3.org/2000/svg"><rect width="850" height="850" rx="425" fill="#F2C94C"/><path d="M521.876 451.404h-35.89v204.839l134.976-80.401V192.674H235.174v203.661l104.802-74.856 76.072 54.291v-21.819h35.966v47.473l69.862 49.98z" fill="#333"/><path d="M400.78 483.876h-65.608v18.989h65.608v-18.989zM400.78 509.778h-65.608v48.328h65.608v-48.328zM1215.37 204h-64.8v280h44V378.8h20.8c44 0 65.6-24.4 65.6-69.2v-36.4c0-44.8-21.6-69.2-65.6-69.2zm0 40c14 0 21.6 6.4 21.6 26.4v42c0 20-7.6 26.4-21.6 26.4h-20.8V244h20.8zm152.38-40h-66.4v280h69.2c44 0 66.8-23.2 66.8-66.4v-22.8c0-29.6-9.2-50.8-32.8-60 19.6-9.2 28.4-27.6 28.4-56.4v-10c0-43.2-19.6-64.4-65.2-64.4zm-2.8 154c20 0 28.4 8 28.4 34v24.4c0 20.8-8 27.6-22.8 27.6h-25.2v-86h19.6zm1.6-114c15.6 0 22.4 8.8 22.4 28.8v15.6c0 22.4-10 29.6-26.4 29.6h-17.2v-74h21.2zm84.5 0h46v240h44V244h46v-40h-136v40zm-425.02 340.738h-12.79V632h-13.875V526.781h13.875v46.395h10.84l36.78-46.395h17.27l-40.17 51.02L1081.1 632h-16.98l-38.09-47.262zm130.01 9.033c0 11.9-2.72 21.487-8.17 28.762-5.44 7.275-12.81 10.912-22.11 10.912-9.49 0-16.96-3.011-22.4-9.033v37.65h-13.37V553.809h12.21l.65 8.671c5.44-6.744 13.01-10.117 22.69-10.117 9.4 0 16.81 3.541 22.26 10.623 5.49 7.082 8.24 16.935 8.24 29.557v1.228zm-13.37-1.517c0-8.816-1.88-15.778-5.64-20.885-3.76-5.107-8.91-7.66-15.46-7.66-8.1 0-14.17 3.589-18.21 10.768v37.361c3.99 7.13 10.11 10.695 18.35 10.695 6.41 0 11.49-2.529 15.25-7.588 3.8-5.106 5.71-12.67 5.71-22.691zm78.7 39.746c-.78-1.542-1.4-4.288-1.88-8.238-6.22 6.455-13.64 9.683-22.26 9.683-7.71 0-14.05-2.168-19.01-6.504-4.91-4.384-7.37-9.924-7.37-16.621 0-8.142 3.08-14.453 9.25-18.933 6.22-4.529 14.94-6.793 26.16-6.793h13.01v-6.143c0-4.673-1.4-8.383-4.19-11.129-2.8-2.794-6.92-4.191-12.36-4.191-4.77 0-8.77 1.204-12 3.613-3.22 2.409-4.84 5.324-4.84 8.744h-13.44c0-3.902 1.37-7.66 4.12-11.273 2.79-3.662 6.55-6.552 11.27-8.672 4.77-2.12 10-3.18 15.69-3.18 9 0 16.06 2.265 21.17 6.793 5.11 4.481 7.76 10.671 7.95 18.573v35.988c0 7.178.91 12.887 2.74 17.127V632h-14.01zm-22.19-10.189c4.19 0 8.17-1.084 11.92-3.252 3.76-2.168 6.48-4.987 8.17-8.455v-16.043h-10.48c-16.38 0-24.57 4.793-24.57 14.38 0 4.192 1.4 7.468 4.19 9.829 2.8 2.36 6.39 3.541 10.77 3.541zm85.78.722c4.77 0 8.94-1.445 12.5-4.336 3.57-2.89 5.54-6.504 5.93-10.84h12.64c-.24 4.481-1.78 8.745-4.62 12.791-2.84 4.047-6.65 7.275-11.42 9.684-4.72 2.409-9.73 3.613-15.03 3.613-10.65 0-19.13-3.541-25.44-10.623-6.26-7.13-9.39-16.862-9.39-29.195v-2.24c0-7.612 1.39-14.381 4.19-20.307 2.79-5.926 6.79-10.527 11.99-13.803 5.26-3.276 11.45-4.914 18.58-4.914 8.76 0 16.04 2.626 21.82 7.877 5.83 5.252 8.94 12.069 9.32 20.451h-12.64c-.39-5.058-2.32-9.201-5.78-12.429-3.43-3.276-7.66-4.914-12.72-4.914-6.8 0-12.07 2.457-15.83 7.371-3.71 4.866-5.56 11.924-5.56 21.174v2.529c0 9.009 1.85 15.946 5.56 20.812 3.71 4.866 9.01 7.299 15.9 7.299zM1394.95 632h-13.37v-33.387h-35.92V632h-13.44v-78.191h13.44v33.892h35.92v-33.892h13.37V632zm17.99-39.818c0-7.661 1.49-14.55 4.48-20.668 3.04-6.119 7.23-10.84 12.58-14.164 5.39-3.325 11.53-4.987 18.42-4.987 10.65 0 19.25 3.686 25.8 11.057 6.6 7.371 9.9 17.175 9.9 29.412v.939c0 7.612-1.47 14.454-4.41 20.524-2.89 6.022-7.05 10.719-12.5 14.092-5.39 3.372-11.61 5.058-18.64 5.058-10.6 0-19.2-3.685-25.8-11.056-6.55-7.371-9.83-17.127-9.83-29.268v-.939zm13.44 1.589c0 8.672 2 15.634 6 20.885 4.05 5.252 9.44 7.877 16.19 7.877 6.79 0 12.19-2.65 16.19-7.949 3.99-5.348 5.99-12.815 5.99-22.402 0-8.576-2.04-15.513-6.14-20.813-4.05-5.348-9.44-8.021-16.19-8.021-6.6 0-11.92 2.625-15.97 7.877-4.04 5.251-6.07 12.767-6.07 22.546zm68.66 27.317l4.62-5.709c5.2-6.745 8.17-16.862 8.89-30.352l1.23-31.218h50.37v67.279h10.04v33.892h-13.37V632h-54.56v22.98h-13.37l.07-33.892h6.08zm15.82 0h35.92v-54.922h-24.07l-.79 18.645c-.82 15.561-4.51 27.653-11.06 36.277zM1633.28 632c-.77-1.542-1.4-4.288-1.88-8.238-6.21 6.455-13.63 9.683-22.26 9.683-7.71 0-14.04-2.168-19-6.504-4.92-4.384-7.37-9.924-7.37-16.621 0-8.142 3.08-14.453 9.25-18.933 6.21-4.529 14.93-6.793 26.16-6.793h13v-6.143c0-4.673-1.39-8.383-4.19-11.129-2.79-2.794-6.91-4.191-12.36-4.191-4.76 0-8.76 1.204-11.99 3.613-3.23 2.409-4.84 5.324-4.84 8.744h-13.44c0-3.902 1.37-7.66 4.11-11.273 2.8-3.662 6.56-6.552 11.28-8.672 4.77-2.12 9.99-3.18 15.68-3.18 9.01 0 16.07 2.265 21.17 6.793 5.11 4.481 7.76 10.671 7.95 18.573v35.988c0 7.178.92 12.887 2.75 17.127V632h-14.02zm-22.19-10.189c4.2 0 8.17-1.084 11.93-3.252 3.76-2.168 6.48-4.987 8.16-8.455v-16.043h-10.47c-16.39 0-24.58 4.793-24.58 14.38 0 4.192 1.4 7.468 4.2 9.829 2.79 2.36 6.38 3.541 10.76 3.541zm120.47-28.04c0 11.9-2.72 21.487-8.17 28.762-5.44 7.275-12.81 10.912-22.11 10.912-9.49 0-16.96-3.011-22.4-9.033v37.65h-13.37V553.809h12.21l.65 8.671c5.45-6.744 13.01-10.117 22.69-10.117 9.4 0 16.82 3.541 22.26 10.623 5.49 7.082 8.24 16.935 8.24 29.557v1.228zm-13.37-1.517c0-8.816-1.88-15.778-5.64-20.885-3.75-5.107-8.91-7.66-15.46-7.66-8.09 0-14.16 3.589-18.21 10.768v37.361c4 7.13 10.12 10.695 18.35 10.695 6.41 0 11.49-2.529 15.25-7.588 3.81-5.106 5.71-12.67 5.71-22.691z" fill="#333"/></svg><svg fill="none" viewBox="0 0 36 22" id="main-arrow" xmlns="http://www.w3.org/2000/svg"><path d="M33.17 1.292a2 2 0 00-2.83 0L19.415 12.218a2 2 0 01-2.828 0L5.659 1.292a2 2 0 00-2.828 0L1.414 2.708a2 2 0 000 2.829l15.172 15.171a2 2 0 002.828 0L34.586 5.537a2 2 0 000-2.829l-1.417-1.416z" fill="#F2C94C"/></svg><svg fill="none" viewBox="0 0 149 123" id="services-icon-1" xmlns="http://www.w3.org/2000/svg"><g clip-path="url(#apclip0)"><circle cx="117" cy="91" r="32" fill="#F7F7F7"/><g filter="url(#apfilter0_d)"><path d="M108.031 117.188l-3.04-10.792c7.853-4.271 13.197-12.596 13.197-22.146v-1.938a3.878 3.878 0 003.874-3.874v-3.876a3.878 3.878 0 00-3.874-3.874V51.311a3.878 3.878 0 003.874-3.874v-3.876a3.878 3.878 0 00-3.874-3.874H67.812a3.879 3.879 0 00-3.874 3.874v3.876a3.879 3.879 0 003.874 3.874v19.376a3.879 3.879 0 00-3.874 3.874v3.876a3.879 3.879 0 003.874 3.874v1.938c0 9.55 5.344 17.875 13.197 22.146l-3.04 10.792H52.117c-.901-4.416-4.813-7.75-9.492-7.75h-1.938V91.994c9.093-3.803 15.5-12.787 15.5-23.244V55.187H21.313v-7.75h7.75v3.876h3.875v-3.876a3.879 3.879 0 00-3.876-3.874h-15.5a3.879 3.879 0 00-3.874 3.874v7.75H5.812V68.75c0 10.457 6.408 19.44 15.5 23.244v17.444h-1.937c-4.677 0-8.59 3.334-9.492 7.75H0v3.874h124v-3.874h-15.969zm-40.22-73.626h50.377v3.876H67.812l-.001-3.876zm3.876 15.5h7.75v-3.874h-7.75v-3.876h42.625v19.376H71.688V59.062zm-3.876 15.5h50.377v3.876H67.812l-.001-3.876zm3.876 9.688v-1.938h42.625v1.938c0 11.75-9.561 21.312-21.312 21.312-11.75 0-21.313-9.561-21.313-21.312zm12.906 23.715c2.635.936 5.456 1.473 8.407 1.473 2.95 0 5.772-.537 8.407-1.473l2.596 9.223H81.997l2.596-9.223zm-71.03-60.528h3.875v7.75h-3.875v-7.75zm38.75 11.626v3.874H9.687v-3.874h42.626zM9.687 68.75v-1.938h42.626v1.938c0 11.75-9.562 21.313-21.313 21.313-11.75 0-21.313-9.562-21.313-21.313zm15.5 24.484c1.87.444 3.81.704 5.813.704 2.003 0 3.943-.26 5.813-.704v16.204H25.187V93.234zm-5.812 20.078h23.25c2.523 0 4.654 1.626 5.456 3.876H13.919c.802-2.25 2.933-3.876 5.456-3.876z" fill="#F2C94C"/></g><g filter="url(#apfilter1_d)"><path d="M7.75 39.688h46.5a5.82 5.82 0 005.813-5.813V6.75A5.82 5.82 0 0054.25.937H7.75A5.82 5.82 0 001.937 6.75v27.125a5.82 5.82 0 005.813 5.813zM5.812 6.75A1.94 1.94 0 017.75 4.812h46.5c1.07 0 1.938.87 1.938 1.938v27.125a1.94 1.94 0 01-1.938 1.938H7.75a1.94 1.94 0 01-1.938-1.938V6.75z" fill="#F2C94C"/></g><g filter="url(#apfilter2_d)"><path d="M8.316 10.06l2.74-2.74 23.247 23.247-2.74 2.74L8.316 10.058z" fill="#F2C94C"/></g><g filter="url(#apfilter3_d)"><path d="M27.689 10.061l2.74-2.74L53.676 30.57l-2.74 2.74L27.69 10.06z" fill="#F2C94C"/></g><g filter="url(#apfilter4_d)"><path d="M67.813 16.438h3.874v3.875h-3.874v-3.875z" fill="#F2C94C"/></g><g filter="url(#apfilter5_d)"><path d="M67.813 24.188h3.874v3.875h-3.874v-3.875z" fill="#F2C94C"/></g><g filter="url(#apfilter6_d)"><path d="M71.688 20.313h3.874v3.875h-3.874v-3.875z" fill="#F2C94C"/></g><g filter="url(#apfilter7_d)"><path d="M63.938 20.313h3.874v3.875h-3.874v-3.875z" fill="#F2C94C"/></g><g filter="url(#apfilter8_d)"><path d="M87.188 4.813h3.874v3.875h-3.874V4.812z" fill="#F2C94C"/></g><g filter="url(#apfilter9_d)"><path d="M87.188 12.563h3.874v3.874h-3.874v-3.875z" fill="#F2C94C"/></g><g filter="url(#apfilter10_d)"><path d="M91.063 8.688h3.874v3.874h-3.874V8.688z" fill="#F2C94C"/></g><g filter="url(#apfilter11_d)"><path d="M83.313 8.688h3.874v3.874h-3.874V8.688z" fill="#F2C94C"/></g><g filter="url(#apfilter12_d)"><path d="M106.562 24.188h3.876v3.875h-3.876v-3.875z" fill="#F2C94C"/></g><g filter="url(#apfilter13_d)"><path d="M106.562 31.938h3.876v3.875h-3.876v-3.876z" fill="#F2C94C"/></g><g filter="url(#apfilter14_d)"><path d="M110.438 28.063h3.874v3.875h-3.874v-3.875z" fill="#F2C94C"/></g><g filter="url(#apfilter15_d)"><path d="M102.688 28.063h3.874v3.875h-3.874v-3.875z" fill="#F2C94C"/></g></g><defs><filter id="apfilter0_d" x="-8" y="31.688" width="140" height="97.375" filterUnits="userSpaceOnUse" color-interpolation-filters="sRGB"><feFlood flood-opacity="0" result="BackgroundImageFix"/><feColorMatrix in="SourceAlpha" values="0 0 0 0 0 0 0 0 0 0 0 0 0 0 0 0 0 0 127 0"/><feOffset/><feGaussianBlur stdDeviation="4"/><feColorMatrix values="0 0 0 0 0.94902 0 0 0 0 0.788235 0 0 0 0 0.298039 0 0 0 0.25 0"/><feBlend in2="BackgroundImageFix" result="effect1_dropShadow"/><feBlend in="SourceGraphic" in2="effect1_dropShadow" result="shape"/></filter><filter id="apfilter1_d" x="-6.063" y="-7.063" width="74.125" height="54.75" filterUnits="userSpaceOnUse" color-interpolation-filters="sRGB"><feFlood flood-opacity="0" result="BackgroundImageFix"/><feColorMatrix in="SourceAlpha" values="0 0 0 0 0 0 0 0 0 0 0 0 0 0 0 0 0 0 127 0"/><feOffset/><feGaussianBlur stdDeviation="4"/><feColorMatrix values="0 0 0 0 0.94902 0 0 0 0 0.788235 0 0 0 0 0.298039 0 0 0 0.25 0"/><feBlend in2="BackgroundImageFix" result="effect1_dropShadow"/><feBlend in="SourceGraphic" in2="effect1_dropShadow" result="shape"/></filter><filter id="apfilter2_d" x=".316" y="-.68" width="41.987" height="41.987" filterUnits="userSpaceOnUse" color-interpolation-filters="sRGB"><feFlood flood-opacity="0" result="BackgroundImageFix"/><feColorMatrix in="SourceAlpha" values="0 0 0 0 0 0 0 0 0 0 0 0 0 0 0 0 0 0 127 0"/><feOffset/><feGaussianBlur stdDeviation="4"/><feColorMatrix values="0 0 0 0 0.94902 0 0 0 0 0.788235 0 0 0 0 0.298039 0 0 0 0.25 0"/><feBlend in2="BackgroundImageFix" result="effect1_dropShadow"/><feBlend in="SourceGraphic" in2="effect1_dropShadow" result="shape"/></filter><filter id="apfilter3_d" x="19.689" y="-.678" width="41.987" height="41.987" filterUnits="userSpaceOnUse" color-interpolation-filters="sRGB"><feFlood flood-opacity="0" result="BackgroundImageFix"/><feColorMatrix in="SourceAlpha" values="0 0 0 0 0 0 0 0 0 0 0 0 0 0 0 0 0 0 127 0"/><feOffset/><feGaussianBlur stdDeviation="4"/><feColorMatrix values="0 0 0 0 0.94902 0 0 0 0 0.788235 0 0 0 0 0.298039 0 0 0 0.25 0"/><feBlend in2="BackgroundImageFix" result="effect1_dropShadow"/><feBlend in="SourceGraphic" in2="effect1_dropShadow" result="shape"/></filter><filter id="apfilter4_d" x="59.813" y="8.438" width="19.875" height="19.875" filterUnits="userSpaceOnUse" color-interpolation-filters="sRGB"><feFlood flood-opacity="0" result="BackgroundImageFix"/><feColorMatrix in="SourceAlpha" values="0 0 0 0 0 0 0 0 0 0 0 0 0 0 0 0 0 0 127 0"/><feOffset/><feGaussianBlur stdDeviation="4"/><feColorMatrix values="0 0 0 0 0.94902 0 0 0 0 0.788235 0 0 0 0 0.298039 0 0 0 0.25 0"/><feBlend in2="BackgroundImageFix" result="effect1_dropShadow"/><feBlend in="SourceGraphic" in2="effect1_dropShadow" result="shape"/></filter><filter id="apfilter5_d" x="59.813" y="16.188" width="19.875" height="19.875" filterUnits="userSpaceOnUse" color-interpolation-filters="sRGB"><feFlood flood-opacity="0" result="BackgroundImageFix"/><feColorMatrix in="SourceAlpha" values="0 0 0 0 0 0 0 0 0 0 0 0 0 0 0 0 0 0 127 0"/><feOffset/><feGaussianBlur stdDeviation="4"/><feColorMatrix values="0 0 0 0 0.94902 0 0 0 0 0.788235 0 0 0 0 0.298039 0 0 0 0.25 0"/><feBlend in2="BackgroundImageFix" result="effect1_dropShadow"/><feBlend in="SourceGraphic" in2="effect1_dropShadow" result="shape"/></filter><filter id="apfilter6_d" x="63.688" y="12.313" width="19.875" height="19.875" filterUnits="userSpaceOnUse" color-interpolation-filters="sRGB"><feFlood flood-opacity="0" result="BackgroundImageFix"/><feColorMatrix in="SourceAlpha" values="0 0 0 0 0 0 0 0 0 0 0 0 0 0 0 0 0 0 127 0"/><feOffset/><feGaussianBlur stdDeviation="4"/><feColorMatrix values="0 0 0 0 0.94902 0 0 0 0 0.788235 0 0 0 0 0.298039 0 0 0 0.25 0"/><feBlend in2="BackgroundImageFix" result="effect1_dropShadow"/><feBlend in="SourceGraphic" in2="effect1_dropShadow" result="shape"/></filter><filter id="apfilter7_d" x="55.938" y="12.313" width="19.875" height="19.875" filterUnits="userSpaceOnUse" color-interpolation-filters="sRGB"><feFlood flood-opacity="0" result="BackgroundImageFix"/><feColorMatrix in="SourceAlpha" values="0 0 0 0 0 0 0 0 0 0 0 0 0 0 0 0 0 0 127 0"/><feOffset/><feGaussianBlur stdDeviation="4"/><feColorMatrix values="0 0 0 0 0.94902 0 0 0 0 0.788235 0 0 0 0 0.298039 0 0 0 0.25 0"/><feBlend in2="BackgroundImageFix" result="effect1_dropShadow"/><feBlend in="SourceGraphic" in2="effect1_dropShadow" result="shape"/></filter><filter id="apfilter8_d" x="79.188" y="-3.188" width="19.875" height="19.875" filterUnits="userSpaceOnUse" color-interpolation-filters="sRGB"><feFlood flood-opacity="0" result="BackgroundImageFix"/><feColorMatrix in="SourceAlpha" values="0 0 0 0 0 0 0 0 0 0 0 0 0 0 0 0 0 0 127 0"/><feOffset/><feGaussianBlur stdDeviation="4"/><feColorMatrix values="0 0 0 0 0.94902 0 0 0 0 0.788235 0 0 0 0 0.298039 0 0 0 0.25 0"/><feBlend in2="BackgroundImageFix" result="effect1_dropShadow"/><feBlend in="SourceGraphic" in2="effect1_dropShadow" result="shape"/></filter><filter id="apfilter9_d" x="79.188" y="4.563" width="19.875" height="19.875" filterUnits="userSpaceOnUse" color-interpolation-filters="sRGB"><feFlood flood-opacity="0" result="BackgroundImageFix"/><feColorMatrix in="SourceAlpha" values="0 0 0 0 0 0 0 0 0 0 0 0 0 0 0 0 0 0 127 0"/><feOffset/><feGaussianBlur stdDeviation="4"/><feColorMatrix values="0 0 0 0 0.94902 0 0 0 0 0.788235 0 0 0 0 0.298039 0 0 0 0.25 0"/><feBlend in2="BackgroundImageFix" result="effect1_dropShadow"/><feBlend in="SourceGraphic" in2="effect1_dropShadow" result="shape"/></filter><filter id="apfilter10_d" x="83.063" y=".688" width="19.875" height="19.875" filterUnits="userSpaceOnUse" color-interpolation-filters="sRGB"><feFlood flood-opacity="0" result="BackgroundImageFix"/><feColorMatrix in="SourceAlpha" values="0 0 0 0 0 0 0 0 0 0 0 0 0 0 0 0 0 0 127 0"/><feOffset/><feGaussianBlur stdDeviation="4"/><feColorMatrix values="0 0 0 0 0.94902 0 0 0 0 0.788235 0 0 0 0 0.298039 0 0 0 0.25 0"/><feBlend in2="BackgroundImageFix" result="effect1_dropShadow"/><feBlend in="SourceGraphic" in2="effect1_dropShadow" result="shape"/></filter><filter id="apfilter11_d" x="75.313" y=".688" width="19.875" height="19.875" filterUnits="userSpaceOnUse" color-interpolation-filters="sRGB"><feFlood flood-opacity="0" result="BackgroundImageFix"/><feColorMatrix in="SourceAlpha" values="0 0 0 0 0 0 0 0 0 0 0 0 0 0 0 0 0 0 127 0"/><feOffset/><feGaussianBlur stdDeviation="4"/><feColorMatrix values="0 0 0 0 0.94902 0 0 0 0 0.788235 0 0 0 0 0.298039 0 0 0 0.25 0"/><feBlend in2="BackgroundImageFix" result="effect1_dropShadow"/><feBlend in="SourceGraphic" in2="effect1_dropShadow" result="shape"/></filter><filter id="apfilter12_d" x="98.563" y="16.188" width="19.875" height="19.875" filterUnits="userSpaceOnUse" color-interpolation-filters="sRGB"><feFlood flood-opacity="0" result="BackgroundImageFix"/><feColorMatrix in="SourceAlpha" values="0 0 0 0 0 0 0 0 0 0 0 0 0 0 0 0 0 0 127 0"/><feOffset/><feGaussianBlur stdDeviation="4"/><feColorMatrix values="0 0 0 0 0.94902 0 0 0 0 0.788235 0 0 0 0 0.298039 0 0 0 0.25 0"/><feBlend in2="BackgroundImageFix" result="effect1_dropShadow"/><feBlend in="SourceGraphic" in2="effect1_dropShadow" result="shape"/></filter><filter id="apfilter13_d" x="98.563" y="23.938" width="19.875" height="19.875" filterUnits="userSpaceOnUse" color-interpolation-filters="sRGB"><feFlood flood-opacity="0" result="BackgroundImageFix"/><feColorMatrix in="SourceAlpha" values="0 0 0 0 0 0 0 0 0 0 0 0 0 0 0 0 0 0 127 0"/><feOffset/><feGaussianBlur stdDeviation="4"/><feColorMatrix values="0 0 0 0 0.94902 0 0 0 0 0.788235 0 0 0 0 0.298039 0 0 0 0.25 0"/><feBlend in2="BackgroundImageFix" result="effect1_dropShadow"/><feBlend in="SourceGraphic" in2="effect1_dropShadow" result="shape"/></filter><filter id="apfilter14_d" x="102.438" y="20.063" width="19.875" height="19.875" filterUnits="userSpaceOnUse" color-interpolation-filters="sRGB"><feFlood flood-opacity="0" result="BackgroundImageFix"/><feColorMatrix in="SourceAlpha" values="0 0 0 0 0 0 0 0 0 0 0 0 0 0 0 0 0 0 127 0"/><feOffset/><feGaussianBlur stdDeviation="4"/><feColorMatrix values="0 0 0 0 0.94902 0 0 0 0 0.788235 0 0 0 0 0.298039 0 0 0 0.25 0"/><feBlend in2="BackgroundImageFix" result="effect1_dropShadow"/><feBlend in="SourceGraphic" in2="effect1_dropShadow" result="shape"/></filter><filter id="apfilter15_d" x="94.688" y="20.063" width="19.875" height="19.875" filterUnits="userSpaceOnUse" color-interpolation-filters="sRGB"><feFlood flood-opacity="0" result="BackgroundImageFix"/><feColorMatrix in="SourceAlpha" values="0 0 0 0 0 0 0 0 0 0 0 0 0 0 0 0 0 0 127 0"/><feOffset/><feGaussianBlur stdDeviation="4"/><feColorMatrix values="0 0 0 0 0.94902 0 0 0 0 0.788235 0 0 0 0 0.298039 0 0 0 0.25 0"/><feBlend in2="BackgroundImageFix" result="effect1_dropShadow"/><feBlend in="SourceGraphic" in2="effect1_dropShadow" result="shape"/></filter><clipPath id="apclip0"><path fill="#fff" d="M0 0h149v123H0z"/></clipPath></defs></svg><svg fill="none" viewBox="0 0 128 124" id="services-icon-2" xmlns="http://www.w3.org/2000/svg"><circle cx="96" cy="92" r="32" fill="#F7F7F7"/><g clip-path="url(#aqclip0)"><g filter="url(#aqfilter0_d)"><path d="M95.906 62.969c4.007 0 7.266-3.26 7.266-7.266V14.531h2.422a2.422 2.422 0 002.422-2.422V2.422A2.422 2.422 0 00105.594 0H18.406a2.422 2.422 0 00-2.422 2.422v9.687a2.422 2.422 0 002.422 2.422h2.422v12.11a2.422 2.422 0 104.844 0V14.53h72.656v41.172a2.424 2.424 0 01-2.422 2.422H93.43C92.566 38.472 80.287 19.375 62 19.375c-18.621 0-30.585 19.55-31.43 38.75h-2.476a2.424 2.424 0 01-2.422-2.422v-9.687a2.422 2.422 0 10-4.844 0v9.687c0 4.007 3.26 7.266 7.266 7.266h2.473c.152 3.824.65 7.83 1.384 11.21-3.541.482-6.28 3.524-6.28 7.196v4.844a2.422 2.422 0 002.423 2.422h3.265c1.863 7.956 6.698 15.199 13.326 19.954l-4.34 12.17a2.42 2.42 0 002.28 3.235h38.75a2.422 2.422 0 002.28-3.235l-4.34-12.17c6.629-4.756 11.463-12 13.326-19.954h3.265a2.422 2.422 0 002.422-2.422v-4.844c0-3.672-2.738-6.714-6.279-7.197.734-3.38 1.231-7.385 1.384-11.21h2.473zM20.828 9.687V4.845h82.344v4.843H20.828zM62 24.22c14.69 0 26.64 16.296 26.64 36.328 0 4.557-.59 9.664-1.541 13.562h-5.077c1.104-4.056 1.775-9.035 1.775-13.562 0-14.325-8.026-31.484-21.797-31.484-13.582 0-21.797 16.846-21.797 31.484 0 4.527.67 9.506 1.775 13.562H36.9c-.95-3.898-1.542-9.005-1.542-13.562 0-20.032 11.952-36.328 26.641-36.328zm16.953 36.328c0 4.565-.774 9.777-1.975 13.562H47.022c-1.201-3.784-1.975-8.997-1.975-13.562 0-11.048 6.03-26.64 16.953-26.64 10.909 0 16.953 15.565 16.953 26.64zM46.06 119.156l2.854-8c4.12 2.07 8.59 3.156 13.086 3.156s8.966-1.086 13.086-3.156l2.854 8H46.06zM62 109.469c-12.1 0-22.469-9.347-25.644-20.831h51.288C84.469 100.12 74.1 109.469 62 109.469zm31.484-28.094v2.422H30.516v-2.422a2.424 2.424 0 012.422-2.422h58.124a2.424 2.424 0 012.422 2.422z" fill="#F2C94C"/></g><g filter="url(#aqfilter1_d)"><path d="M25.672 36.328a2.422 2.422 0 11-4.844 0 2.422 2.422 0 014.844 0z" fill="#F2C94C"/></g></g><defs><filter id="aqfilter0_d" x="7.984" y="-8" width="108.031" height="140" filterUnits="userSpaceOnUse" color-interpolation-filters="sRGB"><feFlood flood-opacity="0" result="BackgroundImageFix"/><feColorMatrix in="SourceAlpha" values="0 0 0 0 0 0 0 0 0 0 0 0 0 0 0 0 0 0 127 0"/><feOffset/><feGaussianBlur stdDeviation="4"/><feColorMatrix values="0 0 0 0 0.94902 0 0 0 0 0.788235 0 0 0 0 0.298039 0 0 0 0.25 0"/><feBlend in2="BackgroundImageFix" result="effect1_dropShadow"/><feBlend in="SourceGraphic" in2="effect1_dropShadow" result="shape"/></filter><filter id="aqfilter1_d" x="12.828" y="25.906" width="20.844" height="20.844" filterUnits="userSpaceOnUse" color-interpolation-filters="sRGB"><feFlood flood-opacity="0" result="BackgroundImageFix"/><feColorMatrix in="SourceAlpha" values="0 0 0 0 0 0 0 0 0 0 0 0 0 0 0 0 0 0 127 0"/><feOffset/><feGaussianBlur stdDeviation="4"/><feColorMatrix values="0 0 0 0 0.94902 0 0 0 0 0.788235 0 0 0 0 0.298039 0 0 0 0.25 0"/><feBlend in2="BackgroundImageFix" result="effect1_dropShadow"/><feBlend in="SourceGraphic" in2="effect1_dropShadow" result="shape"/></filter><clipPath id="aqclip0"><path fill="#fff" d="M0 0h124v124H0z"/></clipPath></defs></svg><svg fill="none" viewBox="0 0 154 126" id="services-icon-3" xmlns="http://www.w3.org/2000/svg"><circle cx="122" cy="94" r="32" fill="#F7F7F7"/><g clip-path="url(#arclip0)"><g filter="url(#arfilter0_d)"><path d="M92.515 50.294a2.422 2.422 0 004.844 0V45.45a2.422 2.422 0 00-4.844 0v4.844z" fill="#F2C94C"/></g><g filter="url(#arfilter1_d)"><path d="M94.937 36.328a2.422 2.422 0 002.422-2.422v-4.844a2.422 2.422 0 00-4.844 0v4.844a2.422 2.422 0 002.422 2.422z" fill="#F2C94C"/></g><g filter="url(#arfilter2_d)"><path d="M102.687 50.294a2.422 2.422 0 104.844 0V45.45a2.422 2.422 0 00-4.844 0v4.844z" fill="#F2C94C"/></g><g filter="url(#arfilter3_d)"><path d="M105.109 36.328a2.422 2.422 0 002.422-2.422v-4.844a2.422 2.422 0 00-4.844 0v4.844a2.422 2.422 0 002.422 2.422z" fill="#F2C94C"/></g><g filter="url(#arfilter4_d)"><path d="M84.765 52.715a2.422 2.422 0 002.422-2.421V45.45a2.422 2.422 0 00-4.844 0v4.844a2.422 2.422 0 002.422 2.422z" fill="#F2C94C"/></g><g filter="url(#arfilter5_d)"><path d="M84.765 36.328a2.422 2.422 0 002.422-2.422v-4.844a2.422 2.422 0 00-4.844 0v4.844a2.422 2.422 0 002.422 2.422z" fill="#F2C94C"/></g><g filter="url(#arfilter6_d)"><path d="M62.03 29.566c4.274 0 7.75-3.476 7.75-7.75 0-4.273-3.476-7.75-7.75-7.75-4.273 0-7.75 3.477-7.75 7.75 0 4.274 3.477 7.75 7.75 7.75zm0-10.656a2.91 2.91 0 012.907 2.906 2.91 2.91 0 01-2.906 2.907 2.91 2.91 0 01-2.906-2.907 2.91 2.91 0 012.906-2.906z" fill="#F2C94C"/></g><g filter="url(#arfilter7_d)"><path d="M37.715 15.5c4.274 0 7.75-3.477 7.75-7.75S41.99 0 37.715 0c-4.273 0-7.75 3.477-7.75 7.75s3.477 7.75 7.75 7.75zm0-10.656a2.91 2.91 0 012.907 2.906 2.91 2.91 0 01-2.907 2.906A2.91 2.91 0 0134.81 7.75a2.91 2.91 0 012.906-2.906z" fill="#F2C94C"/></g><g filter="url(#arfilter8_d)"><path d="M15.5 28.578c4.274 0 7.75-3.477 7.75-7.75s-3.476-7.75-7.75-7.75c-4.272 0-7.749 3.477-7.749 7.75s3.477 7.75 7.75 7.75zm0-10.656a2.91 2.91 0 012.907 2.906 2.91 2.91 0 01-2.906 2.906 2.91 2.91 0 01-2.906-2.906 2.91 2.91 0 012.906-2.906z" fill="#F2C94C"/></g><g filter="url(#arfilter9_d)"><path d="M62 70.233a2.44 2.44 0 00-1.712.71 2.44 2.44 0 00-.71 1.712c0 .637.259 1.262.71 1.712.45.45 1.075.71 1.712.71a2.44 2.44 0 001.712-.71c.45-.45.71-1.075.71-1.712a2.44 2.44 0 00-.71-1.713 2.439 2.439 0 00-1.712-.71z" fill="#F2C94C"/></g><g filter="url(#arfilter10_d)"><path d="M123.998 67.327c0-3.428-2.237-6.34-5.328-7.36V8.234c0-4.54-3.694-8.234-8.234-8.234h-9.687c-3.767 0-6.948 2.542-7.924 6-5.674 1.003-9.998 5.965-9.998 11.922a2.422 2.422 0 002.422 2.421h19.374a2.422 2.422 0 002.422-2.421c0-5.608-3.832-10.336-9.014-11.707a3.384 3.384 0 012.718-1.371h9.687c1.869 0 3.39 1.52 3.39 3.39v51.343H70.778c-.922-5.03-4.655-9.172-9.592-10.58a8.645 8.645 0 00-2.346-4.263 8.78 8.78 0 00-7.28-2.48 19.239 19.239 0 00-14.627-6.774c-4.394 0-8.69 1.524-12.093 4.292a19.305 19.305 0 00-6.072 8.71 13.576 13.576 0 00-9.48 3.956 13.421 13.421 0 00-3.8 7.477C2.317 60.885 0 63.84 0 67.327c0 3.427 2.238 6.34 5.329 7.36v14.84a29.976 29.976 0 006.975 19.25l-2.472 4.282c-2.01 3.482-.813 7.95 2.669 9.961a7.256 7.256 0 005.533.728 7.244 7.244 0 004.428-3.397l1.682-2.914a29.944 29.944 0 0011.296 2.201H88.56c3.943 0 7.711-.763 11.166-2.147l1.651 2.86a7.246 7.246 0 004.427 3.397 7.259 7.259 0 005.534-.728 7.244 7.244 0 003.397-4.428 7.243 7.243 0 00-.728-5.533l-2.407-4.169c4.41-5.239 7.071-11.996 7.071-19.363v-14.84c3.091-1.02 5.328-3.933 5.328-7.36zM101.787 15.5H88.086c1-2.82 3.693-4.844 6.85-4.844 3.157 0 5.851 2.024 6.851 4.844zM12.714 55.862a8.717 8.717 0 017.477-2.436 2.421 2.421 0 002.736-1.87c1.441-6.508 7.332-11.233 14.006-11.233 4.628 0 8.998 2.257 11.691 6.036a2.422 2.422 0 002.77.881 3.85 3.85 0 014.021.919 3.844 3.844 0 011.133 2.803 2.422 2.422 0 002.1 2.44c3.452.464 6.22 2.957 7.162 6.175H10.513a8.63 8.63 0 012.2-3.715zm5.553 62.067a2.437 2.437 0 01-1.487 1.141 2.434 2.434 0 01-1.858-.245 2.432 2.432 0 01-1.14-1.486 2.432 2.432 0 01.244-1.858l1.803-3.123a30.348 30.348 0 003.981 2.898l-1.543 2.673zm91.788-.59a2.432 2.432 0 01-1.14 1.486 2.452 2.452 0 01-3.345-.896l-1.502-2.602a30.246 30.246 0 003.992-2.877l1.751 3.031c.327.566.414 1.226.244 1.858zm6.193-47.106H72.897a2.422 2.422 0 000 4.844h40.929v14.45c0 13.933-11.335 25.268-25.267 25.268h-53.12c-13.932 0-25.267-11.336-25.267-25.268v-14.45h40.93a2.422 2.422 0 000-4.844H7.75a2.91 2.91 0 01-2.906-2.906A2.91 2.91 0 017.75 64.42h108.498a2.909 2.909 0 012.906 2.906 2.909 2.909 0 01-2.906 2.906z" fill="#F2C94C"/></g></g><defs><filter id="arfilter0_d" x="84.515" y="35.028" width="20.844" height="25.688" filterUnits="userSpaceOnUse" color-interpolation-filters="sRGB"><feFlood flood-opacity="0" result="BackgroundImageFix"/><feColorMatrix in="SourceAlpha" values="0 0 0 0 0 0 0 0 0 0 0 0 0 0 0 0 0 0 127 0"/><feOffset/><feGaussianBlur stdDeviation="4"/><feColorMatrix values="0 0 0 0 0.94902 0 0 0 0 0.788235 0 0 0 0 0.298039 0 0 0 0.25 0"/><feBlend in2="BackgroundImageFix" result="effect1_dropShadow"/><feBlend in="SourceGraphic" in2="effect1_dropShadow" result="shape"/></filter><filter id="arfilter1_d" x="84.515" y="18.64" width="20.844" height="25.688" filterUnits="userSpaceOnUse" color-interpolation-filters="sRGB"><feFlood flood-opacity="0" result="BackgroundImageFix"/><feColorMatrix in="SourceAlpha" values="0 0 0 0 0 0 0 0 0 0 0 0 0 0 0 0 0 0 127 0"/><feOffset/><feGaussianBlur stdDeviation="4"/><feColorMatrix values="0 0 0 0 0.94902 0 0 0 0 0.788235 0 0 0 0 0.298039 0 0 0 0.25 0"/><feBlend in2="BackgroundImageFix" result="effect1_dropShadow"/><feBlend in="SourceGraphic" in2="effect1_dropShadow" result="shape"/></filter><filter id="arfilter2_d" x="94.687" y="35.028" width="20.844" height="25.688" filterUnits="userSpaceOnUse" color-interpolation-filters="sRGB"><feFlood flood-opacity="0" result="BackgroundImageFix"/><feColorMatrix in="SourceAlpha" values="0 0 0 0 0 0 0 0 0 0 0 0 0 0 0 0 0 0 127 0"/><feOffset/><feGaussianBlur stdDeviation="4"/><feColorMatrix values="0 0 0 0 0.94902 0 0 0 0 0.788235 0 0 0 0 0.298039 0 0 0 0.25 0"/><feBlend in2="BackgroundImageFix" result="effect1_dropShadow"/><feBlend in="SourceGraphic" in2="effect1_dropShadow" result="shape"/></filter><filter id="arfilter3_d" x="94.687" y="18.64" width="20.844" height="25.688" filterUnits="userSpaceOnUse" color-interpolation-filters="sRGB"><feFlood flood-opacity="0" result="BackgroundImageFix"/><feColorMatrix in="SourceAlpha" values="0 0 0 0 0 0 0 0 0 0 0 0 0 0 0 0 0 0 127 0"/><feOffset/><feGaussianBlur stdDeviation="4"/><feColorMatrix values="0 0 0 0 0.94902 0 0 0 0 0.788235 0 0 0 0 0.298039 0 0 0 0.25 0"/><feBlend in2="BackgroundImageFix" result="effect1_dropShadow"/><feBlend in="SourceGraphic" in2="effect1_dropShadow" result="shape"/></filter><filter id="arfilter4_d" x="74.343" y="35.028" width="20.844" height="25.688" filterUnits="userSpaceOnUse" color-interpolation-filters="sRGB"><feFlood flood-opacity="0" result="BackgroundImageFix"/><feColorMatrix in="SourceAlpha" values="0 0 0 0 0 0 0 0 0 0 0 0 0 0 0 0 0 0 127 0"/><feOffset/><feGaussianBlur stdDeviation="4"/><feColorMatrix values="0 0 0 0 0.94902 0 0 0 0 0.788235 0 0 0 0 0.298039 0 0 0 0.25 0"/><feBlend in2="BackgroundImageFix" result="effect1_dropShadow"/><feBlend in="SourceGraphic" in2="effect1_dropShadow" result="shape"/></filter><filter id="arfilter5_d" x="74.343" y="18.64" width="20.844" height="25.688" filterUnits="userSpaceOnUse" color-interpolation-filters="sRGB"><feFlood flood-opacity="0" result="BackgroundImageFix"/><feColorMatrix in="SourceAlpha" values="0 0 0 0 0 0 0 0 0 0 0 0 0 0 0 0 0 0 127 0"/><feOffset/><feGaussianBlur stdDeviation="4"/><feColorMatrix values="0 0 0 0 0.94902 0 0 0 0 0.788235 0 0 0 0 0.298039 0 0 0 0.25 0"/><feBlend in2="BackgroundImageFix" result="effect1_dropShadow"/><feBlend in="SourceGraphic" in2="effect1_dropShadow" result="shape"/></filter><filter id="arfilter6_d" x="46.281" y="6.067" width="31.5" height="31.5" filterUnits="userSpaceOnUse" color-interpolation-filters="sRGB"><feFlood flood-opacity="0" result="BackgroundImageFix"/><feColorMatrix in="SourceAlpha" values="0 0 0 0 0 0 0 0 0 0 0 0 0 0 0 0 0 0 127 0"/><feOffset/><feGaussianBlur stdDeviation="4"/><feColorMatrix values="0 0 0 0 0.94902 0 0 0 0 0.788235 0 0 0 0 0.298039 0 0 0 0.25 0"/><feBlend in2="BackgroundImageFix" result="effect1_dropShadow"/><feBlend in="SourceGraphic" in2="effect1_dropShadow" result="shape"/></filter><filter id="arfilter7_d" x="21.965" y="-8" width="31.5" height="31.5" filterUnits="userSpaceOnUse" color-interpolation-filters="sRGB"><feFlood flood-opacity="0" result="BackgroundImageFix"/><feColorMatrix in="SourceAlpha" values="0 0 0 0 0 0 0 0 0 0 0 0 0 0 0 0 0 0 127 0"/><feOffset/><feGaussianBlur stdDeviation="4"/><feColorMatrix values="0 0 0 0 0.94902 0 0 0 0 0.788235 0 0 0 0 0.298039 0 0 0 0.25 0"/><feBlend in2="BackgroundImageFix" result="effect1_dropShadow"/><feBlend in="SourceGraphic" in2="effect1_dropShadow" result="shape"/></filter><filter id="arfilter8_d" x="-.249" y="5.078" width="31.5" height="31.5" filterUnits="userSpaceOnUse" color-interpolation-filters="sRGB"><feFlood flood-opacity="0" result="BackgroundImageFix"/><feColorMatrix in="SourceAlpha" values="0 0 0 0 0 0 0 0 0 0 0 0 0 0 0 0 0 0 127 0"/><feOffset/><feGaussianBlur stdDeviation="4"/><feColorMatrix values="0 0 0 0 0.94902 0 0 0 0 0.788235 0 0 0 0 0.298039 0 0 0 0.25 0"/><feBlend in2="BackgroundImageFix" result="effect1_dropShadow"/><feBlend in="SourceGraphic" in2="effect1_dropShadow" result="shape"/></filter><filter id="arfilter9_d" x="51.578" y="62.233" width="20.844" height="20.844" filterUnits="userSpaceOnUse" color-interpolation-filters="sRGB"><feFlood flood-opacity="0" result="BackgroundImageFix"/><feColorMatrix in="SourceAlpha" values="0 0 0 0 0 0 0 0 0 0 0 0 0 0 0 0 0 0 127 0"/><feOffset/><feGaussianBlur stdDeviation="4"/><feColorMatrix values="0 0 0 0 0.94902 0 0 0 0 0.788235 0 0 0 0 0.298039 0 0 0 0.25 0"/><feBlend in2="BackgroundImageFix" result="effect1_dropShadow"/><feBlend in="SourceGraphic" in2="effect1_dropShadow" result="shape"/></filter><filter id="arfilter10_d" x="-8" y="-8" width="139.998" height="140" filterUnits="userSpaceOnUse" color-interpolation-filters="sRGB"><feFlood flood-opacity="0" result="BackgroundImageFix"/><feColorMatrix in="SourceAlpha" values="0 0 0 0 0 0 0 0 0 0 0 0 0 0 0 0 0 0 127 0"/><feOffset/><feGaussianBlur stdDeviation="4"/><feColorMatrix values="0 0 0 0 0.94902 0 0 0 0 0.788235 0 0 0 0 0.298039 0 0 0 0.25 0"/><feBlend in2="BackgroundImageFix" result="effect1_dropShadow"/><feBlend in="SourceGraphic" in2="effect1_dropShadow" result="shape"/></filter><clipPath id="arclip0"><path fill="#fff" d="M0 0h124v124H0z"/></clipPath></defs></svg><svg fill="none" viewBox="0 0 48 48" id="settings" xmlns="http://www.w3.org/2000/svg"><g clip-path="url(#asclip0)"><path d="M44.747 22.756l-1.909-.821V20.63A18.791 18.791 0 0030.25 2.829V.989A.99.99 0 0029.26 0H18.678a.99.99 0 00-.989.99v1.848A18.791 18.791 0 005.1 20.64v1.315l-1.888.8a.988.988 0 00-.603.91v5.193a.99.99 0 00.989.989h1.285v1.978a.99.99 0 00.99.989h3.55a14.959 14.959 0 001.473 3.54l-2.512 2.512a.988.988 0 000 1.395l4.203 4.203a.988.988 0 001.395 0l2.511-2.512a14.935 14.935 0 003.531 1.473v3.55a.99.99 0 00.99.99h5.933a.99.99 0 00.989-.99v-3.55a14.922 14.922 0 003.54-1.473l2.512 2.512a.988.988 0 001.395 0l4.203-4.203a.988.988 0 000-1.395l-2.512-2.512a14.964 14.964 0 001.474-3.54h3.55a.99.99 0 00.989-.989v-1.978h1.285a.989.989 0 00.99-.989v-5.192a.989.989 0 00-.614-.91zm-25.1-20.768h8.624v16.525h-8.604l-.02-16.525zm21.47 28.848h-3.292a.989.989 0 00-.99.78 12.998 12.998 0 01-1.81 4.352c-.253.391-.199.906.13 1.236l2.363 2.364-2.829 2.809-2.363-2.364a.989.989 0 00-1.236-.128 13.006 13.006 0 01-4.352 1.81.99.99 0 00-.781.989v3.332H22v-3.362a.988.988 0 00-.781-.989 12.966 12.966 0 01-4.351-1.81.99.99 0 00-1.237.129l-2.364 2.363-2.798-2.799 2.363-2.363a.989.989 0 00.13-1.236 13.01 13.01 0 01-1.84-4.332.99.99 0 00-.99-.781H6.842v-.99h9.038a8.148 8.148 0 009.072 7.109 8.148 8.148 0 007.108-7.108h9.049l.01.989zm-23.22-.99H30.07a6.171 6.171 0 01-12.184 0h.01zm25.495-1.977H4.576v-3.55l1.908-.821a.987.987 0 00.604-.91V20.61A16.811 16.811 0 0117.689 4.935v14.567c0 .546.443.99.99.99h10.6a.99.99 0 00.99-.99V4.935A16.812 16.812 0 0140.88 20.63v1.978c0 .396.238.755.604.91l1.908.82v3.53z" fill="#333"/></g><defs><clipPath id="asclip0"><path fill="#fff" d="M0 0h48v48H0z"/></clipPath></defs></svg><svg fill="none" viewBox="0 0 126 126" id="steps-icon-1" xmlns="http://www.w3.org/2000/svg"><circle cx="63" cy="63" r="63" fill="#F2C94C" fill-opacity=".6"/><g clip-path="url(#atclip0)" fill="#333"><path d="M46.479 90.433a31.765 31.765 0 0016.408 4.544C80.49 94.977 95 80.613 95 62.988 95 45.384 80.51 31 62.887 31c-17.57 0-31.864 14.35-31.864 31.988 0 5.887 1.569 11.584 4.544 16.532L31 95l15.479-4.567zM34.772 62.988c0-15.571 12.612-28.24 28.115-28.24 15.64 0 28.364 12.669 28.364 28.24 0 15.572-12.724 28.24-28.364 28.24a28.016 28.016 0 01-15.123-4.41l-.721-.46-10.499 3.098 3.098-10.499-.46-.72c-2.886-4.512-4.41-9.785-4.41-15.249z"/><path d="M46.579 57.094c.619 3.252 2.457 9.506 7.808 14.857 5.35 5.35 11.605 7.189 14.857 7.808 3.723.71 9.188.816 11.858-1.854l1.489-1.49a3.954 3.954 0 001.165-2.813 3.952 3.952 0 00-1.165-2.814l-5.954-5.953a3.953 3.953 0 00-2.814-1.166 3.953 3.953 0 00-2.814 1.166l-1.488 1.488c-.91.91-2.626.913-3.541.011l-5.939-6.187c-.009-.01-.017-.019-.027-.027a2.338 2.338 0 010-3.304l1.488-1.488a3.977 3.977 0 000-5.628l-5.953-5.954a3.984 3.984 0 00-5.628 0l-1.488 1.49v-.001c-2.131 2.132-2.842 6.675-1.854 11.86zm4.505-9.208c1.563-1.527 1.479-1.556 1.651-1.556a.23.23 0 01.163.067c6.274 6.308 6.022 5.937 6.022 6.117a.225.225 0 01-.067.164l-1.49 1.488a6.081 6.081 0 00-.014 8.59l5.942 6.19.027.028c2.37 2.37 6.476 2.378 8.854 0l1.488-1.488c.09-.09.237-.09.326 0 6.274 6.306 6.022 5.936 6.022 6.116a.225.225 0 01-.067.163l-1.49 1.489c-1.02 1.02-4.268 1.63-8.506.823-2.828-.539-8.266-2.136-12.907-6.777-4.641-4.64-6.238-10.079-6.777-12.907-.807-4.238-.197-7.487.823-8.507z"/></g><defs><clipPath id="atclip0"><path fill="#fff" d="M31 31h64v64H31z"/></clipPath></defs></svg><svg fill="none" viewBox="0 0 126 126" id="steps-icon-2" xmlns="http://www.w3.org/2000/svg"><circle cx="63" cy="63" r="63" fill="#F2C94C" fill-opacity=".6"/><g clip-path="url(#auclip0)" fill="#333"><path d="M91.165 83.665l-48.676-.02c-.958-.012-1.475.06-2.75.63l-7.88 3.517a1.412 1.412 0 00-.855 1.306c0 .566.337 1.08.852 1.306 2.584 1.157 7.883 3.522 7.883 3.522 1.193.532 1.71.592 2.558.592l19.075.018a.938.938 0 000-1.875H43.455v-2.623h41.423v2.623h-18.85a.937.937 0 100 1.875h25.137A3.836 3.836 0 0095 90.707v-3.213a3.836 3.836 0 00-3.835-3.829zM36.445 87.8v2.602l-2.914-1.302 2.913-1.3zm1.874 3.44v-4.277s2.982-1.312 3.26-1.376v7.029c-.278-.064-2.575-1.071-3.26-1.377zm5.136-3.076V85.54l.241.001h41.182v2.623H43.455zm49.67 2.544c0 1.077-.88 1.954-1.96 1.954h-4.412v-7.12h4.412c1.08 0 1.96.876 1.96 1.953v3.213zM32.611 80.57l28.625-.003a.937.937 0 100-1.875l-28.361.003V40.438h3.748v31.34c0 .851.693 1.543 1.544 1.543h38.875c.643 0 1.201-.347 1.423-.883.222-.536.075-1.134-.392-1.6l-30.466-30.4H82.09v29.727c0 .876.713 1.588 1.59 1.588h4.132a3.478 3.478 0 013.48 3.47c0 1.912-1.561 3.469-3.48 3.469H65.54a.937.937 0 100 1.875H87.81c2.952 0 5.354-2.398 5.354-5.345V40.074a5.357 5.357 0 00-5.354-5.347H83.68a1.59 1.59 0 00-1.59 1.585v2.25h-36.36l-6.622-6.606c-.469-.468-1.069-.613-1.606-.388-.538.226-.882.785-.878 1.419v5.576h-4.012c-.888 0-1.611.723-1.611 1.613v38.781c0 .89.723 1.613 1.611 1.613zm51.353-43.968h3.847a3.48 3.48 0 013.48 3.472v31.09a5.336 5.336 0 00-3.48-1.286h-3.847V36.602zm-45.466-2.605l37.53 37.45h-8.039V70.13a.937.937 0 10-1.875 0v1.316h-4.022v-2.555a.938.938 0 00-1.875 0v2.555h-4.025V70.13a.938.938 0 00-1.875 0v1.316h-4.022v-2.555a.938.938 0 00-1.875 0v2.555h-4.025V70.13a.938.938 0 00-1.875 0v1.316h-4.022V33.997z"/><path d="M46.559 64.624h10.386c.392 0 1.12 0 1.4-.675.274-.663-.205-1.141-.555-1.49l-10.283-10.26c-.349-.351-.828-.832-1.492-.558-.675.279-.675 1.007-.675 1.398v10.367c0 .74.478 1.218 1.218 1.218zm.656-10.068l8.21 8.193h-8.21v-8.193z"/></g><defs><clipPath id="auclip0"><path fill="#fff" d="M31 31h64v64H31z"/></clipPath></defs></svg><svg fill="none" viewBox="0 0 126 126" id="steps-icon-3" xmlns="http://www.w3.org/2000/svg"><circle cx="63" cy="63" r="63" fill="#F2C94C" fill-opacity=".6"/><g clip-path="url(#avclip0)" fill="#333"><path d="M94.882 46.175a3.198 3.198 0 00-1.493-1.94 3.2 3.2 0 00-4.373 1.172l-.533.928a1.066 1.066 0 00-1.45.384l-2.71 4.618-.927-.533a1.068 1.068 0 00-1.461.394 1.067 1.067 0 00.394 1.45l.928.534-9.065 15.71-2.24 5.983-1.066 1.993a3.2 3.2 0 00.17 3.456l-2.399 2.943-.671-1.684a2.132 2.132 0 00-3.808-.3l-.384.651-.362-4.266a2.134 2.134 0 00-4.15-.5l-2.623 7.87a1.066 1.066 0 00.672 1.344.923.923 0 00.33.085c.459.001.867-.29 1.014-.725l2.613-7.87.373 4.329a2.133 2.133 0 003.957.917l.394-.65.662 1.674a2.132 2.132 0 003.647.544l2.485-3.146c.275.072.558.108.843.107a3.2 3.2 0 002.783-1.58l1.066-1.78 4.064-4.938 9.16-15.901.929.533a1.066 1.066 0 01.394 1.461l-4.266 7.391a1.065 1.065 0 00.342 1.504 1.066 1.066 0 001.46-.395l4.267-7.39a3.198 3.198 0 00-1.174-4.373l-.928-.534 2.667-4.617a1.067 1.067 0 00-.384-1.45l.533-.929c.437-.747.553-1.64.32-2.474zm-4.02.299c.14-.247.375-.428.65-.501a1.12 1.12 0 01.81.106c.248.142.428.376.502.65.068.275.03.564-.107.811l-.533.928-1.856-1.067.533-.927zM76.324 76.25l-.533-.31-1.578-.917 1.514-4.052 3.36 1.94-2.763 3.34zm-3.2 3.082a1.066 1.066 0 01-.319-1.397l.533-.928 1.856 1.067-.534.917a1.066 1.066 0 01-1.535.341zm7.178-8.169l-3.69-2.133 8.532-14.782 3.69 2.133-8.532 14.782zm9.599-16.627l-3.69-2.133 2.132-3.69 3.69 2.133-2.133 3.69zM47.83 78.8l-3.775 3.764-2.26-2.26a1.067 1.067 0 10-1.505 1.513l2.261 2.262c.4.396.94.619 1.504.618a2.134 2.134 0 001.514-.618l3.765-3.776A1.066 1.066 0 0047.83 78.8z"/><path d="M35.268 81.666a9.065 9.065 0 009.065 9.065 9.065 9.065 0 009.065-9.065 1.067 1.067 0 00-2.133 0 6.932 6.932 0 11-6.932-6.932 6.872 6.872 0 014.159 1.387 1.066 1.066 0 101.28-1.706 9.066 9.066 0 00-14.504 7.251zM69.393 39.543a1.066 1.066 0 100-2.133H41.664c-.589 0-1.066.478-1.066 1.067v4.266c0 .59.477 1.066 1.066 1.066h27.729a1.066 1.066 0 100-2.133H42.731v-2.133h26.662zM44.865 45.941a1.067 1.067 0 000 2.133h21.33a1.066 1.066 0 100-2.133h-21.33zM72.594 53.406H49.13a1.066 1.066 0 000 2.133h23.463a1.066 1.066 0 100-2.133zM61.928 60.871c0-.589-.478-1.066-1.067-1.066h-21.33a1.067 1.067 0 000 2.133h21.33c.589 0 1.067-.477 1.067-1.067zM72.592 59.805h-7.465a1.067 1.067 0 000 2.133h7.465a1.066 1.066 0 100-2.133zM50.196 67.27a1.066 1.066 0 100-2.133H39.531a1.067 1.067 0 000 2.133h10.665zM54.461 67.27h7.465a1.066 1.066 0 100-2.133h-7.465a1.067 1.067 0 000 2.133z"/><path d="M78.992 80.07c-.59 0-1.067.478-1.067 1.067V91.8c0 .59-.477 1.067-1.066 1.067h-42.66a1.066 1.066 0 01-1.066-1.067v-57.59c0-.589.477-1.066 1.066-1.066h42.66c.589 0 1.066.477 1.066 1.066v20.03a1.067 1.067 0 002.133 0V34.21a3.2 3.2 0 00-3.2-3.2H34.2a3.2 3.2 0 00-3.199 3.2v57.59a3.2 3.2 0 003.2 3.2h42.659a3.2 3.2 0 003.2-3.2V81.136c0-.588-.478-1.066-1.067-1.066z"/></g><defs><clipPath id="avclip0"><path fill="#fff" d="M31 31h64v64H31z"/></clipPath></defs></svg><svg fill="none" viewBox="0 0 126 126" id="steps-icon-4" xmlns="http://www.w3.org/2000/svg"><circle cx="63" cy="63" r="63" fill="#F2C94C" fill-opacity=".6"/><g clip-path="url(#awclip0)"><path d="M78.986 31.55c-.34-.342-.827-.55-1.326-.55h-8.98A49.563 49.563 0 0035.85 43.399a1.875 1.875 0 102.482 2.811 45.815 45.815 0 0130.35-11.46h4.778a39.91 39.91 0 00-2.689 3.75h-2.09a42.12 42.12 0 00-27.499 10.2 1.875 1.875 0 102.45 2.84 38.368 38.368 0 0125.044-9.29 38.71 38.71 0 00-1.628 3.79c-7.5.354-14.756 3.163-20.518 7.962a1.875 1.875 0 002.4 2.882c4.78-3.982 10.715-6.426 16.906-7.001a39.891 39.891 0 00-.807 3.864 27.065 27.065 0 00-13.122 5.558 1.875 1.875 0 102.318 2.948 23.326 23.326 0 0110.387-4.646 40.674 40.674 0 00-.076 2.428v1.402a19.506 19.506 0 00-7.2 3.167 1.875 1.875 0 002.168 3.06 15.793 15.793 0 019.178-2.914h7.104v7.5H73.91c-1.035 0-1.875.84-1.875 1.875v15.25A5.631 5.631 0 0077.66 95a5.631 5.631 0 005.625-5.625v-15.25c0-1.035-.84-1.875-1.875-1.875h-1.875v-7.5h9.375c1.036 0 1.875-.84 1.875-1.875v-2.84a40.266 40.266 0 00-11.799-28.486zm.55 57.825a1.877 1.877 0 01-1.876 1.875 1.877 1.877 0 01-1.875-1.875V76h3.75v13.375zM87.035 61h-18.75v-.965c0-9.114 3.315-17.72 9.374-24.438 6.06 6.718 9.375 15.323 9.375 24.438V61z" fill="#333"/></g><defs><clipPath id="awclip0"><path fill="#fff" d="M31 31h64v64H31z"/></clipPath></defs></svg><svg fill="none" viewBox="0 0 126 126" id="steps-icon-5" xmlns="http://www.w3.org/2000/svg"><circle cx="63" cy="63" r="63" fill="#F2C94C" fill-opacity=".6"/><g clip-path="url(#axclip0)" fill="#333"><path d="M84.333 77.118l-2.716-1.627a5.346 5.346 0 00-2.741-.758h-4.089a9.645 9.645 0 00-2.48.32L59.99 78.36a4.296 4.296 0 00-2.9 2.69l-10.836-5.862a4.246 4.246 0 00-2.9-.48 3.998 3.998 0 00-1.078.355c-.77.369-1.41.964-1.833 1.707a4.274 4.274 0 00-.564 2.122 4.227 4.227 0 002.108 3.69L61.406 94.2a5.333 5.333 0 002.808.799h15.03c.67 0 1.336-.127 1.96-.374l3.13-1.236V95H95V73.666H84.333v3.452zM80.42 92.643a3.209 3.209 0 01-1.174.224H64.214a3.21 3.21 0 01-1.7-.489L43.069 80.745a2.122 2.122 0 01-1.06-1.852c.001-.374.1-.742.286-1.067a2.097 2.097 0 011.45-1.018c.134-.025.271-.038.408-.038.367-.001.727.094 1.045.277l11.75 6.349c.013.065.013.129.03.194a4.277 4.277 0 004.125 3.157c.593-.054 1.181-.16 1.757-.313l11.083-2.966-.55-2.06-11.047 2.952c-.486.112-1.114.24-1.243.25a2.133 2.133 0 01-2.062-1.57 1.945 1.945 0 01-.062-.395s-.009-.259 0-.35a2.156 2.156 0 011.569-1.88L72.86 77.12a7.453 7.453 0 011.927-.254h4.089c.58 0 1.147.158 1.644.455l3.813 2.284v11.49l-3.913 1.548zM86.467 75.8h6.4v17.067h-6.4V75.8zM74.994 39.533l-5.722-5.721A9.534 9.534 0 0062.484 31h-13.41a5.369 5.369 0 00-2.386.563l-2.39 1.195a3.16 3.16 0 01-1.547.335l-1.084-.038V31H31v23.466h10.667v-3.2h1.813l.646.427a11.76 11.76 0 006.074 1.955v13.618H95V39.533H74.994zm-35.46 12.8h-6.4v-19.2h6.4v19.2zm5.772-2.415l-1.186-.785h-2.453V35.19l1.005.036c.894.031 1.78-.16 2.58-.56l2.388-1.195a3.206 3.206 0 011.433-.338h13.41a7.416 7.416 0 015.28 2.186l4.214 4.214h-8.802l-2.59-2.589-1.507 1.508 7.535 7.536a2.14 2.14 0 01-3.019 3.03l-6.293-6.292-.747.64a5.654 5.654 0 01-7.19.106l-.618-.501-1.344 1.657.625.507a7.774 7.774 0 002.173 1.224v5.155a9.62 9.62 0 01-4.894-1.596zm15.174-.999l1.61 1.61a4.297 4.297 0 006.026.005 5.398 5.398 0 10.606-.773 4.195 4.195 0 00.35-3.828h14.283a6.418 6.418 0 005.245 5.245v4.443a6.418 6.418 0 00-5.245 5.245h-21.51a6.418 6.418 0 00-5.245-5.245v-4.443a6.368 6.368 0 003.88-2.259zm8.92 4.48a3.2 3.2 0 116.4 0 3.2 3.2 0 01-6.4 0zm23.467 11.734H52.333V46.806a7.756 7.756 0 004.8-1.226l1.82 1.82a4.256 4.256 0 01-3.42 1.733h-1.066v8.533h1.066a4.267 4.267 0 014.267 4.267V63h25.6v-1.067a4.267 4.267 0 014.267-4.267h1.066v-8.533h-1.066a4.267 4.267 0 01-4.267-4.267V43.8H67.442l-2.134-2.134h27.559v23.467z"/></g><defs><clipPath id="axclip0"><path fill="#fff" d="M31 31h64v64H31z"/></clipPath></defs></svg><svg fill="none" viewBox="0 0 126 126" id="steps-icon-6" xmlns="http://www.w3.org/2000/svg"><circle cx="63" cy="63" r="63" fill="#F2C94C" fill-opacity=".6"/><path d="M87.926 66.24a1.255 1.255 0 00-1.987 1.533 9.413 9.413 0 011.972 5.797 1.255 1.255 0 102.51 0c0-2.678-.863-5.213-2.495-7.33z" fill="#333"/><path d="M83.71 57.822a9.56 9.56 0 004.226-7.931c0-5.274-4.29-9.564-9.564-9.564-5.273 0-9.563 4.29-9.563 9.564a9.56 9.56 0 004.223 7.928 16.534 16.534 0 00-5.133 2.838A7.07 7.07 0 0063 58.68a7.068 7.068 0 00-4.898 1.977 16.544 16.544 0 00-5.134-2.838 9.56 9.56 0 004.223-7.929c0-5.273-4.29-9.563-9.563-9.563-5.273 0-9.563 4.29-9.563 9.563a9.56 9.56 0 004.226 7.931c-6.548 2.226-11.275 8.428-11.29 15.717L31 73.57c0 1.927 1.095 4.77 6.31 7.376 3.717 1.856 8.824 3.251 14.77 4.035 3.488.46 7.162.693 10.92.693 3.76 0 7.433-.233 10.921-.694 5.946-.783 11.052-2.178 14.769-4.035C93.905 78.34 95 75.498 95 73.572c0-7.303-4.732-13.52-11.29-15.75zM71.319 49.89a7.062 7.062 0 017.053-7.054 7.062 7.062 0 017.054 7.053c0 3.89-3.164 7.053-7.053 7.053-3.89 0-7.054-3.164-7.054-7.052zM59.256 63.15A4.561 4.561 0 0163 61.19c1.493 0 2.893.733 3.745 1.96v.001c.533.765.814 1.663.814 2.598a4.564 4.564 0 01-4.56 4.559 4.564 4.564 0 01-4.557-4.56c0-.936.281-1.833.814-2.598zM40.575 49.89c0-3.89 3.164-7.054 7.052-7.054a7.062 7.062 0 017.054 7.053c0 3.89-3.164 7.053-7.054 7.053a7.06 7.06 0 01-7.052-7.052zm10.415 32.4c-5.06-.771-9.38-2.004-12.558-3.59-3.165-1.581-4.911-3.397-4.922-5.115l.001-.015c0-7.785 6.333-14.118 14.116-14.118 3.312 0 6.471 1.144 9 3.24a7.058 7.058 0 001.864 8.495C54.104 72.97 51 77.273 50.99 82.29zm21.512.335a82.246 82.246 0 01-9.502.538c-3.259 0-6.449-.181-9.5-.538v-.308c0-5.239 4.261-9.5 9.5-9.5 5.24 0 9.502 4.261 9.502 9.5v.308zM87.568 78.7c-3.177 1.587-7.496 2.82-12.556 3.59-.012-5.016-3.115-9.32-7.502-11.103a7.057 7.057 0 001.864-8.495 14.045 14.045 0 018.999-3.24c7.784 0 14.117 6.334 14.117 14.118 0 1.723-1.748 3.545-4.922 5.13z" fill="#333"/><path d="M84.166 63.293c-1.615 0-1.618 2.51 0 2.51 1.615 0 1.618-2.51 0-2.51z" fill="#333"/></svg><svg fill="none" viewBox="0 0 35 35" id="tick" xmlns="http://www.w3.org/2000/svg"><circle cx="17.5" cy="17.5" r="17.5" fill="#F2C94C"/><path d="M23.808 14.548l-.393-.393a.651.651 0 00-.464-.191.651.651 0 00-.464.191l-5.523 5.523-3.451-3.45a.652.652 0 00-.464-.192.652.652 0 00-.464.191l-.394.393a.653.653 0 00-.191.465c0 .175.068.34.191.464l3.897 3.896a.15.15 0 00.017.02l.393.387a.648.648 0 00.465.184h.002c.176 0 .341-.061.464-.184l.394-.39.015-.017 5.97-5.97a.655.655 0 000-.927z" fill="#000"/></svg><svg fill="none" viewBox="0 0 50 50" id="vk" xmlns="http://www.w3.org/2000/svg"><circle cx="25" cy="25" r="24.5" stroke="#ABABAB"/><g clip-path="url(#baclip0)" fill="#fff"><path d="M30.676 13.846H20.093a6.254 6.254 0 00-6.247 6.246v10.584a6.254 6.254 0 006.247 6.247h10.584a6.254 6.254 0 006.246-6.247V20.092a6.254 6.254 0 00-6.247-6.246zm-5.291 17.848c-3.48 0-6.31-2.83-6.31-6.31 0-3.48 2.83-6.31 6.31-6.31 3.479 0 6.31 2.83 6.31 6.31 0 3.48-2.831 6.31-6.31 6.31zm6.46-11.132a1.866 1.866 0 01-1.864-1.864c0-1.028.836-1.865 1.864-1.865 1.029 0 1.865.837 1.865 1.865a1.867 1.867 0 01-1.865 1.864z"/><path d="M25.385 20.427a4.963 4.963 0 00-4.957 4.957 4.963 4.963 0 004.957 4.957 4.963 4.963 0 004.957-4.957 4.963 4.963 0 00-4.957-4.957zM31.845 18.186a.512.512 0 10.002 1.025.512.512 0 00-.002-1.024z"/></g><defs><clipPath id="baclip0"><path fill="#fff" d="M13.846 13.846h23.077v23.077H13.846z"/></clipPath></defs></svg><svg fill="none" viewBox="0 0 50 50" id="vk-gray" xmlns="http://www.w3.org/2000/svg"><circle cx="25" cy="25" r="24.5" stroke="#ABABAB"/><g clip-path="url(#bbclip0)"><path d="M34.478 23.603c2.387-3.233 1.858-3.294 2.445-4.304h-4.576s-.325 1.13-.424 1.332c-.88 1.787-2.85 4.47-4.043 4.744-1.174.27-1.018-2.505-.946-3.707.068-1.114.057-1.503.024-1.696a.646.646 0 00-.567-.522 16.834 16.834 0 00-2.829-.123l-1.06.035c.418.936.7.649.854 1.731.174 1.268.106 4.352-1.142 4.352-2.002 0-4.248-6.01-4.32-6.146h-4.048l.37.927c2.986 7.474 6.72 10.936 11.829 11.224l.665.019.047-.646c.072-.997.572-2.432 1.46-2.432 1.31 0 1.689.382 2.553 1.45.832 1.024 1.404 1.628 2.746 1.628h3.407l-.486-.977c-.759-1.524-2.28-2.83-2.875-3.587-.215-.286-.427-.736-.208-1.282.18-.475.714-1.466 1.124-2.02z" fill="#A3A3A3"/></g><defs><clipPath id="bbclip0"><path fill="#fff" d="M13.846 13.846h23.077v23.077H13.846z"/></clipPath></defs></svg><svg fill="none" viewBox="0 0 50 50" id="wa-gray" xmlns="http://www.w3.org/2000/svg"><circle cx="25" cy="25" r="24.5" stroke="#ABABAB"/><g clip-path="url(#bcclip0)" fill="#A3A3A3"><path d="M30.68 27.602l-.009.072c-2.114-1.053-2.335-1.194-2.609-.784-.189.284-.74.927-.907 1.117-.169.188-.336.202-.621.072-.289-.144-1.215-.447-2.311-1.428-.854-.764-1.427-1.702-1.596-1.99-.282-.487.308-.556.844-1.571.096-.202.047-.36-.024-.504-.072-.144-.646-1.558-.886-2.121-.231-.562-.469-.49-.647-.49-.554-.049-.958-.041-1.315.33-1.552 1.706-1.16 3.466.167 5.337 2.61 3.415 4 4.044 6.543 4.917.686.218 1.312.188 1.807.116.552-.087 1.7-.693 1.939-1.37.245-.679.245-1.241.173-1.371-.071-.13-.26-.202-.548-.332z"/><path d="M33.577 17.162c-7.393-7.148-19.629-1.964-19.634 8.119 0 2.015.528 3.98 1.534 5.716l-1.63 5.925 6.09-1.588c7.601 4.105 16.982-1.347 16.986-10.048a11.34 11.34 0 00-3.36-8.087l.014-.038zm1.425 8.093c-.006 7.34-8.063 11.923-14.435 8.177l-.346-.206-3.606.937.967-3.504-.23-.361c-3.966-6.313.59-14.562 8.102-14.562 2.552 0 4.947.995 6.75 2.798a9.412 9.412 0 012.798 6.72z"/></g><defs><clipPath id="bcclip0"><path fill="#fff" d="M13.846 13.846h23.077v23.077H13.846z"/></clipPath></defs></svg><svg fill="none" viewBox="0 0 50 50" id="whatsapp" xmlns="http://www.w3.org/2000/svg"><circle cx="25" cy="25" r="24.5" stroke="#ABABAB"/><g clip-path="url(#bdclip0)" fill="#fff"><path d="M30.68 27.602l-.009.072c-2.114-1.054-2.335-1.194-2.608-.785-.19.284-.742.927-.908 1.118-.168.187-.336.201-.621.072-.289-.145-1.215-.447-2.31-1.428-.855-.765-1.428-1.702-1.597-1.99-.282-.487.308-.556.844-1.572.096-.202.047-.36-.024-.503-.072-.145-.646-1.558-.886-2.122-.231-.561-.469-.49-.646-.49-.554-.048-.96-.04-1.316.33-1.552 1.707-1.16 3.466.167 5.337 2.61 3.416 4 4.045 6.543 4.918.686.218 1.312.187 1.807.116.552-.088 1.7-.693 1.939-1.371.245-.678.245-1.24.173-1.37-.071-.13-.26-.202-.548-.332z"/><path d="M33.577 17.162c-7.393-7.148-19.629-1.964-19.634 8.119 0 2.015.528 3.98 1.534 5.716l-1.63 5.925 6.09-1.588c7.601 4.105 16.982-1.347 16.986-10.048a11.34 11.34 0 00-3.36-8.087l.014-.038zm1.425 8.093c-.006 7.34-8.063 11.923-14.435 8.177l-.346-.206-3.606.937.967-3.504-.23-.361c-3.965-6.313.59-14.562 8.102-14.562 2.552 0 4.947.995 6.75 2.798a9.412 9.412 0 012.798 6.72z"/></g><defs><clipPath id="bdclip0"><path fill="#fff" d="M13.846 13.846h23.077v23.077H13.846z"/></clipPath></defs></svg><svg fill="none" viewBox="0 0 16 12" id="yellow-tick" xmlns="http://www.w3.org/2000/svg"><path d="M15.745 1.398L15.22.874a.868.868 0 00-.62-.256.868.868 0 00-.618.256L6.619 8.238 2.018 3.637a.87.87 0 00-.62-.256.87.87 0 00-.618.256l-.524.524A.87.87 0 000 4.78c0 .234.09.454.255.618l5.195 5.195c.007.01.014.019.022.027l.525.516a.864.864 0 00.62.246h.003a.862.862 0 00.619-.246l.524-.52c.009-.009.016-.015.02-.023l7.96-7.96a.874.874 0 000-1.235z" fill="#F2C94C"/></svg></svg>