<svg xmlns="http://www.w3.org/2000/svg" width="67" height="67" viewBox="0 0 67 67"><defs><mask id="4z8qb" width="2" height="2" x="-1" y="-1"><path fill="#fff" d="M6 6h55v55H6z"/><path d="M61 33.5C61 48.688 48.688 61 33.5 61S6 48.688 6 33.5 18.312 6 33.5 6 61 18.312 61 33.5z"/></mask><filter id="4z8qa" width="91" height="91" x="-12" y="-12" filterUnits="userSpaceOnUse"><feOffset in="SourceGraphic" result="FeOffset1025Out"/><feGaussianBlur in="FeOffset1025Out" result="FeGaussianBlur1026Out" stdDeviation="3.2 3.2"/></filter></defs><g><g transform="rotate(180 33.5 33.5)"><g><g filter="url(#4z8qa)"><path fill="none" d="M61 33.5C61 48.688 48.688 61 33.5 61S6 48.688 6 33.5 18.312 6 33.5 6 61 18.312 61 33.5z" mask="url(&quot;#4z8qb&quot;)"/><path fill-opacity=".25" d="M61 33.5C61 48.688 48.688 61 33.5 61S6 48.688 6 33.5 18.312 6 33.5 6 61 18.312 61 33.5z"/></g><path fill="#fff" d="M61 33.5C61 48.688 48.688 61 33.5 61S6 48.688 6 33.5 18.312 6 33.5 6 61 18.312 61 33.5z"/></g><g><path fill="#404040" fill-opacity=".75" d="M51 33.5C51 43.165 43.165 51 33.5 51S16 43.165 16 33.5 23.835 16 33.5 16 51 23.835 51 33.5z"/></g><g><g/><g><g><g><path fill="#fff" d="M38.663 32.915l-6.675-6.675a.815.815 0 0 0-.58-.24.815.815 0 0 0-.58.24l-.492.491c-.32.32-.32.84 0 1.16l5.605 5.606-5.611 5.611a.815.815 0 0 0-.24.58c0 .22.085.426.24.581l.491.491c.155.155.36.24.58.24.22 0 .426-.085.58-.24l6.682-6.68a.816.816 0 0 0 .24-.583.815.815 0 0 0-.24-.582z"/></g></g></g></g></g></g></svg>