<svg width="50" height="42" viewBox="0 0 50 42" fill="none" xmlns="http://www.w3.org/2000/svg">
<path d="M2.81056 24.9207L2.73251 24.9037L36.1902 24.9037L25.6723 35.4447C25.1573 35.9594 24.8748 36.6565 24.8748 37.3882C24.8748 38.1199 25.1573 38.8122 25.6723 39.3281L27.3089 40.9655C27.8236 41.4801 28.5093 41.7646 29.2406 41.7646C29.9723 41.7646 30.6585 41.4821 31.1732 40.9675L49.2028 22.9394C49.7195 22.4228 50.002 21.7346 50 21.0025C50.002 20.2663 49.7195 19.5777 49.2028 19.0618L31.1732 1.03213C30.6585 0.517897 29.9728 0.234972 29.2406 0.234972C28.5093 0.234972 27.8236 0.518305 27.3089 1.03213L25.6723 2.66952C25.1573 3.18334 24.8748 3.86952 24.8748 4.60123C24.8748 5.33253 25.1573 5.98253 25.6723 6.49676L36.3089 17.0968L2.77316 17.0968C1.26625 17.0968 -1.32158e-05 18.3955 -1.33475e-05 19.9016L-1.35499e-05 22.2175C-1.36816e-05 23.7236 1.30364 24.9207 2.81056 24.9207Z" fill="#535353"/>
</svg>
