<svg width="48" height="48" viewBox="0 0 48 48" fill="none" xmlns="http://www.w3.org/2000/svg">
<path d="M42.9382 2.33203H11.8998C9.20609 2.33203 7.01455 4.50308 7.01455 7.163L6.81452 34.494H0.757211C0.327935 34.494 0 34.8735 0 35.3028V39.0642C0 42.5853 2.81781 45.465 6.21862 45.6229V45.6681H32.3563V45.6172C32.5506 45.6252 32.6683 45.6681 32.8019 45.6681H32.8204C36.4475 45.6468 39.3712 42.6905 39.3522 39.0634V15.1579H47.2428C47.672 15.1579 48 14.7693 48 14.3404V7.43894C48.0049 4.63403 45.7431 2.35215 42.9382 2.33203V2.33203ZM6.5587 44.1134H6.55339C3.78833 44.1134 1.55465 41.8281 1.55465 39.0634V36.0486H26.2348V39.0505C26.2287 40.8003 26.9199 42.4802 28.1553 43.7191C28.2867 43.8511 28.4241 43.9191 28.5645 44.1134H6.5587ZM37.7976 39.0627C37.7976 41.8281 35.5855 44.1134 32.8193 44.1134H32.8034C30.0235 44.0933 27.783 41.8308 27.7895 39.0509V35.3028C27.7917 34.8675 27.4475 34.5092 27.0121 34.494H8.36917L8.5692 7.16832C8.5692 5.3605 10.0631 3.88669 11.8998 3.88669H39.2683C38.3824 4.85835 37.7976 6.08772 37.7976 7.45982V39.0627ZM46.4453 7.4526V13.6033H39.3522V7.4583C39.3522 5.5127 40.9706 3.88669 42.9155 3.88669H42.9371C44.8869 3.90604 46.4544 5.49676 46.4453 7.44691V7.4526Z" fill="#333333"/>
<path d="M18.2532 21.4654L22.2609 24.2054C22.5224 24.3857 22.8682 24.3857 23.1297 24.2054L27.1253 21.4661C28.5133 20.5191 29.5385 18.5394 29.5385 16.8606V11.3168C29.5469 11.0238 29.3852 10.752 29.124 10.6188L23.0219 7.6173C22.8079 7.51103 22.5566 7.51103 22.3425 7.6173L16.2518 10.6105C15.9907 10.7437 15.8294 11.0155 15.8381 11.3085V16.8606C15.8381 18.5394 16.8656 20.5191 18.2532 21.4654ZM17.3928 11.7935L22.6883 9.18069L27.9839 11.8008V16.8606C27.9839 18.0315 27.2164 19.5209 26.2481 20.1809L22.6792 22.6219L19.1243 20.1813C18.156 19.5205 17.3928 18.0315 17.3928 16.8606V11.7935Z" fill="#333333"/>
<path d="M21.3734 18.0342C21.5184 18.1822 21.7166 18.2661 21.9238 18.2672H21.9257C22.1322 18.2665 22.3299 18.1837 22.4753 18.0372L25.5675 14.9439C25.8716 14.6402 25.8716 14.1476 25.5679 13.8439C25.2646 13.5399 24.772 13.5399 24.4683 13.8435L21.9284 16.3831L20.913 15.358C20.6105 15.0528 20.1183 15.0505 19.8131 15.353C19.5079 15.6555 19.506 16.1478 19.8082 16.453L21.3734 18.0342Z" fill="#333333"/>
<path d="M32.3563 26.4292H13.7004C13.2711 26.4292 12.9231 26.7773 12.9231 27.2065C12.9231 27.6358 13.2711 27.9839 13.7004 27.9839H32.3563C32.7856 27.9839 33.1336 27.6358 33.1336 27.2065C33.1336 26.7773 32.7856 26.4292 32.3563 26.4292Z" fill="#333333"/>
<path d="M32.3563 30.0243H13.7004C13.2711 30.0243 12.9231 30.3723 12.9231 30.8016C12.9231 31.2309 13.2711 31.5789 13.7004 31.5789H32.3563C32.7856 31.5789 33.1336 31.2309 33.1336 30.8016C33.1336 30.3723 32.7856 30.0243 32.3563 30.0243Z" fill="#333333"/>
</svg>
