<svg width="48" height="48" viewBox="0 0 48 48" fill="none" xmlns="http://www.w3.org/2000/svg">
<g clip-path="url(#clip0)">
<path d="M45.7327 31.5015H31.494V17.2515C31.494 16.8367 31.1587 16.5015 30.744 16.5015H16.506V2.25146C16.506 1.83671 16.1707 1.50146 15.756 1.50146H0.755982C0.341231 1.50146 0.00598145 1.83671 0.00598145 2.25146V17.2515V32.2515V47.2515C0.00598145 47.6662 0.341231 48.0015 0.755982 48.0015H15.744H15.756H30.7327H30.7447H45.7327C46.1475 48.0015 46.4827 47.6662 46.4827 47.2515V32.2515C46.4827 31.8367 46.1467 31.5015 45.7327 31.5015ZM1.50598 18.0015H14.994V31.5015H1.50598V18.0015ZM16.506 33.0015H29.9827V46.5015H16.506V33.0015ZM29.994 31.5015H16.506V18.0015H29.994V31.5015ZM1.50598 3.00146H15.006V16.5015H1.50598V3.00146ZM1.50598 33.0015H14.994V46.5015H1.50598V33.0015ZM44.9827 46.5015H31.494V33.0015H44.982V46.5015H44.9827Z" fill="#333333"/>
<path d="M13.506 3.75146C13.0912 3.75146 12.756 4.08671 12.756 4.50146V14.2515H3.00598C2.59123 14.2515 2.25598 14.5867 2.25598 15.0015C2.25598 15.4162 2.59123 15.7515 3.00598 15.7515H13.506C13.9207 15.7515 14.256 15.4162 14.256 15.0015V4.50146C14.256 4.08671 13.9207 3.75146 13.506 3.75146Z" fill="#333333"/>
<path d="M13.506 18.7515C13.0912 18.7515 12.756 19.0867 12.756 19.5015V29.2515H3.00598C2.59123 29.2515 2.25598 29.5867 2.25598 30.0015C2.25598 30.4162 2.59123 30.7515 3.00598 30.7515H13.506C13.9207 30.7515 14.256 30.4162 14.256 30.0015V19.5015C14.256 19.0867 13.9207 18.7515 13.506 18.7515Z" fill="#333333"/>
<path d="M13.506 33.7515C13.0912 33.7515 12.756 34.0867 12.756 34.5015V44.2515H3.00598C2.59123 44.2515 2.25598 44.5867 2.25598 45.0015C2.25598 45.4162 2.59123 45.7515 3.00598 45.7515H13.506C13.9207 45.7515 14.256 45.4162 14.256 45.0015V34.5015C14.256 34.0867 13.9207 33.7515 13.506 33.7515Z" fill="#333333"/>
<path d="M18.006 30.7515H28.506C28.9207 30.7515 29.256 30.4162 29.256 30.0015V19.5015C29.256 19.0867 28.9207 18.7515 28.506 18.7515C28.0912 18.7515 27.756 19.0867 27.756 19.5015V29.2515H18.006C17.5912 29.2515 17.256 29.5867 17.256 30.0015C17.256 30.4162 17.5912 30.7515 18.006 30.7515Z" fill="#333333"/>
<path d="M28.506 33.7515C28.0912 33.7515 27.756 34.0867 27.756 34.5015V44.2515H18.006C17.5912 44.2515 17.256 44.5867 17.256 45.0015C17.256 45.4162 17.5912 45.7515 18.006 45.7515H28.506C28.9207 45.7515 29.256 45.4162 29.256 45.0015V34.5015C29.256 34.0867 28.9207 33.7515 28.506 33.7515Z" fill="#333333"/>
<path d="M33.006 45.7515H43.506C43.9207 45.7515 44.256 45.4162 44.256 45.0015V34.5015C44.256 34.0867 43.9207 33.7515 43.506 33.7515C43.0912 33.7515 42.756 34.0867 42.756 34.5015V44.2515H33.006C32.5912 44.2515 32.256 44.5867 32.256 45.0015C32.256 45.4162 32.5912 45.7515 33.006 45.7515Z" fill="#333333"/>
<path d="M17.991 3.73657H29.9902C30.405 3.73657 30.7402 3.40132 30.7402 2.98657C30.7402 2.57182 30.405 2.23657 29.9902 2.23657H17.991C17.5762 2.23657 17.241 2.57182 17.241 2.98657C17.241 3.40132 17.577 3.73657 17.991 3.73657Z" fill="#333333"/>
<path d="M17.991 6.73804H29.9902C30.405 6.73804 30.7402 6.40279 30.7402 5.98804C30.7402 5.57329 30.405 5.23804 29.9902 5.23804H17.991C17.5762 5.23804 17.241 5.57329 17.241 5.98804C17.241 6.40279 17.577 6.73804 17.991 6.73804Z" fill="#333333"/>
<path d="M17.991 9.7395H29.9902C30.405 9.7395 30.7402 9.40425 30.7402 8.9895C30.7402 8.57475 30.405 8.2395 29.9902 8.2395H17.991C17.5762 8.2395 17.241 8.57475 17.241 8.9895C17.241 9.40425 17.577 9.7395 17.991 9.7395Z" fill="#333333"/>
<path d="M17.991 12.741H29.9902C30.405 12.741 30.7402 12.4057 30.7402 11.991C30.7402 11.5762 30.405 11.241 29.9902 11.241H17.991C17.5762 11.241 17.241 11.5762 17.241 11.991C17.241 12.4057 17.577 12.741 17.991 12.741Z" fill="#333333"/>
<path d="M17.991 15.741H29.9902C30.405 15.741 30.7402 15.4057 30.7402 14.991C30.7402 14.5762 30.405 14.241 29.9902 14.241H17.991C17.5762 14.241 17.241 14.5762 17.241 14.991C17.241 15.4057 17.577 15.741 17.991 15.741Z" fill="#333333"/>
<path d="M41.4255 0.259489C40.8698 0.905989 35.994 6.66374 35.994 9.75299C35.994 12.4065 37.7273 14.6595 40.1198 15.4492V18H39.3698C38.955 18 38.6198 18.3352 38.6198 18.75C38.6198 19.1647 38.955 19.5 39.3698 19.5H39.3705V25.8727C39.3705 25.8742 39.3698 25.875 39.3698 25.8765C39.3698 27.324 40.5473 28.5015 41.9948 28.5015C43.4423 28.5015 44.6198 27.324 44.6198 25.8765C44.6198 25.875 44.619 25.8742 44.619 25.8727V19.5C45.0338 19.5 45.369 19.1647 45.369 18.75C45.369 18.3352 45.0338 18 44.619 18H43.869V15.4492C46.2608 14.6587 47.994 12.4057 47.994 9.75299C47.994 6.66374 43.1183 0.905989 42.5625 0.259489C42.2783 -0.0720107 41.7098 -0.0720107 41.4255 0.259489ZM43.1198 25.8787C43.1183 26.4982 42.6143 27.0015 41.9948 27.0015C41.3753 27.0015 40.8713 26.4982 40.8698 25.8787C40.8698 25.878 40.8705 25.8772 40.8705 25.8765V19.5H43.119V25.8765C43.119 25.8772 43.1198 25.878 43.1198 25.8787ZM42.369 18H41.6198V15.7342C41.7443 15.7425 41.868 15.753 41.994 15.753C42.1208 15.753 42.2445 15.7417 42.369 15.7342V18ZM41.994 14.253C39.5123 14.253 37.494 12.2347 37.494 9.75299C37.494 7.85174 40.3575 3.93374 41.994 1.91999C43.6313 3.93374 46.494 7.85024 46.494 9.75299C46.494 12.2347 44.4758 14.253 41.994 14.253Z" fill="#333333"/>
</g>
<defs>
<clipPath id="clip0">
<rect width="48" height="48" fill="white"/>
</clipPath>
</defs>
</svg>
