<svg width="64" height="64" viewBox="0 0 64 64" fill="none" xmlns="http://www.w3.org/2000/svg">
<g clip-path="url(#clip0)">
<path d="M62.9252 28.6105L57.5185 23.6842V7.34879C57.5185 6.30941 56.6759 5.46666 55.6364 5.46666H42.622C41.5827 5.46666 40.7399 6.30929 40.7399 7.34879V8.39554L34.2104 2.44591C32.95 1.29729 31.0494 1.29741 29.7895 2.44579L1.07479 28.6107C0.065292 29.5307 -0.268333 30.9482 0.224917 32.2218C0.718292 33.4954 1.91954 34.3183 3.28542 34.3183H7.87154V60.5334C7.87154 61.5728 8.71417 62.4155 9.75367 62.4155H25.4928C26.5322 62.4155 27.3749 61.5729 27.3749 60.5334V44.6164H36.625V60.5335C36.625 61.5729 37.4677 62.4157 38.5072 62.4157H54.2457C55.285 62.4157 56.1278 61.573 56.1277 60.5335V34.3184H60.7148C62.0805 34.3184 63.2819 33.4954 63.7753 32.2219C64.2684 30.9482 63.9349 29.5307 62.9252 28.6105ZM54.2457 30.5542C53.2063 30.5542 52.3635 31.3968 52.3635 32.4363V58.6514H40.3894V42.7343C40.3894 41.6949 39.5467 40.8522 38.5073 40.8522H25.4928C24.4534 40.8522 23.6107 41.6948 23.6107 42.7343V58.6514H11.6357V32.4363C11.6357 31.3969 10.793 30.5542 9.75354 30.5542H4.53067L32.0002 5.52416L41.3547 14.048C41.9057 14.55 42.701 14.6794 43.3827 14.3785C44.0644 14.0773 44.5043 13.402 44.5043 12.6568V9.23091H53.7545V24.5154C53.7545 25.045 53.9775 25.5499 54.369 25.9067L59.4694 30.5542H54.2457Z" fill="white"/>
</g>
<defs>
<clipPath id="clip0">
<rect width="64" height="64" fill="white"/>
</clipPath>
</defs>
</svg>
