<svg width="50" height="50" viewBox="0 0 50 50" xmlns="http://www.w3.org/2000/svg">
	<circle cx="25" cy="25" r="24.5" stroke="#ABABAB" />
	<g clip-path="url(#clip0)">
		<path d="M34.4776 23.6033C36.8655 20.3704 36.3359 20.3099 36.9231 19.2998H32.3471C32.3471 19.2998 32.0219 20.4289 31.9226 20.631C31.0437 22.4186 29.0723 25.1007 27.88 25.3749C26.706 25.6449 26.8618 22.8705 26.9342 21.6687C27.0023 20.5548 26.9907 20.165 26.958 19.9725C26.9101 19.6914 26.6741 19.4863 26.391 19.4505C25.8074 19.3766 24.7484 19.272 23.5624 19.3269L22.5014 19.3621C22.9198 20.2979 23.2024 20.0111 23.3564 21.0937C23.5304 22.3612 23.4619 25.4453 22.2136 25.4453C20.2125 25.4453 17.9662 19.4352 17.8948 19.2998H13.8462L14.2166 20.2268C17.2021 27.7006 20.9361 31.1622 26.0449 31.4501L26.7097 31.4693L26.7572 30.8237C26.8291 29.8266 27.3293 28.3913 28.2164 28.3913C29.5272 28.3913 29.906 28.773 30.7704 29.8412C31.6016 30.8654 32.1743 31.4693 33.5156 31.4693H36.9231L36.4372 30.4921C35.6784 28.9687 34.1563 27.6626 33.5619 26.905C33.3466 26.6198 33.1346 26.1689 33.354 25.6235C33.5334 25.1484 34.0675 24.1577 34.4776 23.6033Z" fill="white" />
	</g>
	<defs>
		<clipPath id="clip0">
			<rect x="13.8462" y="13.8457" width="23.0769" height="23.0769" fill="white" />
		</clipPath>
	</defs>
</svg>
