<svg width="50" height="50" viewBox="0 0 50 50" fill="none" xmlns="http://www.w3.org/2000/svg">
<circle cx="25" cy="25" r="24.5" stroke="#ABABAB"/>
<g clip-path="url(#clip0)">
<path d="M30.6764 13.8458H20.0929C16.6484 13.8458 13.8462 16.648 13.8462 20.0925V30.6762C13.8462 34.1205 16.6484 36.9227 20.0929 36.9227H30.6765C34.1209 36.9227 36.9231 34.1205 36.9231 30.6762V20.0925C36.9231 16.648 34.1209 13.8458 30.6764 13.8458V13.8458ZM25.3846 31.6942C21.9053 31.6942 19.0747 28.8636 19.0747 25.3843C19.0747 21.9049 21.9053 19.0744 25.3846 19.0744C28.864 19.0744 31.6945 21.9049 31.6945 25.3843C31.6945 28.8636 28.864 31.6942 25.3846 31.6942ZM31.8454 20.5624C30.8172 20.5624 29.9809 19.7261 29.9809 18.6979C29.9809 17.6697 30.8172 16.8333 31.8454 16.8333C32.8736 16.8333 33.7101 17.6697 33.7101 18.6979C33.7101 19.7261 32.8736 20.5624 31.8454 20.5624Z" fill="#A3A3A3"/>
<path d="M25.3847 20.4272C22.6515 20.4272 20.4276 22.6509 20.4276 25.3843C20.4276 28.1175 22.6515 30.3413 25.3847 30.3413C28.118 30.3413 30.3417 28.1175 30.3417 25.3843C30.3417 22.6509 28.118 20.4272 25.3847 20.4272Z" fill="#A3A3A3"/>
<path d="M31.8454 18.1863C31.5633 18.1863 31.3337 18.4159 31.3337 18.6979C31.3337 18.98 31.5633 19.2096 31.8454 19.2096C32.1276 19.2096 32.3572 18.9801 32.3572 18.6979C32.3572 18.4157 32.1276 18.1863 31.8454 18.1863Z" fill="#A3A3A3"/>
</g>
<defs>
<clipPath id="clip0">
<rect x="13.8462" y="13.8458" width="23.0769" height="23.0769" fill="white"/>
</clipPath>
</defs>
</svg>
