<svg width="1749" height="850" viewBox="0 0 1749 850" fill="none" xmlns="http://www.w3.org/2000/svg">
<rect width="850" height="850" rx="425" fill="#F2C94C"/>
<path d="M521.876 451.404H485.986V656.243L620.962 575.842V192.674H235.174V396.335L339.976 321.479L416.048 375.77V353.951H452.014V401.424L521.876 451.404Z" fill="#333333"/>
<path d="M400.78 483.876H335.172V502.865H400.78V483.876Z" fill="#333333"/>
<path d="M400.78 509.778H335.172V558.106H400.78V509.778Z" fill="#333333"/>
<path d="M1215.37 204H1150.57V484H1194.57V378.8H1215.37C1259.37 378.8 1280.97 354.4 1280.97 309.6V273.2C1280.97 228.4 1259.37 204 1215.37 204ZM1215.37 244C1229.37 244 1236.97 250.4 1236.97 270.4V312.4C1236.97 332.4 1229.37 338.8 1215.37 338.8H1194.57V244H1215.37ZM1367.75 204H1301.35V484H1370.55C1414.55 484 1437.35 460.8 1437.35 417.6V394.8C1437.35 365.2 1428.15 344 1404.55 334.8C1424.15 325.6 1432.95 307.2 1432.95 278.4V268.4C1432.95 225.2 1413.35 204 1367.75 204ZM1364.95 358C1384.95 358 1393.35 366 1393.35 392V416.4C1393.35 437.2 1385.35 444 1370.55 444H1345.35V358H1364.95ZM1366.55 244C1382.15 244 1388.95 252.8 1388.95 272.8V288.4C1388.95 310.8 1378.95 318 1362.55 318H1345.35V244H1366.55ZM1451.05 244H1497.05V484H1541.05V244H1587.05V204H1451.05V244ZM1026.03 584.738H1013.24V632H999.365V526.781H1013.24V573.176H1024.08L1060.86 526.781H1078.13L1037.96 577.801L1081.1 632H1064.12L1026.03 584.738ZM1156.04 593.771C1156.04 605.671 1153.32 615.258 1147.87 622.533C1142.43 629.808 1135.06 633.445 1125.76 633.445C1116.27 633.445 1108.8 630.434 1103.36 624.412V662.062H1089.99V553.809H1102.2L1102.85 562.48C1108.29 555.736 1115.86 552.363 1125.54 552.363C1134.94 552.363 1142.35 555.904 1147.8 562.986C1153.29 570.068 1156.04 579.921 1156.04 592.543V593.771ZM1142.67 592.254C1142.67 583.438 1140.79 576.476 1137.03 571.369C1133.27 566.262 1128.12 563.709 1121.57 563.709C1113.47 563.709 1107.4 567.298 1103.36 574.477V611.838C1107.35 618.968 1113.47 622.533 1121.71 622.533C1128.12 622.533 1133.2 620.004 1136.96 614.945C1140.76 609.839 1142.67 602.275 1142.67 592.254ZM1221.37 632C1220.59 630.458 1219.97 627.712 1219.49 623.762C1213.27 630.217 1205.85 633.445 1197.23 633.445C1189.52 633.445 1183.18 631.277 1178.22 626.941C1173.31 622.557 1170.85 617.017 1170.85 610.32C1170.85 602.178 1173.93 595.867 1180.1 591.387C1186.32 586.858 1195.04 584.594 1206.26 584.594H1219.27V578.451C1219.27 573.778 1217.87 570.068 1215.08 567.322C1212.28 564.528 1208.16 563.131 1202.72 563.131C1197.95 563.131 1193.95 564.335 1190.72 566.744C1187.5 569.153 1185.88 572.068 1185.88 575.488H1172.44C1172.44 571.586 1173.81 567.828 1176.56 564.215C1179.35 560.553 1183.11 557.663 1187.83 555.543C1192.6 553.423 1197.83 552.363 1203.52 552.363C1212.52 552.363 1219.58 554.628 1224.69 559.156C1229.8 563.637 1232.45 569.827 1232.64 577.729V613.717C1232.64 620.895 1233.55 626.604 1235.38 630.844V632H1221.37ZM1199.18 621.811C1203.37 621.811 1207.35 620.727 1211.1 618.559C1214.86 616.391 1217.58 613.572 1219.27 610.104V594.061H1208.79C1192.41 594.061 1184.22 598.854 1184.22 608.441C1184.22 612.633 1185.62 615.909 1188.41 618.27C1191.21 620.63 1194.8 621.811 1199.18 621.811ZM1284.96 622.533C1289.73 622.533 1293.9 621.088 1297.46 618.197C1301.03 615.307 1303 611.693 1303.39 607.357H1316.03C1315.79 611.838 1314.25 616.102 1311.41 620.148C1308.57 624.195 1304.76 627.423 1299.99 629.832C1295.27 632.241 1290.26 633.445 1284.96 633.445C1274.31 633.445 1265.83 629.904 1259.52 622.822C1253.26 615.692 1250.13 605.96 1250.13 593.627V591.387C1250.13 583.775 1251.52 577.006 1254.32 571.08C1257.11 565.154 1261.11 560.553 1266.31 557.277C1271.57 554.001 1277.76 552.363 1284.89 552.363C1293.65 552.363 1300.93 554.989 1306.71 560.24C1312.54 565.492 1315.65 572.309 1316.03 580.691H1303.39C1303 575.633 1301.07 571.49 1297.61 568.262C1294.18 564.986 1289.95 563.348 1284.89 563.348C1278.09 563.348 1272.82 565.805 1269.06 570.719C1265.35 575.585 1263.5 582.643 1263.5 591.893V594.422C1263.5 603.431 1265.35 610.368 1269.06 615.234C1272.77 620.1 1278.07 622.533 1284.96 622.533ZM1394.95 632H1381.58V598.613H1345.66V632H1332.22V553.809H1345.66V587.701H1381.58V553.809H1394.95V632ZM1412.94 592.182C1412.94 584.521 1414.43 577.632 1417.42 571.514C1420.46 565.395 1424.65 560.674 1430 557.35C1435.39 554.025 1441.53 552.363 1448.42 552.363C1459.07 552.363 1467.67 556.049 1474.22 563.42C1480.82 570.791 1484.12 580.595 1484.12 592.832V593.771C1484.12 601.383 1482.65 608.225 1479.71 614.295C1476.82 620.317 1472.66 625.014 1467.21 628.387C1461.82 631.759 1455.6 633.445 1448.57 633.445C1437.97 633.445 1429.37 629.76 1422.77 622.389C1416.22 615.018 1412.94 605.262 1412.94 593.121V592.182ZM1426.38 593.771C1426.38 602.443 1428.38 609.405 1432.38 614.656C1436.43 619.908 1441.82 622.533 1448.57 622.533C1455.36 622.533 1460.76 619.883 1464.76 614.584C1468.75 609.236 1470.75 601.769 1470.75 592.182C1470.75 583.606 1468.71 576.669 1464.61 571.369C1460.56 566.021 1455.17 563.348 1448.42 563.348C1441.82 563.348 1436.5 565.973 1432.45 571.225C1428.41 576.476 1426.38 583.992 1426.38 593.771ZM1495.04 621.088L1499.66 615.379C1504.86 608.634 1507.83 598.517 1508.55 585.027L1509.78 553.809H1560.15V621.088H1570.19V654.98H1556.82V632H1502.26V654.98H1488.89L1488.96 621.088H1495.04ZM1510.86 621.088H1546.78V566.166H1522.71L1521.92 584.811C1521.1 600.372 1517.41 612.464 1510.86 621.088ZM1633.28 632C1632.51 630.458 1631.88 627.712 1631.4 623.762C1625.19 630.217 1617.77 633.445 1609.14 633.445C1601.43 633.445 1595.1 631.277 1590.14 626.941C1585.22 622.557 1582.77 617.017 1582.77 610.32C1582.77 602.178 1585.85 595.867 1592.02 591.387C1598.23 586.858 1606.95 584.594 1618.18 584.594H1631.18V578.451C1631.18 573.778 1629.79 570.068 1626.99 567.322C1624.2 564.528 1620.08 563.131 1614.63 563.131C1609.87 563.131 1605.87 564.335 1602.64 566.744C1599.41 569.153 1597.8 572.068 1597.8 575.488H1584.36C1584.36 571.586 1585.73 567.828 1588.47 564.215C1591.27 560.553 1595.03 557.663 1599.75 555.543C1604.52 553.423 1609.74 552.363 1615.43 552.363C1624.44 552.363 1631.5 554.628 1636.6 559.156C1641.71 563.637 1644.36 569.827 1644.55 577.729V613.717C1644.55 620.895 1645.47 626.604 1647.3 630.844V632H1633.28ZM1611.09 621.811C1615.29 621.811 1619.26 620.727 1623.02 618.559C1626.78 616.391 1629.5 613.572 1631.18 610.104V594.061H1620.71C1604.32 594.061 1596.13 598.854 1596.13 608.441C1596.13 612.633 1597.53 615.909 1600.33 618.27C1603.12 620.63 1606.71 621.811 1611.09 621.811ZM1731.56 593.771C1731.56 605.671 1728.84 615.258 1723.39 622.533C1717.95 629.808 1710.58 633.445 1701.28 633.445C1691.79 633.445 1684.32 630.434 1678.88 624.412V662.062H1665.51V553.809H1677.72L1678.37 562.48C1683.82 555.736 1691.38 552.363 1701.06 552.363C1710.46 552.363 1717.88 555.904 1723.32 562.986C1728.81 570.068 1731.56 579.921 1731.56 592.543V593.771ZM1718.19 592.254C1718.19 583.438 1716.31 576.476 1712.55 571.369C1708.8 566.262 1703.64 563.709 1697.09 563.709C1689 563.709 1682.93 567.298 1678.88 574.477V611.838C1682.88 618.968 1689 622.533 1697.23 622.533C1703.64 622.533 1708.72 620.004 1712.48 614.945C1716.29 609.839 1718.19 602.275 1718.19 592.254Z" fill="#333333"/>
</svg>
