<svg width="154" height="126" viewBox="0 0 154 126" fill="none" xmlns="http://www.w3.org/2000/svg">
<circle cx="122" cy="94" r="32" fill="#F7F7F7"/>
<g clip-path="url(#clip0)">
<g filter="url(#filter0_d)">
<path d="M92.515 50.2936C92.515 51.6312 93.5995 52.7155 94.9369 52.7155C96.2742 52.7155 97.3588 51.6312 97.3588 50.2936V45.4498C97.3588 44.1122 96.2742 43.028 94.9369 43.028C93.5995 43.028 92.515 44.1122 92.515 45.4498V50.2936Z" fill="#F2C94C"/>
</g>
<g filter="url(#filter1_d)">
<path d="M94.9369 36.3278C96.2742 36.3278 97.3588 35.2435 97.3588 33.9059V29.0621C97.3588 27.7245 96.2742 26.6403 94.9369 26.6403C93.5995 26.6403 92.515 27.7245 92.515 29.0621V33.9059C92.515 35.2435 93.5993 36.3278 94.9369 36.3278Z" fill="#F2C94C"/>
</g>
<g filter="url(#filter2_d)">
<path d="M102.687 50.2936C102.687 51.6312 103.771 52.7155 105.109 52.7155C106.446 52.7155 107.531 51.6312 107.531 50.2936V45.4498C107.531 44.1122 106.446 43.028 105.109 43.028C103.771 43.028 102.687 44.1122 102.687 45.4498V50.2936Z" fill="#F2C94C"/>
</g>
<g filter="url(#filter3_d)">
<path d="M105.109 36.3278C106.446 36.3278 107.531 35.2435 107.531 33.9059V29.0621C107.531 27.7245 106.446 26.6403 105.109 26.6403C103.771 26.6403 102.687 27.7245 102.687 29.0621V33.9059C102.687 35.2435 103.771 36.3278 105.109 36.3278Z" fill="#F2C94C"/>
</g>
<g filter="url(#filter4_d)">
<path d="M84.7652 52.7155C86.1026 52.7155 87.1871 51.6312 87.1871 50.2936V45.4498C87.1871 44.1122 86.1026 43.028 84.7652 43.028C83.4278 43.028 82.3433 44.1122 82.3433 45.4498V50.2936C82.3433 51.6309 83.4276 52.7155 84.7652 52.7155Z" fill="#F2C94C"/>
</g>
<g filter="url(#filter5_d)">
<path d="M84.7652 36.3278C86.1026 36.3278 87.1871 35.2435 87.1871 33.9059V29.0621C87.1871 27.7245 86.1026 26.6403 84.7652 26.6403C83.4278 26.6403 82.3433 27.7245 82.3433 29.0621V33.9059C82.3433 35.2435 83.4276 36.3278 84.7652 36.3278Z" fill="#F2C94C"/>
</g>
<g filter="url(#filter6_d)">
<path d="M62.0307 29.5662C66.3041 29.5662 69.7806 26.0897 69.7806 21.8164C69.7806 17.5431 66.3041 14.0665 62.0307 14.0665C57.7574 14.0665 54.2809 17.5431 54.2809 21.8164C54.2809 26.0897 57.7574 29.5662 62.0307 29.5662ZM62.0307 18.9102C63.6333 18.9102 64.9369 20.2139 64.9369 21.8164C64.9369 23.4189 63.6333 24.7226 62.0307 24.7226C60.4282 24.7226 59.1246 23.4189 59.1246 21.8164C59.1246 20.2139 60.4282 18.9102 62.0307 18.9102Z" fill="#F2C94C"/>
</g>
<g filter="url(#filter7_d)">
<path d="M37.7154 15.4997C41.9887 15.4997 45.4652 12.0232 45.4652 7.74985C45.4652 3.47653 41.9887 0 37.7154 0C33.442 0 29.9655 3.47653 29.9655 7.74985C29.9655 12.0232 33.4423 15.4997 37.7154 15.4997ZM37.7154 4.84366C39.3179 4.84366 40.6216 6.14733 40.6216 7.74985C40.6216 9.35237 39.3179 10.656 37.7154 10.656C36.1128 10.656 34.8092 9.35237 34.8092 7.74985C34.8092 6.14733 36.1128 4.84366 37.7154 4.84366Z" fill="#F2C94C"/>
</g>
<g filter="url(#filter8_d)">
<path d="M15.5009 28.5778C19.7742 28.5778 23.2507 25.1013 23.2507 20.828C23.2507 16.5547 19.7742 13.0781 15.5009 13.0781C11.2276 13.0781 7.75104 16.5547 7.75104 20.828C7.75104 25.1013 11.2276 28.5778 15.5009 28.5778ZM15.5009 17.9218C17.1034 17.9218 18.4071 19.2255 18.4071 20.828C18.4071 22.4305 17.1034 23.7342 15.5009 23.7342C13.8984 23.7342 12.5947 22.4305 12.5947 20.828C12.5947 19.2255 13.8984 17.9218 15.5009 17.9218Z" fill="#F2C94C"/>
</g>
<g filter="url(#filter9_d)">
<path d="M62 70.2329C61.363 70.2329 60.7382 70.492 60.2877 70.9425C59.8373 71.393 59.5781 72.0178 59.5781 72.6548C59.5781 73.2917 59.837 73.9166 60.2877 74.3671C60.7384 74.8175 61.363 75.0767 62 75.0767C62.637 75.0767 63.2618 74.8175 63.712 74.3671C64.1625 73.9166 64.4219 73.2917 64.4219 72.6548C64.4219 72.0178 64.1627 71.393 63.712 70.9425C63.2618 70.492 62.637 70.2329 62 70.2329Z" fill="#F2C94C"/>
</g>
<g filter="url(#filter10_d)">
<path d="M123.998 67.3268C123.998 63.8992 121.761 60.9862 118.67 59.9666V8.23421C118.67 3.69377 114.976 0 110.436 0H100.749C96.9823 0 93.801 2.54243 92.8248 6.00056C87.1512 7.00271 82.827 11.965 82.827 17.9215C82.827 19.2591 83.9115 20.3434 85.2488 20.3434H104.623C105.961 20.3434 107.045 19.2591 107.045 17.9215C107.045 12.314 103.213 7.58613 98.0312 6.21489C98.6498 5.38469 99.6359 4.84366 100.749 4.84366H110.436C112.305 4.84366 113.826 6.36456 113.826 8.23421V59.577H70.7779C69.8562 54.5478 66.1227 50.405 61.1865 48.9962C60.8329 47.3944 60.0311 45.9249 58.8402 44.7338C56.9205 42.8145 54.2039 41.9216 51.5605 42.2541C47.9304 37.9852 42.5752 35.48 36.9334 35.48C32.5387 35.48 28.2438 37.0041 24.8395 39.7715C22.0355 42.0509 19.927 45.0913 18.768 48.4814C15.2415 48.5078 11.8117 49.9146 9.28868 52.4376C7.23328 54.4933 5.92258 57.0946 5.48883 59.9146C2.31551 60.8845 0.000488281 63.8401 0.000488281 67.3268C0.000488281 70.7544 2.23801 73.6674 5.32851 74.687V89.5267C5.32851 96.8411 7.95111 103.554 12.3039 108.777L9.83165 113.059C7.8213 116.541 9.01865 121.009 12.5008 123.02C13.6245 123.668 14.8712 124 16.1349 124C16.7683 124 17.4059 123.916 18.0341 123.748C19.9157 123.244 21.4882 122.037 22.4617 120.351L24.1437 117.437C27.6338 118.855 31.447 119.638 35.4401 119.638H88.559C92.5022 119.638 96.2701 118.875 99.7246 117.491L101.376 120.351C102.35 122.037 103.922 123.244 105.803 123.748C106.432 123.916 107.069 124 107.703 124C108.966 124 110.213 123.668 111.337 123.02C113.024 122.046 114.23 120.473 114.734 118.592C115.238 116.711 114.98 114.745 114.006 113.059L111.599 108.89C116.009 103.651 118.67 96.8944 118.67 89.5267V74.687C121.761 73.6674 123.998 70.7544 123.998 67.3268ZM101.787 15.4997H88.0857C89.0852 12.6804 91.7788 10.656 94.9361 10.656C98.0935 10.656 100.787 12.6804 101.787 15.4997ZM12.7139 55.8624C14.6637 53.9125 17.4597 53.0024 20.191 53.4262C21.4557 53.6214 22.6511 52.8041 22.9274 51.5566C24.3684 45.0477 30.2588 40.3234 36.9334 40.3234C41.5607 40.3234 45.9312 42.5796 48.6245 46.3591C49.2493 47.2358 50.3776 47.5947 51.3946 47.2402C52.8126 46.7456 54.3536 47.097 55.4153 48.1588C56.1629 48.9064 56.5652 49.902 56.5482 50.9623C56.5286 52.1899 57.4305 53.2381 58.6472 53.4015C62.1005 53.8656 64.8684 56.3593 65.81 59.577H10.5127C10.9142 58.1873 11.6626 56.9134 12.7139 55.8624ZM18.2669 117.929C17.9397 118.495 17.412 118.9 16.7801 119.07C16.1488 119.239 15.489 119.152 14.9223 118.825C14.3559 118.498 13.9509 117.97 13.7817 117.339C13.6124 116.707 13.6993 116.047 14.0263 115.481L15.8293 112.358C17.0727 113.427 18.4035 114.398 19.8103 115.256L18.2669 117.929ZM110.055 117.339C109.886 117.97 109.481 118.498 108.915 118.825C107.746 119.5 106.245 119.098 105.57 117.929L104.068 115.327C105.478 114.476 106.813 113.513 108.06 112.45L109.811 115.481C110.138 116.047 110.225 116.707 110.055 117.339ZM116.248 70.233H72.8968C71.5594 70.233 70.4749 71.3172 70.4749 72.6548C70.4749 73.9924 71.5594 75.0767 72.8968 75.0767H113.826V89.527C113.826 103.46 102.491 114.795 88.5587 114.795H35.4398C21.5073 114.795 10.1722 103.459 10.1722 89.527V75.0767H51.102C52.4394 75.0767 53.5238 73.9924 53.5238 72.6548C53.5238 71.3172 52.4394 70.233 51.102 70.233H7.75034C6.14781 70.233 4.84414 68.9293 4.84414 67.3268C4.84414 65.7243 6.14781 64.4206 7.75034 64.4206H116.248C117.851 64.4206 119.154 65.7243 119.154 67.3268C119.154 68.9293 117.851 70.233 116.248 70.233Z" fill="#F2C94C"/>
</g>
</g>
<defs>
<filter id="filter0_d" x="84.515" y="35.028" width="20.8438" height="25.6875" filterUnits="userSpaceOnUse" color-interpolation-filters="sRGB">
<feFlood flood-opacity="0" result="BackgroundImageFix"/>
<feColorMatrix in="SourceAlpha" type="matrix" values="0 0 0 0 0 0 0 0 0 0 0 0 0 0 0 0 0 0 127 0"/>
<feOffset/>
<feGaussianBlur stdDeviation="4"/>
<feColorMatrix type="matrix" values="0 0 0 0 0.94902 0 0 0 0 0.788235 0 0 0 0 0.298039 0 0 0 0.25 0"/>
<feBlend mode="normal" in2="BackgroundImageFix" result="effect1_dropShadow"/>
<feBlend mode="normal" in="SourceGraphic" in2="effect1_dropShadow" result="shape"/>
</filter>
<filter id="filter1_d" x="84.515" y="18.6403" width="20.8438" height="25.6875" filterUnits="userSpaceOnUse" color-interpolation-filters="sRGB">
<feFlood flood-opacity="0" result="BackgroundImageFix"/>
<feColorMatrix in="SourceAlpha" type="matrix" values="0 0 0 0 0 0 0 0 0 0 0 0 0 0 0 0 0 0 127 0"/>
<feOffset/>
<feGaussianBlur stdDeviation="4"/>
<feColorMatrix type="matrix" values="0 0 0 0 0.94902 0 0 0 0 0.788235 0 0 0 0 0.298039 0 0 0 0.25 0"/>
<feBlend mode="normal" in2="BackgroundImageFix" result="effect1_dropShadow"/>
<feBlend mode="normal" in="SourceGraphic" in2="effect1_dropShadow" result="shape"/>
</filter>
<filter id="filter2_d" x="94.6868" y="35.028" width="20.8438" height="25.6875" filterUnits="userSpaceOnUse" color-interpolation-filters="sRGB">
<feFlood flood-opacity="0" result="BackgroundImageFix"/>
<feColorMatrix in="SourceAlpha" type="matrix" values="0 0 0 0 0 0 0 0 0 0 0 0 0 0 0 0 0 0 127 0"/>
<feOffset/>
<feGaussianBlur stdDeviation="4"/>
<feColorMatrix type="matrix" values="0 0 0 0 0.94902 0 0 0 0 0.788235 0 0 0 0 0.298039 0 0 0 0.25 0"/>
<feBlend mode="normal" in2="BackgroundImageFix" result="effect1_dropShadow"/>
<feBlend mode="normal" in="SourceGraphic" in2="effect1_dropShadow" result="shape"/>
</filter>
<filter id="filter3_d" x="94.6868" y="18.6403" width="20.8438" height="25.6875" filterUnits="userSpaceOnUse" color-interpolation-filters="sRGB">
<feFlood flood-opacity="0" result="BackgroundImageFix"/>
<feColorMatrix in="SourceAlpha" type="matrix" values="0 0 0 0 0 0 0 0 0 0 0 0 0 0 0 0 0 0 127 0"/>
<feOffset/>
<feGaussianBlur stdDeviation="4"/>
<feColorMatrix type="matrix" values="0 0 0 0 0.94902 0 0 0 0 0.788235 0 0 0 0 0.298039 0 0 0 0.25 0"/>
<feBlend mode="normal" in2="BackgroundImageFix" result="effect1_dropShadow"/>
<feBlend mode="normal" in="SourceGraphic" in2="effect1_dropShadow" result="shape"/>
</filter>
<filter id="filter4_d" x="74.3433" y="35.028" width="20.8438" height="25.6875" filterUnits="userSpaceOnUse" color-interpolation-filters="sRGB">
<feFlood flood-opacity="0" result="BackgroundImageFix"/>
<feColorMatrix in="SourceAlpha" type="matrix" values="0 0 0 0 0 0 0 0 0 0 0 0 0 0 0 0 0 0 127 0"/>
<feOffset/>
<feGaussianBlur stdDeviation="4"/>
<feColorMatrix type="matrix" values="0 0 0 0 0.94902 0 0 0 0 0.788235 0 0 0 0 0.298039 0 0 0 0.25 0"/>
<feBlend mode="normal" in2="BackgroundImageFix" result="effect1_dropShadow"/>
<feBlend mode="normal" in="SourceGraphic" in2="effect1_dropShadow" result="shape"/>
</filter>
<filter id="filter5_d" x="74.3433" y="18.6403" width="20.8438" height="25.6875" filterUnits="userSpaceOnUse" color-interpolation-filters="sRGB">
<feFlood flood-opacity="0" result="BackgroundImageFix"/>
<feColorMatrix in="SourceAlpha" type="matrix" values="0 0 0 0 0 0 0 0 0 0 0 0 0 0 0 0 0 0 127 0"/>
<feOffset/>
<feGaussianBlur stdDeviation="4"/>
<feColorMatrix type="matrix" values="0 0 0 0 0.94902 0 0 0 0 0.788235 0 0 0 0 0.298039 0 0 0 0.25 0"/>
<feBlend mode="normal" in2="BackgroundImageFix" result="effect1_dropShadow"/>
<feBlend mode="normal" in="SourceGraphic" in2="effect1_dropShadow" result="shape"/>
</filter>
<filter id="filter6_d" x="46.2809" y="6.06653" width="31.4997" height="31.4997" filterUnits="userSpaceOnUse" color-interpolation-filters="sRGB">
<feFlood flood-opacity="0" result="BackgroundImageFix"/>
<feColorMatrix in="SourceAlpha" type="matrix" values="0 0 0 0 0 0 0 0 0 0 0 0 0 0 0 0 0 0 127 0"/>
<feOffset/>
<feGaussianBlur stdDeviation="4"/>
<feColorMatrix type="matrix" values="0 0 0 0 0.94902 0 0 0 0 0.788235 0 0 0 0 0.298039 0 0 0 0.25 0"/>
<feBlend mode="normal" in2="BackgroundImageFix" result="effect1_dropShadow"/>
<feBlend mode="normal" in="SourceGraphic" in2="effect1_dropShadow" result="shape"/>
</filter>
<filter id="filter7_d" x="21.9655" y="-8" width="31.4997" height="31.4997" filterUnits="userSpaceOnUse" color-interpolation-filters="sRGB">
<feFlood flood-opacity="0" result="BackgroundImageFix"/>
<feColorMatrix in="SourceAlpha" type="matrix" values="0 0 0 0 0 0 0 0 0 0 0 0 0 0 0 0 0 0 127 0"/>
<feOffset/>
<feGaussianBlur stdDeviation="4"/>
<feColorMatrix type="matrix" values="0 0 0 0 0.94902 0 0 0 0 0.788235 0 0 0 0 0.298039 0 0 0 0.25 0"/>
<feBlend mode="normal" in2="BackgroundImageFix" result="effect1_dropShadow"/>
<feBlend mode="normal" in="SourceGraphic" in2="effect1_dropShadow" result="shape"/>
</filter>
<filter id="filter8_d" x="-0.248962" y="5.07812" width="31.4997" height="31.4997" filterUnits="userSpaceOnUse" color-interpolation-filters="sRGB">
<feFlood flood-opacity="0" result="BackgroundImageFix"/>
<feColorMatrix in="SourceAlpha" type="matrix" values="0 0 0 0 0 0 0 0 0 0 0 0 0 0 0 0 0 0 127 0"/>
<feOffset/>
<feGaussianBlur stdDeviation="4"/>
<feColorMatrix type="matrix" values="0 0 0 0 0.94902 0 0 0 0 0.788235 0 0 0 0 0.298039 0 0 0 0.25 0"/>
<feBlend mode="normal" in2="BackgroundImageFix" result="effect1_dropShadow"/>
<feBlend mode="normal" in="SourceGraphic" in2="effect1_dropShadow" result="shape"/>
</filter>
<filter id="filter9_d" x="51.5781" y="62.2329" width="20.8437" height="20.8438" filterUnits="userSpaceOnUse" color-interpolation-filters="sRGB">
<feFlood flood-opacity="0" result="BackgroundImageFix"/>
<feColorMatrix in="SourceAlpha" type="matrix" values="0 0 0 0 0 0 0 0 0 0 0 0 0 0 0 0 0 0 127 0"/>
<feOffset/>
<feGaussianBlur stdDeviation="4"/>
<feColorMatrix type="matrix" values="0 0 0 0 0.94902 0 0 0 0 0.788235 0 0 0 0 0.298039 0 0 0 0.25 0"/>
<feBlend mode="normal" in2="BackgroundImageFix" result="effect1_dropShadow"/>
<feBlend mode="normal" in="SourceGraphic" in2="effect1_dropShadow" result="shape"/>
</filter>
<filter id="filter10_d" x="-7.99951" y="-8" width="139.998" height="140" filterUnits="userSpaceOnUse" color-interpolation-filters="sRGB">
<feFlood flood-opacity="0" result="BackgroundImageFix"/>
<feColorMatrix in="SourceAlpha" type="matrix" values="0 0 0 0 0 0 0 0 0 0 0 0 0 0 0 0 0 0 127 0"/>
<feOffset/>
<feGaussianBlur stdDeviation="4"/>
<feColorMatrix type="matrix" values="0 0 0 0 0.94902 0 0 0 0 0.788235 0 0 0 0 0.298039 0 0 0 0.25 0"/>
<feBlend mode="normal" in2="BackgroundImageFix" result="effect1_dropShadow"/>
<feBlend mode="normal" in="SourceGraphic" in2="effect1_dropShadow" result="shape"/>
</filter>
<clipPath id="clip0">
<rect width="124" height="124" fill="white"/>
</clipPath>
</defs>
</svg>
