<svg width="149" height="123" viewBox="0 0 149 123" fill="none" xmlns="http://www.w3.org/2000/svg">
<g clip-path="url(#clip0)">
<circle cx="117" cy="91" r="32" fill="#F7F7F7"/>
<g filter="url(#filter0_d)">
<path d="M108.031 117.188L104.991 106.396C112.844 102.125 118.188 93.7999 118.188 84.25V82.3125C120.325 82.3125 122.062 80.5746 122.062 78.4375V74.5625C122.062 72.4254 120.325 70.6875 118.188 70.6875V51.3125C120.325 51.3125 122.062 49.5746 122.062 47.4375V43.5625C122.062 41.4254 120.325 39.6875 118.188 39.6875H67.8125C65.6754 39.6875 63.9375 41.4254 63.9375 43.5625V47.4375C63.9375 49.5746 65.6754 51.3125 67.8125 51.3125V70.6875C65.6754 70.6875 63.9375 72.4254 63.9375 74.5625V78.4375C63.9375 80.5746 65.6754 82.3125 67.8125 82.3125V84.25C67.8125 93.7999 73.1561 102.125 81.0088 106.396L77.9689 117.188H52.1168C51.2159 112.772 47.3041 109.438 42.625 109.438H40.6875V91.9942C49.7802 88.1909 56.1875 79.2067 56.1875 68.75V55.1875H21.3125V47.4375H29.0625V51.3125H32.9375V47.4375C32.9375 45.3004 31.1996 43.5625 29.0625 43.5625H17.4375H15.5H13.5625C11.4254 43.5625 9.6875 45.3004 9.6875 47.4375V55.1875H5.8125V68.75C5.8125 79.2067 12.2198 88.1909 21.3125 91.9942V109.438H19.375C14.6979 109.438 10.7841 112.772 9.88319 117.188H0V121.062H124V117.188H108.031ZM67.8106 43.5625H118.188V47.4375H67.8125L67.8106 43.5625ZM71.6875 59.0625H79.4375V55.1875H71.6875V51.3125H114.312V70.6875H71.6875V59.0625ZM67.8106 74.5625H118.188V78.4375H67.8125L67.8106 74.5625ZM71.6875 84.25V82.3125H114.312V84.25C114.312 96.0009 104.751 105.562 93 105.562C81.2491 105.562 71.6875 96.0009 71.6875 84.25ZM84.5932 107.965C87.2282 108.901 90.0492 109.438 93 109.438C95.9508 109.438 98.7718 108.901 101.407 107.965L104.003 117.188H81.9969L84.5932 107.965ZM13.5625 47.4375H15.5H17.4375V55.1875H13.5625V47.4375ZM52.3125 59.0625V62.9375H9.6875V59.0625H52.3125ZM9.6875 68.75V66.8125H52.3125V68.75C52.3125 80.5009 42.7509 90.0625 31 90.0625C19.2491 90.0625 9.6875 80.5009 9.6875 68.75ZM25.1875 93.2342C27.0572 93.6779 28.9966 93.9375 31 93.9375C33.0034 93.9375 34.9428 93.6779 36.8125 93.2342V109.438H25.1875V93.2342ZM19.375 113.312H42.625C45.1476 113.312 47.2789 114.938 48.081 117.188H13.919C14.7211 114.938 16.8524 113.312 19.375 113.312Z" fill="#F2C94C"/>
</g>
<g filter="url(#filter1_d)">
<path d="M7.75 39.6875H54.25C57.4546 39.6875 60.0625 37.0796 60.0625 33.875V6.75C60.0625 3.54537 57.4546 0.9375 54.25 0.9375H7.75C4.54537 0.9375 1.9375 3.54537 1.9375 6.75V33.875C1.9375 37.0796 4.54537 39.6875 7.75 39.6875ZM5.8125 6.75C5.8125 5.68244 6.6805 4.8125 7.75 4.8125H54.25C55.3195 4.8125 56.1875 5.68244 56.1875 6.75V33.875C56.1875 34.9426 55.3195 35.8125 54.25 35.8125H7.75C6.6805 35.8125 5.8125 34.9426 5.8125 33.875V6.75Z" fill="#F2C94C"/>
</g>
<g filter="url(#filter2_d)">
<path d="M8.31604 10.0594L11.0557 7.31982L34.3028 30.5669L31.5631 33.3065L8.31604 10.0594Z" fill="#F2C94C"/>
</g>
<g filter="url(#filter3_d)">
<path d="M27.689 10.0614L30.4286 7.32178L53.6757 30.5689L50.9361 33.3085L27.689 10.0614Z" fill="#F2C94C"/>
</g>
<g filter="url(#filter4_d)">
<path d="M67.8125 16.4375H71.6875V20.3125H67.8125V16.4375Z" fill="#F2C94C"/>
</g>
<g filter="url(#filter5_d)">
<path d="M67.8125 24.1875H71.6875V28.0625H67.8125V24.1875Z" fill="#F2C94C"/>
</g>
<g filter="url(#filter6_d)">
<path d="M71.6875 20.3125H75.5625V24.1875H71.6875V20.3125Z" fill="#F2C94C"/>
</g>
<g filter="url(#filter7_d)">
<path d="M63.9375 20.3125H67.8125V24.1875H63.9375V20.3125Z" fill="#F2C94C"/>
</g>
<g filter="url(#filter8_d)">
<path d="M87.1875 4.8125H91.0625V8.6875H87.1875V4.8125Z" fill="#F2C94C"/>
</g>
<g filter="url(#filter9_d)">
<path d="M87.1875 12.5625H91.0625V16.4375H87.1875V12.5625Z" fill="#F2C94C"/>
</g>
<g filter="url(#filter10_d)">
<path d="M91.0625 8.6875H94.9375V12.5625H91.0625V8.6875Z" fill="#F2C94C"/>
</g>
<g filter="url(#filter11_d)">
<path d="M83.3125 8.6875H87.1875V12.5625H83.3125V8.6875Z" fill="#F2C94C"/>
</g>
<g filter="url(#filter12_d)">
<path d="M106.562 24.1875H110.438V28.0625H106.562V24.1875Z" fill="#F2C94C"/>
</g>
<g filter="url(#filter13_d)">
<path d="M106.562 31.9375H110.438V35.8125H106.562V31.9375Z" fill="#F2C94C"/>
</g>
<g filter="url(#filter14_d)">
<path d="M110.438 28.0625H114.312V31.9375H110.438V28.0625Z" fill="#F2C94C"/>
</g>
<g filter="url(#filter15_d)">
<path d="M102.688 28.0625H106.562V31.9375H102.688V28.0625Z" fill="#F2C94C"/>
</g>
</g>
<defs>
<filter id="filter0_d" x="-8" y="31.6875" width="140" height="97.375" filterUnits="userSpaceOnUse" color-interpolation-filters="sRGB">
<feFlood flood-opacity="0" result="BackgroundImageFix"/>
<feColorMatrix in="SourceAlpha" type="matrix" values="0 0 0 0 0 0 0 0 0 0 0 0 0 0 0 0 0 0 127 0"/>
<feOffset/>
<feGaussianBlur stdDeviation="4"/>
<feColorMatrix type="matrix" values="0 0 0 0 0.94902 0 0 0 0 0.788235 0 0 0 0 0.298039 0 0 0 0.25 0"/>
<feBlend mode="normal" in2="BackgroundImageFix" result="effect1_dropShadow"/>
<feBlend mode="normal" in="SourceGraphic" in2="effect1_dropShadow" result="shape"/>
</filter>
<filter id="filter1_d" x="-6.0625" y="-7.0625" width="74.125" height="54.75" filterUnits="userSpaceOnUse" color-interpolation-filters="sRGB">
<feFlood flood-opacity="0" result="BackgroundImageFix"/>
<feColorMatrix in="SourceAlpha" type="matrix" values="0 0 0 0 0 0 0 0 0 0 0 0 0 0 0 0 0 0 127 0"/>
<feOffset/>
<feGaussianBlur stdDeviation="4"/>
<feColorMatrix type="matrix" values="0 0 0 0 0.94902 0 0 0 0 0.788235 0 0 0 0 0.298039 0 0 0 0.25 0"/>
<feBlend mode="normal" in2="BackgroundImageFix" result="effect1_dropShadow"/>
<feBlend mode="normal" in="SourceGraphic" in2="effect1_dropShadow" result="shape"/>
</filter>
<filter id="filter2_d" x="0.31604" y="-0.680176" width="41.9867" height="41.9867" filterUnits="userSpaceOnUse" color-interpolation-filters="sRGB">
<feFlood flood-opacity="0" result="BackgroundImageFix"/>
<feColorMatrix in="SourceAlpha" type="matrix" values="0 0 0 0 0 0 0 0 0 0 0 0 0 0 0 0 0 0 127 0"/>
<feOffset/>
<feGaussianBlur stdDeviation="4"/>
<feColorMatrix type="matrix" values="0 0 0 0 0.94902 0 0 0 0 0.788235 0 0 0 0 0.298039 0 0 0 0.25 0"/>
<feBlend mode="normal" in2="BackgroundImageFix" result="effect1_dropShadow"/>
<feBlend mode="normal" in="SourceGraphic" in2="effect1_dropShadow" result="shape"/>
</filter>
<filter id="filter3_d" x="19.689" y="-0.678223" width="41.9867" height="41.9867" filterUnits="userSpaceOnUse" color-interpolation-filters="sRGB">
<feFlood flood-opacity="0" result="BackgroundImageFix"/>
<feColorMatrix in="SourceAlpha" type="matrix" values="0 0 0 0 0 0 0 0 0 0 0 0 0 0 0 0 0 0 127 0"/>
<feOffset/>
<feGaussianBlur stdDeviation="4"/>
<feColorMatrix type="matrix" values="0 0 0 0 0.94902 0 0 0 0 0.788235 0 0 0 0 0.298039 0 0 0 0.25 0"/>
<feBlend mode="normal" in2="BackgroundImageFix" result="effect1_dropShadow"/>
<feBlend mode="normal" in="SourceGraphic" in2="effect1_dropShadow" result="shape"/>
</filter>
<filter id="filter4_d" x="59.8125" y="8.4375" width="19.875" height="19.875" filterUnits="userSpaceOnUse" color-interpolation-filters="sRGB">
<feFlood flood-opacity="0" result="BackgroundImageFix"/>
<feColorMatrix in="SourceAlpha" type="matrix" values="0 0 0 0 0 0 0 0 0 0 0 0 0 0 0 0 0 0 127 0"/>
<feOffset/>
<feGaussianBlur stdDeviation="4"/>
<feColorMatrix type="matrix" values="0 0 0 0 0.94902 0 0 0 0 0.788235 0 0 0 0 0.298039 0 0 0 0.25 0"/>
<feBlend mode="normal" in2="BackgroundImageFix" result="effect1_dropShadow"/>
<feBlend mode="normal" in="SourceGraphic" in2="effect1_dropShadow" result="shape"/>
</filter>
<filter id="filter5_d" x="59.8125" y="16.1875" width="19.875" height="19.875" filterUnits="userSpaceOnUse" color-interpolation-filters="sRGB">
<feFlood flood-opacity="0" result="BackgroundImageFix"/>
<feColorMatrix in="SourceAlpha" type="matrix" values="0 0 0 0 0 0 0 0 0 0 0 0 0 0 0 0 0 0 127 0"/>
<feOffset/>
<feGaussianBlur stdDeviation="4"/>
<feColorMatrix type="matrix" values="0 0 0 0 0.94902 0 0 0 0 0.788235 0 0 0 0 0.298039 0 0 0 0.25 0"/>
<feBlend mode="normal" in2="BackgroundImageFix" result="effect1_dropShadow"/>
<feBlend mode="normal" in="SourceGraphic" in2="effect1_dropShadow" result="shape"/>
</filter>
<filter id="filter6_d" x="63.6875" y="12.3125" width="19.875" height="19.875" filterUnits="userSpaceOnUse" color-interpolation-filters="sRGB">
<feFlood flood-opacity="0" result="BackgroundImageFix"/>
<feColorMatrix in="SourceAlpha" type="matrix" values="0 0 0 0 0 0 0 0 0 0 0 0 0 0 0 0 0 0 127 0"/>
<feOffset/>
<feGaussianBlur stdDeviation="4"/>
<feColorMatrix type="matrix" values="0 0 0 0 0.94902 0 0 0 0 0.788235 0 0 0 0 0.298039 0 0 0 0.25 0"/>
<feBlend mode="normal" in2="BackgroundImageFix" result="effect1_dropShadow"/>
<feBlend mode="normal" in="SourceGraphic" in2="effect1_dropShadow" result="shape"/>
</filter>
<filter id="filter7_d" x="55.9375" y="12.3125" width="19.875" height="19.875" filterUnits="userSpaceOnUse" color-interpolation-filters="sRGB">
<feFlood flood-opacity="0" result="BackgroundImageFix"/>
<feColorMatrix in="SourceAlpha" type="matrix" values="0 0 0 0 0 0 0 0 0 0 0 0 0 0 0 0 0 0 127 0"/>
<feOffset/>
<feGaussianBlur stdDeviation="4"/>
<feColorMatrix type="matrix" values="0 0 0 0 0.94902 0 0 0 0 0.788235 0 0 0 0 0.298039 0 0 0 0.25 0"/>
<feBlend mode="normal" in2="BackgroundImageFix" result="effect1_dropShadow"/>
<feBlend mode="normal" in="SourceGraphic" in2="effect1_dropShadow" result="shape"/>
</filter>
<filter id="filter8_d" x="79.1875" y="-3.1875" width="19.875" height="19.875" filterUnits="userSpaceOnUse" color-interpolation-filters="sRGB">
<feFlood flood-opacity="0" result="BackgroundImageFix"/>
<feColorMatrix in="SourceAlpha" type="matrix" values="0 0 0 0 0 0 0 0 0 0 0 0 0 0 0 0 0 0 127 0"/>
<feOffset/>
<feGaussianBlur stdDeviation="4"/>
<feColorMatrix type="matrix" values="0 0 0 0 0.94902 0 0 0 0 0.788235 0 0 0 0 0.298039 0 0 0 0.25 0"/>
<feBlend mode="normal" in2="BackgroundImageFix" result="effect1_dropShadow"/>
<feBlend mode="normal" in="SourceGraphic" in2="effect1_dropShadow" result="shape"/>
</filter>
<filter id="filter9_d" x="79.1875" y="4.5625" width="19.875" height="19.875" filterUnits="userSpaceOnUse" color-interpolation-filters="sRGB">
<feFlood flood-opacity="0" result="BackgroundImageFix"/>
<feColorMatrix in="SourceAlpha" type="matrix" values="0 0 0 0 0 0 0 0 0 0 0 0 0 0 0 0 0 0 127 0"/>
<feOffset/>
<feGaussianBlur stdDeviation="4"/>
<feColorMatrix type="matrix" values="0 0 0 0 0.94902 0 0 0 0 0.788235 0 0 0 0 0.298039 0 0 0 0.25 0"/>
<feBlend mode="normal" in2="BackgroundImageFix" result="effect1_dropShadow"/>
<feBlend mode="normal" in="SourceGraphic" in2="effect1_dropShadow" result="shape"/>
</filter>
<filter id="filter10_d" x="83.0625" y="0.6875" width="19.875" height="19.875" filterUnits="userSpaceOnUse" color-interpolation-filters="sRGB">
<feFlood flood-opacity="0" result="BackgroundImageFix"/>
<feColorMatrix in="SourceAlpha" type="matrix" values="0 0 0 0 0 0 0 0 0 0 0 0 0 0 0 0 0 0 127 0"/>
<feOffset/>
<feGaussianBlur stdDeviation="4"/>
<feColorMatrix type="matrix" values="0 0 0 0 0.94902 0 0 0 0 0.788235 0 0 0 0 0.298039 0 0 0 0.25 0"/>
<feBlend mode="normal" in2="BackgroundImageFix" result="effect1_dropShadow"/>
<feBlend mode="normal" in="SourceGraphic" in2="effect1_dropShadow" result="shape"/>
</filter>
<filter id="filter11_d" x="75.3125" y="0.6875" width="19.875" height="19.875" filterUnits="userSpaceOnUse" color-interpolation-filters="sRGB">
<feFlood flood-opacity="0" result="BackgroundImageFix"/>
<feColorMatrix in="SourceAlpha" type="matrix" values="0 0 0 0 0 0 0 0 0 0 0 0 0 0 0 0 0 0 127 0"/>
<feOffset/>
<feGaussianBlur stdDeviation="4"/>
<feColorMatrix type="matrix" values="0 0 0 0 0.94902 0 0 0 0 0.788235 0 0 0 0 0.298039 0 0 0 0.25 0"/>
<feBlend mode="normal" in2="BackgroundImageFix" result="effect1_dropShadow"/>
<feBlend mode="normal" in="SourceGraphic" in2="effect1_dropShadow" result="shape"/>
</filter>
<filter id="filter12_d" x="98.5625" y="16.1875" width="19.875" height="19.875" filterUnits="userSpaceOnUse" color-interpolation-filters="sRGB">
<feFlood flood-opacity="0" result="BackgroundImageFix"/>
<feColorMatrix in="SourceAlpha" type="matrix" values="0 0 0 0 0 0 0 0 0 0 0 0 0 0 0 0 0 0 127 0"/>
<feOffset/>
<feGaussianBlur stdDeviation="4"/>
<feColorMatrix type="matrix" values="0 0 0 0 0.94902 0 0 0 0 0.788235 0 0 0 0 0.298039 0 0 0 0.25 0"/>
<feBlend mode="normal" in2="BackgroundImageFix" result="effect1_dropShadow"/>
<feBlend mode="normal" in="SourceGraphic" in2="effect1_dropShadow" result="shape"/>
</filter>
<filter id="filter13_d" x="98.5625" y="23.9375" width="19.875" height="19.875" filterUnits="userSpaceOnUse" color-interpolation-filters="sRGB">
<feFlood flood-opacity="0" result="BackgroundImageFix"/>
<feColorMatrix in="SourceAlpha" type="matrix" values="0 0 0 0 0 0 0 0 0 0 0 0 0 0 0 0 0 0 127 0"/>
<feOffset/>
<feGaussianBlur stdDeviation="4"/>
<feColorMatrix type="matrix" values="0 0 0 0 0.94902 0 0 0 0 0.788235 0 0 0 0 0.298039 0 0 0 0.25 0"/>
<feBlend mode="normal" in2="BackgroundImageFix" result="effect1_dropShadow"/>
<feBlend mode="normal" in="SourceGraphic" in2="effect1_dropShadow" result="shape"/>
</filter>
<filter id="filter14_d" x="102.438" y="20.0625" width="19.875" height="19.875" filterUnits="userSpaceOnUse" color-interpolation-filters="sRGB">
<feFlood flood-opacity="0" result="BackgroundImageFix"/>
<feColorMatrix in="SourceAlpha" type="matrix" values="0 0 0 0 0 0 0 0 0 0 0 0 0 0 0 0 0 0 127 0"/>
<feOffset/>
<feGaussianBlur stdDeviation="4"/>
<feColorMatrix type="matrix" values="0 0 0 0 0.94902 0 0 0 0 0.788235 0 0 0 0 0.298039 0 0 0 0.25 0"/>
<feBlend mode="normal" in2="BackgroundImageFix" result="effect1_dropShadow"/>
<feBlend mode="normal" in="SourceGraphic" in2="effect1_dropShadow" result="shape"/>
</filter>
<filter id="filter15_d" x="94.6875" y="20.0625" width="19.875" height="19.875" filterUnits="userSpaceOnUse" color-interpolation-filters="sRGB">
<feFlood flood-opacity="0" result="BackgroundImageFix"/>
<feColorMatrix in="SourceAlpha" type="matrix" values="0 0 0 0 0 0 0 0 0 0 0 0 0 0 0 0 0 0 127 0"/>
<feOffset/>
<feGaussianBlur stdDeviation="4"/>
<feColorMatrix type="matrix" values="0 0 0 0 0.94902 0 0 0 0 0.788235 0 0 0 0 0.298039 0 0 0 0.25 0"/>
<feBlend mode="normal" in2="BackgroundImageFix" result="effect1_dropShadow"/>
<feBlend mode="normal" in="SourceGraphic" in2="effect1_dropShadow" result="shape"/>
</filter>
<clipPath id="clip0">
<rect width="149" height="123" fill="white"/>
</clipPath>
</defs>
</svg>
