<svg width="128" height="124" viewBox="0 0 128 124" fill="none" xmlns="http://www.w3.org/2000/svg">
<circle cx="96" cy="92" r="32" fill="#F7F7F7"/>
<g clip-path="url(#clip0)">
<g filter="url(#filter0_d)">
<path d="M95.9062 62.9688C99.9128 62.9688 103.172 59.7096 103.172 55.7031V14.5312H105.594C106.931 14.5312 108.016 13.4471 108.016 12.1094V2.42188C108.016 1.08417 106.931 0 105.594 0H18.4062C17.0685 0 15.9844 1.08417 15.9844 2.42188V12.1094C15.9844 13.4471 17.0685 14.5312 18.4062 14.5312H20.8281V26.6406C20.8281 27.9783 21.9123 29.0625 23.25 29.0625C24.5877 29.0625 25.6719 27.9783 25.6719 26.6406V14.5312H98.3281V55.7031C98.3281 57.0389 97.2421 58.125 95.9062 58.125H93.4295C92.5648 38.4719 80.2861 19.375 62 19.375C43.379 19.375 31.4153 38.9241 30.5705 58.125H28.0938C26.7579 58.125 25.6719 57.0389 25.6719 55.7031V46.0156C25.6719 44.6779 24.5877 43.5938 23.25 43.5938C21.9123 43.5938 20.8281 44.6779 20.8281 46.0156V55.7031C20.8281 59.7096 24.0872 62.9688 28.0938 62.9688H30.5667C30.719 66.7927 31.2166 70.7982 31.9508 74.1784C28.4097 74.6609 25.6719 77.7034 25.6719 81.375V86.2188C25.6719 87.5565 26.756 88.6406 28.0938 88.6406H31.3595C33.2223 96.5969 38.0575 103.84 44.6855 108.595L40.3441 120.765C40.0792 121.506 40.1918 122.33 40.6459 122.974C41.099 123.617 41.8379 124 42.625 124H81.375C82.1621 124 82.901 123.617 83.3541 122.974C83.8082 122.33 83.9208 121.506 83.6559 120.765L79.3145 108.595C85.9435 103.839 90.7777 96.5959 92.6405 88.6406H95.9062C97.244 88.6406 98.3281 87.5565 98.3281 86.2188V81.375C98.3281 77.7034 95.5903 74.6609 92.0492 74.1784C92.7834 70.7982 93.28 66.7927 93.4333 62.9688H95.9062ZM20.8281 9.6875V4.84375H103.172V9.6875H20.8281ZM62 24.2188C76.6892 24.2188 88.6406 40.5153 88.6406 60.5469C88.6406 65.104 88.0493 70.2107 87.0986 74.1094H82.0221C83.1261 70.0527 83.7969 65.0737 83.7969 60.5469C83.7969 46.2219 75.7706 29.0625 62 29.0625C48.4176 29.0625 40.2031 45.9087 40.2031 60.5469C40.2031 65.0737 40.8739 70.0527 41.9779 74.1094H36.9014C35.9507 70.2107 35.3594 65.104 35.3594 60.5469C35.3594 40.5153 47.3108 24.2188 62 24.2188ZM78.9531 60.5469C78.9531 65.1115 78.1793 70.3242 76.9778 74.1094H47.0222C45.8207 70.3252 45.0469 65.1115 45.0469 60.5469C45.0469 49.499 51.077 33.9062 62 33.9062C72.9088 33.9062 78.9531 49.4715 78.9531 60.5469ZM46.0601 119.156L48.9143 111.156C53.0343 113.226 57.5044 114.312 62 114.312C66.4956 114.312 70.9657 113.226 75.0857 111.156L77.9399 119.156H46.0601ZM62 109.469C49.8991 109.469 39.5314 100.122 36.3556 88.6378H87.6435C84.4695 100.12 74.1009 109.469 62 109.469ZM93.4844 81.375V83.7969H30.5156V81.375C30.5156 80.0392 31.6017 78.9531 32.9375 78.9531H91.0625C92.3983 78.9531 93.4844 80.0392 93.4844 81.375Z" fill="#F2C94C"/>
</g>
<g filter="url(#filter1_d)">
<path d="M25.6719 36.3281C25.6719 37.6658 24.5877 38.75 23.25 38.75C21.9123 38.75 20.8281 37.6658 20.8281 36.3281C20.8281 34.9904 21.9123 33.9062 23.25 33.9062C24.5877 33.9062 25.6719 34.9904 25.6719 36.3281Z" fill="#F2C94C"/>
</g>
</g>
<defs>
<filter id="filter0_d" x="7.98438" y="-8" width="108.031" height="140" filterUnits="userSpaceOnUse" color-interpolation-filters="sRGB">
<feFlood flood-opacity="0" result="BackgroundImageFix"/>
<feColorMatrix in="SourceAlpha" type="matrix" values="0 0 0 0 0 0 0 0 0 0 0 0 0 0 0 0 0 0 127 0"/>
<feOffset/>
<feGaussianBlur stdDeviation="4"/>
<feColorMatrix type="matrix" values="0 0 0 0 0.94902 0 0 0 0 0.788235 0 0 0 0 0.298039 0 0 0 0.25 0"/>
<feBlend mode="normal" in2="BackgroundImageFix" result="effect1_dropShadow"/>
<feBlend mode="normal" in="SourceGraphic" in2="effect1_dropShadow" result="shape"/>
</filter>
<filter id="filter1_d" x="12.8281" y="25.9062" width="20.8438" height="20.8438" filterUnits="userSpaceOnUse" color-interpolation-filters="sRGB">
<feFlood flood-opacity="0" result="BackgroundImageFix"/>
<feColorMatrix in="SourceAlpha" type="matrix" values="0 0 0 0 0 0 0 0 0 0 0 0 0 0 0 0 0 0 127 0"/>
<feOffset/>
<feGaussianBlur stdDeviation="4"/>
<feColorMatrix type="matrix" values="0 0 0 0 0.94902 0 0 0 0 0.788235 0 0 0 0 0.298039 0 0 0 0.25 0"/>
<feBlend mode="normal" in2="BackgroundImageFix" result="effect1_dropShadow"/>
<feBlend mode="normal" in="SourceGraphic" in2="effect1_dropShadow" result="shape"/>
</filter>
<clipPath id="clip0">
<rect width="124" height="124" fill="white"/>
</clipPath>
</defs>
</svg>
