<svg width="48" height="48" viewBox="0 0 48 48" fill="none" xmlns="http://www.w3.org/2000/svg">
<g clip-path="url(#clip0)">
<path d="M44.7472 22.7559L42.8384 21.935V20.6299C42.8652 12.6193 37.8108 5.47203 30.249 2.82852V0.989095C30.249 0.443098 29.8059 0 29.2602 0H18.6781C18.1325 0 17.6894 0.443098 17.6894 0.989095V2.83824C10.1275 5.48175 5.07314 12.629 5.09995 20.6396V21.9548L3.21092 22.7559C2.84491 22.9104 2.6076 23.2694 2.6076 23.6659V28.858C2.6076 29.4037 3.0507 29.8468 3.5967 29.8468H4.88242V31.825C4.88242 32.3707 5.32519 32.8138 5.87118 32.8138H9.42167C9.75885 34.0519 10.2542 35.2427 10.8951 36.3542L8.3833 38.8663C7.99953 39.2517 7.99953 39.8748 8.3833 40.2606L12.5864 44.4637C12.9718 44.8475 13.5949 44.8475 13.9807 44.4637L16.4925 41.9519C17.6012 42.5928 18.7881 43.0871 20.0232 43.4253V46.9758C20.0232 47.5215 20.4663 47.9646 21.0123 47.9646H26.9458C27.4918 47.9646 27.9349 47.5215 27.9349 46.9758V43.4253C29.1731 43.0881 30.3636 42.5938 31.4754 41.9519L33.9875 44.4637C34.3729 44.8475 34.996 44.8475 35.3818 44.4637L39.5849 40.2606C39.9686 39.8748 39.9686 39.2517 39.5849 38.8663L37.0728 36.3542C37.7136 35.2427 38.2093 34.0519 38.5465 32.8138H42.0967C42.6427 32.8138 43.0858 32.3707 43.0858 31.825V29.8468H44.3715C44.9175 29.8468 45.3602 29.4037 45.3602 28.858V23.6659C45.3582 23.2664 45.1162 22.9074 44.7472 22.7559ZM19.6475 1.98791H28.2711V18.5133H19.6672L19.6475 1.98791ZM41.1176 30.8359H37.8245C37.3499 30.8248 36.9353 31.1533 36.8354 31.6168C36.5023 33.1657 35.8893 34.6401 35.0259 35.9684C34.7715 36.3592 34.8261 36.8744 35.1542 37.2045L37.5179 39.5682L34.6893 42.3769L32.3257 40.0133C31.9956 39.6851 31.4804 39.6305 31.0896 39.8849C29.7613 40.748 28.2869 41.3613 26.738 41.6945C26.2742 41.7944 25.946 42.209 25.9567 42.6836V46.0162H22.001V42.6538C22.0121 42.1791 21.6836 41.7649 21.2197 41.665C19.6713 41.3325 18.1965 40.7195 16.8685 39.8551C16.4777 39.601 15.9626 39.6553 15.6321 39.9838L13.2684 42.3474L10.4698 39.5484L12.8334 37.1847C13.1619 36.8546 13.2162 36.3394 12.9621 35.9486C12.0906 34.6284 11.4676 33.1607 11.1227 31.6168C11.0225 31.1533 10.6082 30.8248 10.1336 30.8359H6.8405V29.8468H15.8794C16.4214 34.315 20.483 37.4975 24.9512 36.9545C28.6737 36.5027 31.6078 33.5692 32.0589 29.8468H41.1079L41.1176 30.8359ZM17.8968 29.8468H30.071C29.527 33.2113 26.3583 35.4978 22.9942 34.9538C20.3694 34.5295 18.3115 32.4715 17.8871 29.8468H17.8968ZM43.3924 27.8689H4.57574V24.3185L6.48421 23.4976C6.85022 23.3434 7.08752 22.9845 7.08752 22.5876V20.6098C7.06574 13.7029 11.2708 7.48642 17.6894 4.93475V19.5024C17.6894 20.048 18.1321 20.4911 18.6781 20.4911H29.2796C29.8256 20.4911 30.2687 20.048 30.2687 19.5024V4.93475C36.698 7.48541 40.9081 13.7139 40.8803 20.6295V22.6077C40.8803 23.0042 41.1176 23.3632 41.4836 23.5174L43.3921 24.3382V27.8689H43.3924Z" fill="#333333"/>
</g>
<defs>
<clipPath id="clip0">
<rect width="48" height="48" fill="white"/>
</clipPath>
</defs>
</svg>
