<svg width="126" height="126" viewBox="0 0 126 126" fill="none" xmlns="http://www.w3.org/2000/svg">
<circle cx="63" cy="63" r="63" fill="#F2C94C" fill-opacity="0.6"/>
<g clip-path="url(#clip0)">
<path d="M91.1649 83.6654C91.1649 83.6654 42.4986 83.6455 42.4891 83.6458C41.5314 83.6332 41.0141 83.7059 39.7394 84.2753L31.8598 87.7917C31.3316 88.0254 31.0038 88.5259 31.0043 89.0978C31.0048 89.6637 31.3411 90.1774 31.856 90.4042C34.4403 91.5609 39.739 93.9256 39.739 93.9256C40.932 94.4583 41.4491 94.5179 42.2968 94.5179L61.3723 94.5356C61.89 94.5356 62.3098 94.1158 62.3098 93.5981C62.3098 93.0803 61.89 92.6606 61.3723 92.6606C61.3723 92.6606 43.532 92.6611 43.4548 92.6617V90.0379H84.8779V92.6606H66.0274C65.5095 92.6606 65.0899 93.0803 65.0899 93.5981C65.0899 94.1158 65.5095 94.5356 66.0274 94.5356H91.165C93.2796 94.5356 95.0001 92.8181 95.0001 90.7071V87.4939C95 85.3829 93.2795 83.6654 91.1649 83.6654ZM36.4443 87.7991V90.4007C35.473 89.9669 34.5028 89.5342 33.5305 89.0993L36.4443 87.7991ZM38.3193 91.2381V86.9623C38.3193 86.9623 41.3008 85.6504 41.5798 85.5863V92.6148C41.3008 92.5507 39.0036 91.5436 38.3193 91.2381ZM43.4549 88.1631V85.5393C43.5321 85.5399 43.6116 85.5404 43.696 85.5404H84.878V88.1631H43.4549ZM93.125 90.7071C93.125 91.7843 92.2458 92.6606 91.1649 92.6606H86.7529V85.5403H91.1649C92.2456 85.5403 93.125 86.4167 93.125 87.4938V90.7071Z" fill="#333333"/>
<path d="M32.6111 80.5702L61.2356 80.5667C61.7534 80.5667 62.1731 80.1468 62.173 79.6291C62.1729 79.1113 61.7531 78.6916 61.2354 78.6917L32.875 78.6951V40.4378H36.6231V71.7783C36.6231 72.6292 37.3159 73.3213 38.1675 73.3213H77.0421C77.6846 73.3213 78.2431 72.9744 78.4652 72.4377C78.6866 71.9023 78.54 71.3044 78.0728 70.8382L47.6074 40.4378H82.0891V70.1648C82.0891 71.0407 82.8024 71.7533 83.6791 71.7533H87.8115C89.7299 71.7533 91.2905 73.3096 91.2905 75.2224C91.2905 77.1353 89.7299 78.6916 87.8115 78.6916H65.5396C65.0217 78.6916 64.6021 79.1113 64.6021 79.6291C64.6021 80.1468 65.0217 80.5666 65.5396 80.5666H87.8114C90.7635 80.5666 93.1654 78.1692 93.1654 75.2224V40.0744C93.1654 37.1257 90.7635 34.7268 87.8114 34.7268H83.679C82.8022 34.7268 82.089 35.4378 82.089 36.3118V38.5629H45.7282L39.1069 31.9556C38.6384 31.4881 38.038 31.3434 37.5006 31.5684C36.9631 31.7937 36.6186 32.3529 36.6231 32.9867V38.5628H32.611C31.7227 38.5628 31 39.2864 31 40.1759V78.9572C31 79.8464 31.7228 80.5702 32.6111 80.5702ZM83.9641 36.6017H87.8114C89.7298 36.6017 91.2904 38.1594 91.2904 40.0743V71.1633C90.354 70.3624 89.1382 69.8782 87.8114 69.8782H83.9641V36.6017ZM38.4981 33.9971L76.0271 71.4464H67.989V70.1298C67.989 69.6121 67.5694 69.1923 67.0515 69.1923C66.5336 69.1923 66.114 69.6121 66.114 70.1298V71.4464H62.0923V68.8908C62.0923 68.3731 61.6725 67.9533 61.1548 67.9533C60.637 67.9533 60.2173 68.3731 60.2173 68.8908V71.4464H56.1919V70.1298C56.1919 69.6121 55.7721 69.1923 55.2544 69.1923C54.7366 69.1923 54.3169 69.6121 54.3169 70.1298V71.4464H50.2951V68.8908C50.2951 68.3731 49.8754 67.9533 49.3576 67.9533C48.8399 67.9533 48.4201 68.3731 48.4201 68.8908V71.4464H44.395V70.1298C44.395 69.6121 43.9753 69.1923 43.4575 69.1923C42.9398 69.1923 42.52 69.6121 42.52 70.1298V71.4464H38.4981V33.9971Z" fill="#333333"/>
<path d="M46.5585 64.6235H56.9454C57.3368 64.6235 58.0654 64.6235 58.3444 63.9491C58.6188 63.2858 58.1398 62.8079 57.7899 62.4589L47.5073 52.1991C47.158 51.8479 46.6795 51.367 46.0153 51.641C45.3403 51.9196 45.3403 52.6476 45.3403 53.0388V63.406C45.3404 64.1456 45.8185 64.6235 46.5585 64.6235ZM47.2154 54.5564L55.4258 62.7485H47.2154V54.5564Z" fill="#333333"/>
</g>
<defs>
<clipPath id="clip0">
<rect x="31" y="31" width="64" height="64" fill="white"/>
</clipPath>
</defs>
</svg>
