<svg width="126" height="126" viewBox="0 0 126 126" fill="none" xmlns="http://www.w3.org/2000/svg">
<circle cx="63" cy="63" r="63" fill="#F2C94C" fill-opacity="0.6"/>
<g clip-path="url(#clip0)">
<path d="M46.479 90.4331C51.4238 93.4087 57.0776 94.9771 62.8867 94.9771C80.4897 94.9771 95 80.6128 95 62.9883C95 45.3843 80.5103 31 62.8867 31C45.3169 31 31.0229 45.3501 31.0229 62.9883C31.0229 68.875 32.5918 74.5718 35.5669 79.5205L31 95L46.479 90.4331ZM34.772 62.9883C34.772 47.417 47.3843 34.7485 62.8867 34.7485C78.5269 34.7485 91.2515 47.417 91.2515 62.9883C91.2515 78.5601 78.5269 91.228 62.8867 91.228C57.5049 91.228 52.2749 89.7036 47.7637 86.8188L47.043 86.3584L36.5444 89.4561L39.6416 78.957L39.1812 78.2368C36.2964 73.7246 34.772 68.4521 34.772 62.9883Z" fill="#333333"/>
<path d="M46.5786 57.0941C47.1978 60.3456 49.0357 66.5995 54.3867 71.9506C59.7378 77.3016 65.9917 79.14 69.2437 79.7592C72.9673 80.4681 78.4317 80.5751 81.1021 77.9047L82.5908 76.4159C83.3423 75.6644 83.7564 74.6649 83.7564 73.6019C83.7564 72.5389 83.3423 71.5399 82.5908 70.7885L76.6372 64.8348C75.8853 64.0829 74.8863 63.6693 73.8233 63.6693C72.7603 63.6693 71.7613 64.0829 71.0093 64.8348L69.521 66.3231C68.6118 67.2323 66.8955 67.2362 65.9795 66.3344L60.041 60.1469C60.0322 60.1376 60.0235 60.1283 60.0142 60.1195C59.1035 59.2089 59.1035 57.7269 60.0142 56.8163L61.5025 55.328C63.0581 53.7723 63.0581 51.2552 61.5025 49.7001L55.5489 43.7465C53.9976 42.1952 51.4732 42.1952 49.9214 43.7465L48.4331 45.2352V45.2347C46.3018 47.3666 45.5913 51.9105 46.5786 57.0941ZM51.084 47.8861C52.6465 46.3593 52.563 46.33 52.7354 46.33C52.7945 46.33 52.8535 46.3524 52.8985 46.3973C59.1719 52.7045 58.9199 52.3339 58.9199 52.5145C58.9199 52.5775 58.897 52.6327 58.8526 52.6776L57.3638 54.1659C54.9932 56.5365 54.9839 60.3739 57.3487 62.7552L63.2906 68.9467C63.2998 68.9554 63.3086 68.9647 63.3179 68.974C65.688 71.3441 69.794 71.3519 72.1719 68.974L73.6602 67.4857C73.75 67.3959 73.8965 67.3959 73.9864 67.4857C80.2598 73.7924 80.0078 73.4218 80.0078 73.6024C80.0078 73.6659 79.9849 73.7206 79.9405 73.7655L78.4517 75.2538C77.4317 76.2738 74.1826 76.8842 69.9448 76.077C67.1167 75.538 61.6787 73.9413 57.0376 69.3002C52.3965 64.6591 50.7998 59.2211 50.2613 56.3929C49.4536 52.1552 50.064 48.9056 51.084 47.8861Z" fill="#333333"/>
</g>
<defs>
<clipPath id="clip0">
<rect x="31" y="31" width="64" height="64" fill="white"/>
</clipPath>
</defs>
</svg>
