<svg width="126" height="126" viewBox="0 0 126 126" fill="none" xmlns="http://www.w3.org/2000/svg">
<circle cx="63" cy="63" r="63" fill="#F2C94C" fill-opacity="0.6"/>
<g clip-path="url(#clip0)">
<path d="M78.9861 31.5493C78.6453 31.2084 78.1595 30.9998 77.6596 31H68.6808C56.5651 31 44.905 35.4034 35.8488 43.399C35.0725 44.0844 34.9988 45.2692 35.6843 46.0455C36.3673 46.8193 37.552 46.8975 38.3308 46.2101C46.7013 38.82 57.4799 34.75 68.6808 34.75H73.459C72.4904 35.9496 71.5921 37.1997 70.7703 38.5H68.6809C58.5769 38.5 48.8108 42.1226 41.1815 48.7005C40.3973 49.3768 40.3095 50.5606 40.9859 51.3449C41.6621 52.1291 42.846 52.2169 43.6303 51.5405C50.5775 45.5506 59.472 42.2513 68.6755 42.25C67.967 43.6925 67.4916 44.8419 67.0473 46.0395C59.5474 46.394 52.2913 49.2031 46.5285 54.0023C45.7328 54.6649 45.6249 55.8471 46.2875 56.6429C46.9469 57.4346 48.1288 57.5496 48.9281 56.8838C53.7093 52.9023 59.6443 50.4578 65.8351 49.8829C65.5024 51.1578 65.2333 52.4466 65.0283 53.7475C60.2379 54.3961 55.724 56.3034 51.9059 59.3053C51.0918 59.9452 50.9506 61.124 51.5908 61.9381C52.231 62.7524 53.4098 62.8931 54.2236 62.2533C57.2683 59.8595 60.8261 58.2733 64.6108 57.6066C64.5626 58.4128 64.5355 59.2221 64.5355 60.0349V61.4366C61.9598 61.9886 59.5199 63.0569 57.3358 64.6036C56.4906 65.2021 56.2908 66.3724 56.8893 67.2175C57.4848 68.0581 58.654 68.2654 59.503 67.664C62.1948 65.7576 65.3684 64.75 68.6808 64.75H75.7853V72.25H73.9103C72.8748 72.25 72.0353 73.0895 72.0353 74.125V89.375C72.0353 92.4766 74.5586 95 77.6603 95C80.7619 95 83.2853 92.4766 83.2853 89.375V74.125C83.2853 73.0895 82.4458 72.25 81.4103 72.25H79.5353V64.75H88.9103C89.9458 64.75 90.7853 63.9105 90.7853 62.875V60.0349C90.7853 49.6443 86.7534 39.3165 78.9861 31.5493ZM79.5353 89.375C79.5353 90.4089 78.6941 91.25 77.6603 91.25C76.6264 91.25 75.7853 90.4089 75.7853 89.375V76H79.5353V89.375ZM87.0353 61C80.931 61 74.3804 61 68.2853 61V60.0349C68.2853 50.9205 71.6006 42.3151 77.6603 35.5966C83.7199 42.3151 87.0353 50.9205 87.0353 60.0349V61Z" fill="#333333"/>
</g>
<defs>
<clipPath id="clip0">
<rect x="31" y="31" width="64" height="64" fill="white"/>
</clipPath>
</defs>
</svg>
