<svg width="126" height="126" viewBox="0 0 126 126" fill="none" xmlns="http://www.w3.org/2000/svg">
<circle cx="63" cy="63" r="63" fill="#F2C94C" fill-opacity="0.6"/>
<g clip-path="url(#clip0)">
<path d="M84.3333 77.1181L81.6167 75.4905C80.7885 74.9952 79.8411 74.7337 78.876 74.7332H74.7875C73.9505 74.7316 73.1172 74.8394 72.3078 75.053L59.989 78.3597C58.6422 78.7316 57.5604 79.7347 57.0885 81.0498L46.2531 75.1879C45.3745 74.6879 44.3458 74.5181 43.3531 74.7087C42.9786 74.7748 42.6156 74.8941 42.2745 75.0629C41.5042 75.4316 40.8651 76.0274 40.4422 76.7696C40.0724 77.416 39.8781 78.1478 39.8781 78.892C39.8667 80.4118 40.6719 81.8202 41.9864 82.5816L61.4062 94.2009C62.25 94.7233 63.2219 94.9999 64.2141 94.9999H79.2432C79.9146 95.0004 80.5797 94.8733 81.2036 94.6264L84.3333 93.3905V94.9999H95V73.6665H84.3333V77.1181ZM80.4198 92.6426C80.0463 92.79 79.6479 92.866 79.2463 92.8665H64.2141C63.613 92.866 63.0239 92.6967 62.5146 92.378L43.0682 80.7452C42.4073 80.3634 42.0026 79.6561 42.0078 78.8931C42.0094 78.5191 42.1078 78.1514 42.2937 77.8264C42.5062 77.4582 42.826 77.1629 43.2099 76.9806C43.3792 76.8983 43.5583 76.8399 43.7432 76.8077C43.8781 76.7827 44.0151 76.7696 44.1521 76.7696C44.5187 76.7686 44.8792 76.8644 45.1974 77.0467L56.9469 83.3957C56.9604 83.4608 56.9604 83.5248 56.9776 83.5899C57.4828 85.4519 59.1719 86.7452 61.1015 86.7472C61.6953 86.6931 62.2833 86.5879 62.8594 86.4337L73.9417 83.4681L73.3917 81.4071L62.3453 84.3597C61.8588 84.4717 61.2312 84.5998 61.1015 84.6108C60.138 84.6123 59.2932 83.9686 59.0396 83.0394C59.0052 82.9103 58.9849 82.778 58.9776 82.6446C58.9776 82.6446 58.9693 82.3863 58.9776 82.2957C59.0588 81.4035 59.6838 80.6545 60.5469 80.4144L72.8604 77.1202C73.4891 76.9519 74.137 76.8665 74.7875 76.8665H78.876C79.4552 76.8665 80.0234 77.0238 80.5198 77.3212L84.3333 79.6045V91.0957L80.4198 92.6426ZM86.4667 75.7998H92.8667V92.8665H86.4667V75.7998Z" fill="#333333"/>
<path d="M74.9938 39.5329L69.2719 33.8115C67.4755 32.0048 65.0312 30.9923 62.4839 30.9996H49.0734C48.2458 31.0006 47.4297 31.1938 46.6885 31.5626L44.2979 32.7584C43.8188 32.9996 43.2865 33.1147 42.7505 33.0933L41.6667 33.0553V30.9996H31V54.4662H41.6667V51.2662H43.4802L44.1255 51.6928C45.9313 52.8917 48.0339 53.5688 50.2 53.648V67.2662H95V39.5329H74.9938ZM39.5333 52.3329H33.1333V33.1329H39.5333V52.3329ZM45.3063 49.9178L44.1198 49.1329H41.6667V35.1897L42.6724 35.2256C43.5656 35.2574 44.4521 35.0652 45.2516 34.6667L47.6401 33.4709C48.0849 33.2485 48.576 33.1329 49.0734 33.1329H62.4839C64.4651 33.1272 66.3667 33.9147 67.7635 35.3193L71.9771 39.5329H63.175L60.5859 36.9443L59.0781 38.4522L66.613 45.9876C67.45 46.8209 67.4526 48.1751 66.6193 49.0126C65.7854 49.8496 64.4313 49.8522 63.5943 49.0188L57.301 42.7256L56.5542 43.3657C54.4922 45.1167 51.4781 45.1615 49.3646 43.4719L48.7464 42.9709L47.4021 44.6282L48.0271 45.135C48.6807 45.6574 49.4146 46.0709 50.2 46.3594V51.5136C48.4542 51.436 46.762 50.8844 45.3063 49.9178ZM60.4797 48.9193L62.0891 50.5292C63.7599 52.1751 66.4422 52.1777 68.1156 50.5344C66.55 52.9589 67.1677 56.1855 69.5182 57.86C71.8688 59.5344 75.1203 59.0641 76.9 56.7928C78.6797 54.5209 78.3583 51.2511 76.1698 49.3699C73.9818 47.4886 70.7005 47.661 68.7219 49.761C69.4505 48.6167 69.5807 47.1907 69.0714 45.9329H83.3552C83.8141 48.6167 85.9161 50.7188 88.6 51.1777V55.6214C85.9161 56.0803 83.8141 58.1824 83.3552 60.8662H61.8448C61.3859 58.1824 59.2839 56.0803 56.6 55.6214V51.1777C58.1245 50.9209 59.5031 50.1183 60.4797 48.9193ZM69.4 53.3996C69.4 51.6324 70.8328 50.1996 72.6 50.1996C74.3672 50.1996 75.8 51.6324 75.8 53.3996C75.8 55.1667 74.3672 56.5996 72.6 56.5996C70.8328 56.5996 69.4 55.1667 69.4 53.3996ZM92.8667 65.1329H52.3333V46.8063C54.0245 46.9334 55.7104 46.5022 57.1333 45.5798L58.9531 47.3996C58.1526 48.4871 56.8839 49.1303 55.5333 49.1329H54.4667V57.6662H55.5333C57.8896 57.6662 59.8 59.5766 59.8 61.9329V62.9996H85.4V61.9329C85.4 59.5766 87.3104 57.6662 89.6667 57.6662H90.7333V49.1329H89.6667C87.3104 49.1329 85.4 47.2225 85.4 44.8662V43.7996H67.4417L65.3083 41.6662H92.8667V65.1329Z" fill="#333333"/>
</g>
<defs>
<clipPath id="clip0">
<rect x="31" y="31" width="64" height="64" fill="white"/>
</clipPath>
</defs>
</svg>
