<svg width="126" height="126" viewBox="0 0 126 126" fill="none" xmlns="http://www.w3.org/2000/svg">
<circle cx="63" cy="63" r="63" fill="#F2C94C" fill-opacity="0.6"/>
<g clip-path="url(#clip0)">
<path d="M94.8819 46.1752C94.6617 45.356 94.1243 44.6577 93.389 44.2344C92.6532 43.8089 91.7783 43.6938 90.9576 43.9141C90.138 44.1349 89.4396 44.6718 89.0163 45.4071L88.483 46.335C87.9763 46.0439 87.3291 46.2153 87.0328 46.7194L84.3238 51.3368L83.3959 50.8036C83.1501 50.6614 82.8574 50.6229 82.5835 50.6968C82.3091 50.7713 82.0758 50.9514 81.9347 51.1983C81.6457 51.7081 81.8217 52.3559 82.3294 52.6486L83.2574 53.1818L74.1922 68.8911L71.9525 74.8745L70.886 76.8684C70.2617 77.9547 70.3283 79.3049 71.0568 80.324L68.6572 83.2673L67.9855 81.5827C67.6824 80.8318 66.981 80.3173 66.1743 80.2543C65.3672 80.1907 64.5939 80.5896 64.1778 81.2838L63.794 81.9342L63.4316 77.6682C63.3483 76.659 62.5666 75.8477 61.5616 75.7259C60.556 75.6045 59.6041 76.207 59.2828 77.1673L56.6593 85.0378C56.476 85.5945 56.7759 86.1944 57.331 86.3819C57.4352 86.4303 57.5472 86.4595 57.6617 86.4667C58.12 86.4683 58.5282 86.1762 58.6751 85.7419L61.2877 77.8713L61.661 82.2008C61.7381 83.1246 62.4021 83.8927 63.305 84.102C64.208 84.3114 65.1422 83.9135 65.6177 83.1184L66.0124 82.4674L66.6737 84.1421C66.9544 84.8478 67.5892 85.3513 68.3406 85.4633C69.0921 85.5752 69.8461 85.2789 70.321 84.6858L72.806 81.54C73.081 81.6118 73.3643 81.6478 73.6486 81.6467C74.7916 81.6556 75.8529 81.0536 76.432 80.0678L77.4984 78.2869L81.5618 73.3492L90.7228 57.4477L91.6507 57.981C91.8981 58.1226 92.0782 58.3564 92.1517 58.6319C92.2256 58.9053 92.1871 59.1969 92.0454 59.4422L87.7795 66.8331C87.6186 67.0758 87.5639 67.3736 87.6285 67.658C87.6931 67.9418 87.8706 68.187 88.1206 68.3365C88.3664 68.4792 88.659 68.5177 88.933 68.4438C89.2074 68.3693 89.4407 68.1891 89.5818 67.9423L93.8477 60.5514C94.2732 59.8156 94.3883 58.9407 94.1675 58.12C93.9467 57.3004 93.4098 56.602 92.6745 56.1787L91.7465 55.6454L94.4127 51.0275C94.7038 50.5208 94.5325 49.874 94.029 49.5772L94.5622 48.6492C94.9991 47.902 95.1147 47.0094 94.8819 46.1752ZM90.8613 46.4736C91.0024 46.2267 91.2367 46.046 91.5122 45.9726C91.7861 45.9049 92.0756 45.9429 92.3225 46.0794C92.5698 46.2205 92.75 46.4548 92.824 46.7298C92.8917 47.0037 92.8536 47.2932 92.7172 47.54L92.184 48.468L90.328 47.4015L90.8613 46.4736ZM76.3252 76.2503L75.792 75.9409L74.2136 75.0234L75.7279 70.971L79.0872 72.9118L76.3252 76.2503ZM73.1257 79.332C72.6753 79.018 72.5368 78.414 72.806 77.9349L73.3393 77.0074L75.1947 78.0739L74.6614 78.9909C74.512 79.2503 74.261 79.4346 73.9688 79.4997C73.6767 79.5643 73.371 79.5039 73.1257 79.332ZM80.3032 71.1631L76.6132 69.0301L85.1451 54.2483L88.8351 56.3812L80.3032 71.1631ZM89.9015 54.5363L86.2115 52.4033L88.3445 48.7133L92.0345 50.8463L89.9015 54.5363Z" fill="#333333"/>
<path d="M47.8299 78.7994L44.0551 82.5643L41.7941 80.3033C41.378 79.8898 40.7062 79.8898 40.2902 80.3033C40.0881 80.5037 39.9746 80.7761 39.9746 81.0604C39.9746 81.3447 40.0881 81.6176 40.2902 81.8175L42.5512 84.0785C42.9511 84.4753 43.4917 84.6977 44.0551 84.6972C44.6217 84.7003 45.1669 84.4779 45.5694 84.0785L49.3338 80.3033C49.6963 79.8799 49.6718 79.2493 49.2781 78.8556C48.8839 78.4614 48.2533 78.437 47.8299 78.7994Z" fill="#333333"/>
<path d="M35.2676 81.6663C35.2676 86.6732 39.3263 90.7313 44.3327 90.7313C49.3392 90.7313 53.3979 86.6732 53.3979 81.6663C53.3979 81.0773 52.9203 80.5998 52.3314 80.5998C51.7424 80.5998 51.2649 81.0773 51.2649 81.6663C51.2649 85.4947 48.1612 88.5983 44.3327 88.5983C40.5042 88.5983 37.4006 85.4947 37.4006 81.6663C37.4006 77.8378 40.5042 74.7342 44.3327 74.7342C45.8335 74.73 47.2942 75.2169 48.4919 76.1209C48.9632 76.4745 49.6318 76.3787 49.9849 75.9074C50.3385 75.4362 50.2432 74.7681 49.7719 74.4145C47.025 72.3544 43.3495 72.0233 40.2787 73.5584C37.2074 75.094 35.2676 78.233 35.2676 81.6663Z" fill="#333333"/>
<path d="M69.393 39.5431C69.982 39.5431 70.4595 39.0661 70.4595 38.4766C70.4595 37.8877 69.982 37.4102 69.393 37.4102H41.6641C41.0752 37.4102 40.5977 37.8877 40.5977 38.4766V42.7426C40.5977 43.3321 41.0752 43.8091 41.6641 43.8091H69.393C69.982 43.8091 70.4595 43.3321 70.4595 42.7426C70.4595 42.1536 69.982 41.6761 69.393 41.6761H42.7306V39.5431H69.393Z" fill="#333333"/>
<path d="M44.8653 45.9414C44.2764 45.9414 43.7988 46.4189 43.7988 47.0078C43.7988 47.5973 44.2764 48.0742 44.8653 48.0742H66.1952C66.7842 48.0742 67.2617 47.5973 67.2617 47.0078C67.2617 46.4189 66.7842 45.9414 66.1952 45.9414H44.8653Z" fill="#333333"/>
<path d="M72.5936 53.4062H49.1309C48.542 53.4062 48.0645 53.8837 48.0645 54.4727C48.0645 55.0621 48.542 55.5391 49.1309 55.5391H72.5936C73.1826 55.5391 73.6601 55.0621 73.6601 54.4727C73.6601 53.8837 73.1826 53.4062 72.5936 53.4062Z" fill="#333333"/>
<path d="M61.9275 60.8711C61.9275 60.2822 61.45 59.8047 60.861 59.8047H39.5313C38.9424 59.8047 38.4648 60.2822 38.4648 60.8711C38.4648 61.4605 38.9424 61.9375 39.5313 61.9375H60.861C61.45 61.9375 61.9275 61.4605 61.9275 60.8711Z" fill="#333333"/>
<path d="M72.5924 59.8047H65.127C64.5381 59.8047 64.0605 60.2822 64.0605 60.8711C64.0605 61.4605 64.5381 61.9375 65.127 61.9375H72.5924C73.1814 61.9375 73.6589 61.4605 73.6589 60.8711C73.6589 60.2822 73.1814 59.8047 72.5924 59.8047Z" fill="#333333"/>
<path d="M50.1962 67.27C50.7851 67.27 51.2627 66.7929 51.2627 66.2034C51.2627 65.6143 50.7851 65.1367 50.1962 65.1367H39.5313C38.9424 65.1367 38.4648 65.6143 38.4648 66.2034C38.4648 66.7929 38.9424 67.27 39.5313 67.27H50.1962Z" fill="#333333"/>
<path d="M54.461 67.27H61.9264C62.5154 67.27 62.9929 66.7929 62.9929 66.2034C62.9929 65.6143 62.5154 65.1367 61.9264 65.1367H54.461C53.8721 65.1367 53.3945 65.6143 53.3945 66.2034C53.3945 66.7929 53.8721 67.27 54.461 67.27Z" fill="#333333"/>
<path d="M78.9918 80.07C78.4029 80.07 77.9253 80.5476 77.9253 81.1365V91.8014C77.9253 92.3909 77.4478 92.8679 76.8589 92.8679H34.1995C33.6105 92.8679 33.133 92.3909 33.133 91.8014V34.2112C33.133 33.6222 33.6105 33.1447 34.1995 33.1447H76.8589C77.4478 33.1447 77.9253 33.6222 77.9253 34.2112V54.2401C77.9253 54.829 78.4029 55.3065 78.9918 55.3065C79.5808 55.3065 80.0583 54.829 80.0583 54.2401V34.2112C80.0583 32.4443 78.6257 31.0117 76.8589 31.0117H34.1995C32.4326 31.0117 31 32.4443 31 34.2112V91.8014C31 93.5688 32.4326 95.0008 34.1995 95.0008H76.8589C78.6257 95.0008 80.0583 93.5688 80.0583 91.8014V81.1365C80.0583 80.5476 79.5808 80.07 78.9918 80.07Z" fill="#333333"/>
</g>
<defs>
<clipPath id="clip0">
<rect x="31" y="31" width="64" height="64" fill="white"/>
</clipPath>
</defs>
</svg>
