<svg width="126" height="126" viewBox="0 0 126 126" fill="none" xmlns="http://www.w3.org/2000/svg">
<circle cx="63" cy="63" r="63" fill="#F2C94C" fill-opacity="0.6"/>
<path d="M87.9262 66.2407C87.5032 65.6919 86.7153 65.5899 86.1662 66.013C85.6172 66.4362 85.5153 67.2242 85.9385 67.773C87.2286 69.4465 87.9105 71.4512 87.9105 73.57C87.9105 74.263 88.4723 74.8249 89.1653 74.8249C89.8583 74.8249 90.4202 74.2629 90.4202 73.57C90.4202 70.8917 89.5578 68.3572 87.9262 66.2407Z" fill="#333333"/>
<path d="M83.7095 57.8217C86.2574 56.102 87.9361 53.1887 87.9361 49.8905C87.9361 44.6172 83.6459 40.3269 78.3725 40.3269C73.0991 40.3269 68.8089 44.6172 68.8089 49.8905C68.8089 53.1872 70.486 56.0994 73.032 57.8194C71.1772 58.4473 69.4408 59.4034 67.899 60.657C66.5945 59.4024 64.8438 58.6798 63.0001 58.6798C61.1566 58.6798 59.4059 59.4027 58.1021 60.657C56.5599 59.4034 54.8231 58.4473 52.9681 57.8193C55.5141 56.0993 57.1912 53.187 57.1912 49.8903C57.1912 44.6169 52.901 40.3267 47.6276 40.3267C42.3549 40.3267 38.0652 44.6169 38.0652 49.8903C38.0652 53.1884 39.7436 56.1017 42.2911 57.8214C35.7426 60.0465 31.0159 66.2495 31.0018 73.5379C31.0014 73.549 31 73.5595 31 73.5705C31 75.4972 32.0947 78.3405 37.3105 80.9455C41.027 82.8018 46.1342 84.1972 52.0802 84.9805C55.568 85.4405 59.242 85.6739 63.0001 85.6739C66.7591 85.6739 70.4335 85.4407 73.9211 84.9805C79.8666 84.1972 84.9735 82.8018 88.6899 80.9455C93.9053 78.3404 95 75.4972 95 73.5705C95 66.2682 90.2681 60.0502 83.7095 57.8217ZM71.3187 49.8905C71.3187 46.001 74.4831 42.8368 78.3725 42.8368C82.2619 42.8368 85.4263 46.0012 85.4263 49.8905C85.4263 53.7794 82.2619 56.943 78.3725 56.943C74.4831 56.943 71.3187 53.7794 71.3187 49.8905ZM59.2558 63.1502C60.1084 61.9227 61.5079 61.1897 63 61.1897C64.4929 61.1897 65.8929 61.9227 66.7454 63.1502C66.7455 63.1505 66.7458 63.1508 66.7459 63.151C67.2779 63.9159 67.5589 64.814 67.5589 65.7487C67.5589 68.2625 65.5137 70.3077 62.9999 70.3077C60.4866 70.3077 58.4421 68.2624 58.4421 65.7485C58.4421 64.8125 58.723 63.9147 59.2558 63.1502ZM40.5749 49.8905C40.5749 46.001 43.7386 42.8368 47.6274 42.8368C51.5169 42.8368 54.6811 46.0012 54.6811 49.8905C54.6811 53.7794 51.5168 56.943 47.6274 56.943C43.7386 56.943 40.5749 53.7794 40.5749 49.8905ZM50.9899 82.2907C45.9293 81.52 41.6093 80.2872 38.4321 78.7003C35.2671 77.1197 33.5206 75.3037 33.5105 73.5855C33.5105 73.5805 33.5113 73.5757 33.5113 73.5707C33.5111 65.7862 39.8438 59.4529 47.6275 59.4529C50.939 59.4529 54.0984 60.5969 56.6266 62.6923C56.1707 63.6397 55.9325 64.6783 55.9325 65.7488C55.9325 67.9334 56.9289 69.8895 58.4906 71.1873C54.1042 72.9707 51.0013 77.2742 50.9899 82.2907ZM72.5021 82.6265C69.4497 82.9827 66.2595 83.1643 63 83.1643C59.7412 83.1643 56.5515 82.9827 53.4991 82.6265V82.3184C53.4991 77.0795 57.7611 72.8175 63 72.8175C68.2395 72.8175 72.5021 77.0795 72.5021 82.3184V82.6265ZM87.5682 78.7002C84.3914 80.2872 80.0719 81.5199 75.0117 82.2905C75.0004 77.274 71.8971 72.9708 67.5104 71.1872C69.0725 69.8894 70.0691 67.9333 70.0691 65.7485C70.0691 64.6793 69.8309 63.6404 69.3745 62.6922C71.9016 60.5967 75.0606 59.4527 78.3727 59.4527C86.1571 59.4528 92.4902 65.786 92.4902 73.5704C92.4902 75.2932 90.7422 77.1149 87.5682 78.7002Z" fill="#333333"/>
<path d="M84.166 63.293C82.5511 63.293 82.5482 65.8027 84.166 65.8027C85.781 65.8027 85.7836 63.293 84.166 63.293Z" fill="#333333"/>
</svg>
