<svg width="35" height="35" viewBox="0 0 35 35" fill="none" xmlns="http://www.w3.org/2000/svg">
<circle cx="17.5" cy="17.5" r="17.5" fill="#F2C94C"/>
<path d="M23.808 14.5483L23.4149 14.1552C23.2914 14.0316 23.1267 13.9636 22.9509 13.9636C22.7751 13.9636 22.6103 14.0316 22.4868 14.1552L16.9636 19.6784L13.5128 16.2274C13.3893 16.104 13.2245 16.0359 13.0487 16.0359C12.873 16.0359 12.7083 16.104 12.5847 16.2274L12.1915 16.6204C12.0679 16.7442 12 16.9091 12 17.0847C12 17.2604 12.0679 17.4252 12.1915 17.5488L16.0877 21.4448C16.0929 21.4521 16.0983 21.4589 16.1047 21.4652L16.4979 21.8518C16.6214 21.9749 16.7861 22.0365 16.9633 22.0365H16.9654C17.1413 22.0365 17.306 21.9749 17.4294 21.8518L17.8226 21.4618C17.829 21.4555 17.8343 21.4504 17.8376 21.4451L23.8079 15.4753C24.064 15.2198 24.064 14.8041 23.808 14.5483Z" fill="black"/>
</svg>
