<svg width="50" height="50" viewBox="0 0 50 50" fill="none" xmlns="http://www.w3.org/2000/svg">
<circle cx="25" cy="25" r="24.5" stroke="#ABABAB"/>
<g clip-path="url(#clip0)">
<path d="M34.4776 23.6029C36.8655 20.3701 36.3359 20.3095 36.9231 19.2994H32.3471C32.3471 19.2994 32.0219 20.4285 31.9226 20.6307C31.0437 22.4182 29.0723 25.1004 27.88 25.3745C26.706 25.6446 26.8618 22.8702 26.9342 21.6684C27.0023 20.5544 26.9907 20.1646 26.958 19.9722C26.9101 19.691 26.6741 19.4859 26.391 19.4501C25.8074 19.3762 24.7484 19.2716 23.5624 19.3266L22.5014 19.3618C22.9198 20.2975 23.2024 20.0107 23.3564 21.0933C23.5304 22.3608 23.4619 25.4449 22.2136 25.4449C20.2125 25.4449 17.9662 19.4348 17.8948 19.2994H13.8462L14.2166 20.2264C17.2021 27.7003 20.9361 31.1619 26.0449 31.4497L26.7097 31.4689L26.7572 30.8233C26.8291 29.8262 27.3293 28.391 28.2164 28.391C29.5272 28.391 29.906 28.7727 30.7704 29.8409C31.6016 30.865 32.1743 31.4689 33.5156 31.4689H36.9231L36.4372 30.4918C35.6784 28.9683 34.1563 27.6623 33.5619 26.9047C33.3466 26.6194 33.1346 26.1685 33.354 25.6231C33.5334 25.1481 34.0675 24.1574 34.4776 23.6029Z" fill="#A3A3A3"/>
</g>
<defs>
<clipPath id="clip0">
<rect x="13.8462" y="13.8457" width="23.0769" height="23.0769" fill="white"/>
</clipPath>
</defs>
</svg>
