<svg width="50" height="50" viewBox="0 0 50 50" fill="none" xmlns="http://www.w3.org/2000/svg">
<circle cx="25" cy="25" r="24.5" stroke="#ABABAB"/>
<g clip-path="url(#clip0)">
<path d="M30.6764 13.8457H20.0929C16.6484 13.8457 13.8462 16.6479 13.8462 20.0924V30.6761C13.8462 34.1204 16.6484 36.9226 20.0929 36.9226H30.6765C34.1209 36.9226 36.9231 34.1204 36.9231 30.6761V20.0924C36.9231 16.6479 34.1209 13.8457 30.6764 13.8457V13.8457ZM25.3846 31.6941C21.9053 31.6941 19.0747 28.8635 19.0747 25.3841C19.0747 21.9048 21.9053 19.0742 25.3846 19.0742C28.864 19.0742 31.6945 21.9048 31.6945 25.3841C31.6945 28.8635 28.864 31.6941 25.3846 31.6941ZM31.8454 20.5623C30.8172 20.5623 29.9809 19.726 29.9809 18.6978C29.9809 17.6696 30.8172 16.8331 31.8454 16.8331C32.8736 16.8331 33.7101 17.6696 33.7101 18.6978C33.7101 19.726 32.8736 20.5623 31.8454 20.5623Z" fill="white"/>
<path d="M25.3847 20.4268C22.6515 20.4268 20.4276 22.6504 20.4276 25.3838C20.4276 28.117 22.6515 30.3408 25.3847 30.3408C28.118 30.3408 30.3417 28.117 30.3417 25.3838C30.3417 22.6504 28.118 20.4268 25.3847 20.4268Z" fill="white"/>
<path d="M31.8454 18.1865C31.5633 18.1865 31.3337 18.4161 31.3337 18.6982C31.3337 18.9802 31.5633 19.2098 31.8454 19.2098C32.1276 19.2098 32.3572 18.9804 32.3572 18.6982C32.3572 18.4159 32.1276 18.1865 31.8454 18.1865Z" fill="white"/>
</g>
<defs>
<clipPath id="clip0">
<rect x="13.8462" y="13.8457" width="23.0769" height="23.0769" fill="white"/>
</clipPath>
</defs>
</svg>
