<svg width="50" height="50" viewBox="0 0 50 50" fill="none" xmlns="http://www.w3.org/2000/svg">
<circle cx="25" cy="25" r="24.5" stroke="#ABABAB"/>
<g clip-path="url(#clip0)">
<path d="M30.6797 27.6023L30.6711 27.6744C28.5567 26.6206 28.3355 26.4802 28.0624 26.8898C27.873 27.1735 27.3211 27.8167 27.1547 28.0071C26.9865 28.1946 26.8192 28.209 26.5336 28.0792C26.2451 27.935 25.3192 27.6321 24.223 26.6513C23.3692 25.8869 22.7961 24.9494 22.6269 24.661C22.3451 24.1744 22.9346 24.1052 23.4711 23.0898C23.5672 22.8879 23.5182 22.7292 23.4471 22.586C23.3749 22.4417 22.8009 21.0283 22.5605 20.4648C22.3297 19.9033 22.0922 19.9744 21.9144 19.9744C21.3605 19.9263 20.9557 19.934 20.599 20.3052C19.0471 22.011 19.4384 23.7706 20.7663 25.6417C23.3759 29.0571 24.7663 29.686 27.3086 30.559C27.9951 30.7773 28.6211 30.7465 29.1163 30.6754C29.6682 30.5879 30.8153 29.9821 31.0547 29.3042C31.2999 28.6263 31.2999 28.0638 31.2278 27.934C31.1567 27.8042 30.9682 27.7321 30.6797 27.6023Z" fill="#A3A3A3"/>
<path d="M33.5769 17.1615C26.1836 10.0144 13.9481 15.198 13.9432 25.2807C13.9432 27.2961 14.4711 29.2615 15.4769 30.9971L13.8461 36.9221L19.9375 35.3336C27.5384 39.4394 36.9192 33.9875 36.9231 25.2865C36.9231 22.2326 35.7307 19.3586 33.5625 17.199L33.5769 17.1615ZM35.0019 25.2548C34.9961 32.5942 26.9394 37.1778 20.5673 33.4317L20.2211 33.2259L16.6154 34.1634L17.5817 30.6586L17.3519 30.298C13.3865 23.9855 17.9423 15.7355 25.4538 15.7355C28.0057 15.7355 30.4009 16.7307 32.2048 18.5336C34.0077 20.3211 35.0019 22.7163 35.0019 25.2548Z" fill="#A3A3A3"/>
</g>
<defs>
<clipPath id="clip0">
<rect x="13.8461" y="13.8458" width="23.0769" height="23.0769" fill="white"/>
</clipPath>
</defs>
</svg>
