<svg width="50" height="50" viewBox="0 0 50 50" fill="none" xmlns="http://www.w3.org/2000/svg">
<circle cx="25" cy="25" r="24.5" stroke="#ABABAB"/>
<g clip-path="url(#clip0)">
<path d="M30.6799 27.6018L30.6712 27.6739C28.5568 26.6201 28.3356 26.4797 28.0626 26.8893C27.8731 27.173 27.3212 27.8162 27.1549 28.0066C26.9866 28.1941 26.8193 28.2085 26.5337 28.0787C26.2453 27.9345 25.3193 27.6316 24.2231 26.6508C23.3693 25.8864 22.7962 24.9489 22.627 24.6605C22.3453 24.1739 22.9347 24.1047 23.4712 23.0893C23.5674 22.8874 23.5183 22.7287 23.4472 22.5855C23.3751 22.4412 22.801 21.0278 22.5606 20.4643C22.3299 19.9028 22.0924 19.9739 21.9145 19.9739C21.3606 19.9258 20.9558 19.9335 20.5991 20.3047C19.0472 22.0105 19.4385 23.7701 20.7664 25.6412C23.376 29.0566 24.7664 29.6855 27.3087 30.5585C27.9953 30.7768 28.6212 30.746 29.1164 30.6749C29.6683 30.5874 30.8154 29.9816 31.0549 29.3037C31.3001 28.6258 31.3001 28.0633 31.2279 27.9335C31.1568 27.8037 30.9683 27.7316 30.6799 27.6018Z" fill="white"/>
<path d="M33.577 17.1615C26.1837 10.0144 13.9481 15.198 13.9433 25.2807C13.9433 27.2961 14.4712 29.2615 15.477 30.9971L13.8462 36.9221L19.9375 35.3336C27.5385 39.4394 36.9193 33.9875 36.9231 25.2865C36.9231 22.2326 35.7308 19.3586 33.5625 17.199L33.577 17.1615ZM35.002 25.2548C34.9962 32.5942 26.9395 37.1778 20.5673 33.4317L20.2212 33.2259L16.6154 34.1634L17.5818 30.6586L17.352 30.298C13.3866 23.9855 17.9423 15.7355 25.4539 15.7355C28.0058 15.7355 30.401 16.7307 32.2048 18.5336C34.0077 20.3211 35.002 22.7163 35.002 25.2548Z" fill="white"/>
</g>
<defs>
<clipPath id="clip0">
<rect x="13.8462" y="13.8457" width="23.0769" height="23.0769" fill="white"/>
</clipPath>
</defs>
</svg>
