<svg width="16" height="12" viewBox="0 0 16 12" fill="none" xmlns="http://www.w3.org/2000/svg">
<path d="M15.7445 1.39774L15.2205 0.873644C15.0558 0.708831 14.8362 0.618164 14.6018 0.618164C14.3674 0.618164 14.1477 0.708831 13.983 0.873644L6.6187 8.23781L2.01759 3.63657C1.85291 3.47202 1.6332 3.38122 1.39879 3.38122C1.16452 3.38122 0.944939 3.47202 0.780127 3.63657L0.255899 4.16054C0.0910859 4.32561 0.000549316 4.54545 0.000549316 4.77959C0.000549316 5.01387 0.0910859 5.23358 0.255899 5.39839L5.45083 10.5931C5.45772 10.6028 5.465 10.6119 5.47346 10.6202L5.99769 11.1358C6.16237 11.2999 6.38208 11.382 6.61831 11.382H6.62104C6.85557 11.382 7.07528 11.2999 7.2397 11.1358L7.76406 10.6157C7.77252 10.6074 7.77967 10.6005 7.78396 10.5934L15.7444 2.63377C16.0859 2.29309 16.0859 1.73881 15.7445 1.39774Z" fill="#F2C94C"/>
</svg>
